<svg width="24" height="24" viewBox="0 0 24 24" fill="none" xmlns="http://www.w3.org/2000/svg">
<g id="Capa_1" clip-path="url(#clip0_155_1801)">
<path id="Vector" d="M9.24084 23.9995C8.45069 23.6883 7.66055 23.3765 6.86986 23.0657C6.61526 22.966 6.35847 22.8723 6.10441 22.7715C5.80866 22.6542 5.72251 22.5221 5.73074 22.1983C5.74227 21.7451 5.75324 21.2924 5.77464 20.8398C5.78122 20.7022 5.74665 20.6102 5.62978 20.5263C4.93292 20.0277 4.31782 19.4408 3.78447 18.77C3.69558 18.6588 3.60394 18.627 3.46402 18.6401C3.00475 18.6834 2.54439 18.7141 2.08402 18.7432C1.77016 18.7634 1.64011 18.6856 1.51501 18.4018C1.07824 17.4093 0.643108 16.4158 0.210726 15.4218C0.0883633 15.1401 0.116896 15.0086 0.338575 14.7927C0.674934 14.4655 1.02007 14.1477 1.3493 13.8139C1.4135 13.7487 1.46288 13.6249 1.45191 13.5367C1.3471 12.673 1.31363 11.8094 1.391 10.9413C1.39868 10.8531 1.34216 10.7304 1.27412 10.6684C0.945447 10.3681 0.602504 10.0826 0.265048 9.7922C-0.0252195 9.54232 -0.0575934 9.42778 0.0768404 9.07816C0.457096 8.08794 0.838449 7.09826 1.222 6.10913C1.34326 5.79677 1.46782 5.71566 1.81021 5.72443C2.264 5.73594 2.71723 5.7595 3.17046 5.75896C3.26868 5.75896 3.40202 5.70306 3.45854 5.62799C3.97707 4.93642 4.56693 4.31609 5.23416 3.7659C5.30714 3.70562 5.35927 3.57191 5.35542 3.47491C5.33567 3.0146 5.29232 2.55592 5.25995 2.09616C5.23745 1.77339 5.31647 1.63694 5.60948 1.50871C6.59606 1.07634 7.58373 0.645064 8.57251 0.216532C8.86881 0.0883012 8.99886 0.114057 9.22218 0.343667C9.54921 0.679588 9.86856 1.02373 10.2016 1.35362C10.2625 1.4139 10.3778 1.46213 10.4601 1.45226C11.3402 1.34211 12.2209 1.31307 13.1059 1.39143C13.1806 1.39801 13.2843 1.34321 13.3375 1.28403C13.6464 0.942078 13.9438 0.589169 14.2462 0.241192C14.475 -0.0218459 14.6012 -0.0547256 14.926 0.0702173C15.917 0.451074 16.908 0.833027 17.8984 1.21608C18.2287 1.34376 18.3055 1.45939 18.2967 1.81668C18.2852 2.27754 18.2627 2.73786 18.2605 3.19872C18.2605 3.28257 18.3143 3.39655 18.3807 3.44587C19.0825 3.96482 19.7069 4.56159 20.2639 5.23343C20.3237 5.30522 20.4597 5.3518 20.5574 5.34796C21.0183 5.32823 21.4776 5.28439 21.938 5.25425C22.2628 5.23288 22.3923 5.31179 22.5223 5.60881C22.9514 6.58753 23.3794 7.56679 23.8058 8.54716C23.9441 8.86445 23.9172 8.98884 23.6642 9.2327C23.3377 9.54725 23.0041 9.85522 22.6859 10.1774C22.62 10.2437 22.5646 10.367 22.5761 10.4547C22.6881 11.3343 22.7127 12.2132 22.6354 13.0966C22.6288 13.17 22.6897 13.2714 22.7501 13.3257C23.0754 13.6183 23.4102 13.9005 23.7416 14.1866C23.9945 14.4041 24.0631 14.6195 23.9457 14.9286C23.5632 15.9347 23.172 16.9375 22.7852 17.942C22.6952 18.1754 22.5245 18.2828 22.2765 18.2752C21.7997 18.2604 21.3229 18.2385 20.8455 18.239C20.7495 18.239 20.6205 18.3026 20.5629 18.3793C20.0477 19.0632 19.4682 19.6841 18.7966 20.2167C18.6847 20.3055 18.6523 20.3976 18.6649 20.5362C18.7066 20.9949 18.7384 21.4546 18.7664 21.915C18.7867 22.2432 18.7105 22.3621 18.407 22.4947C17.427 22.9233 16.4465 23.3512 15.4654 23.777C15.1565 23.9113 15.0303 23.885 14.7976 23.645C14.4766 23.314 14.1628 22.9753 13.8341 22.652C13.7682 22.5873 13.6448 22.5364 13.5564 22.5473C12.684 22.6547 11.811 22.6843 10.9342 22.6065C10.8535 22.5994 10.7421 22.6591 10.6834 22.7232C10.4189 23.0109 10.1709 23.3134 9.91136 23.6055C9.789 23.7431 9.65292 23.8691 9.52342 24.0006H9.24193L9.24084 23.9995ZM21.1819 17.3452V17.3874C21.4161 17.3874 21.6515 17.3792 21.8853 17.3907C22.0153 17.3967 22.0779 17.3562 22.1245 17.2318C22.4137 16.4657 22.7078 15.7012 23.0102 14.9401C23.0628 14.8075 23.0458 14.7318 22.9372 14.642C22.6173 14.3784 22.3144 14.0951 21.9901 13.837C21.7684 13.6605 21.6998 13.4523 21.736 13.1794C21.8644 12.2193 21.8173 11.2619 21.6565 10.3101C21.6186 10.0854 21.6768 9.9155 21.8392 9.76371C22.1586 9.4645 22.4686 9.15488 22.7918 8.85951C22.9037 8.75704 22.9136 8.67155 22.8532 8.53674C22.5212 7.7964 22.1959 7.05332 21.876 6.3075C21.8216 6.18091 21.7602 6.13214 21.617 6.14584C21.1813 6.18804 20.7429 6.20667 20.3072 6.24996C20.0729 6.27298 19.8979 6.20283 19.7574 6.01651C19.1599 5.22302 18.4465 4.54953 17.6262 3.98948C17.4331 3.85741 17.353 3.68425 17.3645 3.4519C17.3859 3.02282 17.3892 2.59264 17.4117 2.16356C17.4193 2.01615 17.3755 1.94327 17.2328 1.88956C16.4723 1.60515 15.714 1.31362 14.9589 1.01496C14.8256 0.962354 14.7499 0.981533 14.6604 1.08949C14.4069 1.39691 14.1298 1.68571 13.8857 2.00026C13.6958 2.24466 13.473 2.32686 13.1718 2.28741C12.2187 2.16192 11.2678 2.20521 10.3223 2.37015C10.099 2.40906 9.92727 2.34659 9.77528 2.18438C9.47568 1.8649 9.16786 1.55364 8.86881 1.23416C8.77882 1.13771 8.70475 1.10209 8.56812 1.16347C7.81309 1.50213 7.05313 1.83093 6.29317 2.15808C6.18453 2.20466 6.14118 2.2611 6.1527 2.38495C6.19276 2.82061 6.21141 3.25791 6.2575 3.69247C6.28329 3.93468 6.218 4.11716 6.0232 4.26403C5.22977 4.86189 4.55431 5.57373 3.99353 6.39299C3.86074 6.58698 3.6879 6.66425 3.45524 6.65274C3.01792 6.63137 2.5795 6.62698 2.14218 6.60561C2.01159 6.59903 1.95068 6.63794 1.90349 6.76343C1.61487 7.53008 1.32022 8.29398 1.01788 9.05515C0.965201 9.18776 0.98276 9.26394 1.09195 9.35326C1.39374 9.6015 1.67468 9.87605 1.9858 10.1117C2.24863 10.3106 2.32984 10.5462 2.28924 10.8641C2.16852 11.8083 2.20858 12.7503 2.37429 13.6868C2.41325 13.9076 2.35234 14.0814 2.18827 14.2332C1.86728 14.5307 1.55836 14.8414 1.23462 15.1363C1.12158 15.2393 1.115 15.3248 1.17481 15.4585C1.50623 16.1988 1.83216 16.9419 2.15206 17.6877C2.20693 17.8154 2.26948 17.8631 2.4127 17.8488C2.84837 17.8066 3.28679 17.788 3.72247 17.7447C3.95731 17.7211 4.13071 17.7935 4.27172 17.9798C4.87091 18.7717 5.58259 19.4468 6.40346 20.0063C6.58837 20.1323 6.67342 20.2945 6.66245 20.5203C6.6416 20.9653 6.63666 21.4108 6.61471 21.8552C6.60813 21.9856 6.64764 22.047 6.77274 22.0942C7.54039 22.3824 8.30583 22.6761 9.06799 22.9775C9.20023 23.0296 9.2776 23.0142 9.36759 22.9057C9.62109 22.5983 9.89819 22.3095 10.1424 21.995C10.3322 21.75 10.5539 21.6678 10.8557 21.7073C11.8088 21.8317 12.7597 21.7889 13.7051 21.6251C13.9279 21.5867 14.1002 21.647 14.2522 21.8097C14.5507 22.1298 14.8613 22.4388 15.157 22.7616C15.2596 22.8739 15.3458 22.8822 15.4802 22.8224C16.2144 22.4936 16.9502 22.1692 17.691 21.8558C17.8391 21.7933 17.8879 21.7237 17.872 21.5626C17.8287 21.1352 17.8122 20.7055 17.7711 20.2781C17.7486 20.0452 17.8177 19.8698 18.0054 19.729C18.7999 19.1322 19.4743 18.4198 20.0345 17.6006C20.1667 17.4066 20.3396 17.3271 20.5733 17.3414C20.7758 17.354 20.9799 17.3441 21.1829 17.3441L21.1819 17.3452Z" fill="#DA291C"/>
<path id="Vector_2" d="M19.8277 11.9964C19.8375 16.28 16.3423 19.7746 12.0217 19.8009C7.74179 19.8272 4.23609 16.3354 4.20262 12.0134C4.1697 7.73844 7.72149 4.18579 12.0168 4.19729C16.3242 4.20935 19.8183 7.69734 19.8282 11.9964H19.8277ZM7.21064 16.9672C7.21064 16.274 7.20077 15.6274 7.21284 14.9813C7.23808 13.602 8.20381 12.5739 9.57558 12.4419C9.8247 12.4178 9.99315 12.5071 10.1726 12.6808C10.4321 12.9329 10.7103 13.1943 11.0308 13.3488C12.019 13.8256 13.14 13.551 13.8451 12.7055C13.9762 12.5482 14.1129 12.4304 14.334 12.4337C15.6185 12.4534 16.7406 13.511 16.8026 14.7933C16.8334 15.4246 16.8153 16.0581 16.8191 16.6905C16.8191 16.7705 16.8191 16.8505 16.8191 16.9672C19.3706 14.5813 19.8886 10.131 16.9453 7.13455C14.1749 4.31402 9.55254 4.35676 6.83533 7.39594C4.20152 10.3425 4.69756 14.6366 7.2101 16.9661L7.21064 16.9672ZM15.9499 16.2494C15.9499 15.8433 15.9554 15.4372 15.9488 15.0312C15.9351 14.1938 15.3957 13.5001 14.6451 13.3642C14.5579 13.3483 14.4273 13.3844 14.3658 13.4453C12.9995 14.7966 11.0286 14.7928 9.64911 13.4359C9.59204 13.3795 9.47078 13.3488 9.38957 13.3631C8.74099 13.4787 8.15168 14.0656 8.11821 14.7215C8.06992 15.6794 8.08419 16.6412 8.08364 17.6013C8.08364 17.6698 8.1665 17.7629 8.23509 17.804C10.7504 19.3203 13.2689 19.3187 15.7897 17.8139C15.9132 17.7399 15.9565 17.6572 15.9532 17.5152C15.9439 17.0938 15.9499 16.6719 15.9499 16.2499V16.2494Z" fill="#DA291C"/>
<path id="Vector_3" d="M12.0113 6.82618C13.5515 6.82947 14.7834 8.05862 14.7839 9.59246C14.7845 11.123 13.5433 12.3659 12.014 12.367C10.4875 12.3681 9.23975 11.1208 9.23975 9.59465C9.23975 8.06191 10.4804 6.82289 12.0107 6.82618H12.0113ZM10.1193 9.57711C10.1056 10.6167 10.9457 11.4732 11.9921 11.4863C13.0396 11.4995 13.9098 10.643 13.9131 9.59575C13.9169 8.56552 13.0637 7.70681 12.0228 7.69311C10.994 7.67941 10.1336 8.53154 10.1193 9.57711Z" fill="#DA291C"/>
</g>
<defs>
<clipPath id="clip0_155_1801">
<rect width="24" height="24" fill="white"/>
</clipPath>
</defs>
</svg>
