<svg width="24" height="24" viewBox="0 0 24 24" fill="none" xmlns="http://www.w3.org/2000/svg">
<g id="Capa_1" clip-path="url(#clip0_155_2044)">
<path id="Vector" d="M20.3607 21.5207C19.9063 21.6969 19.5155 21.8402 19.1324 22.0045C19.0625 22.0345 18.9898 22.145 18.9856 22.2219C18.9689 22.526 18.9828 22.8322 18.9773 23.1377C18.9675 23.6417 18.6256 23.9961 18.153 23.9996C17.6833 24.0031 17.3246 23.6515 17.3065 23.1537C17.2953 22.8489 17.2988 22.5427 17.3065 22.2379C17.3093 22.0981 17.2757 22.0324 17.124 21.9821C16.7388 21.8535 16.3655 21.6885 15.9384 21.5179C15.73 21.7318 15.4917 21.9849 15.2442 22.2296C14.8618 22.6071 14.3515 22.6308 14.0089 22.2946C13.6573 21.9492 13.6804 21.4333 14.0669 21.0404C14.269 20.8349 14.4787 20.6371 14.6737 20.4259C14.7206 20.3749 14.7646 20.2672 14.7422 20.2141C14.5724 19.8066 14.3864 19.4053 14.1928 18.9761C13.8719 18.9761 13.5147 18.9809 13.1581 18.9747C12.6576 18.9663 12.2927 18.623 12.2822 18.1574C12.2717 17.6891 12.6443 17.3178 13.1532 17.3032C13.458 17.2941 13.7642 17.2948 14.069 17.3032C14.2054 17.3074 14.2606 17.2584 14.3074 17.1284C14.4284 16.7942 14.5647 16.4643 14.7157 16.1427C14.773 16.0211 14.7821 15.9498 14.6779 15.8526C14.4542 15.645 14.241 15.4254 14.0292 15.2059C13.6755 14.8403 13.6699 14.3237 14.0117 13.9909C14.3445 13.6666 14.8506 13.6771 15.2078 14.0224C15.4336 14.2405 15.6476 14.4719 15.8796 14.6823C15.93 14.7278 16.0488 14.741 16.1166 14.7159C16.4655 14.5845 16.8115 14.4432 17.1506 14.2866C17.2205 14.2545 17.2932 14.1454 17.2981 14.0678C17.3156 13.7721 17.3009 13.475 17.3065 13.1786C17.3162 12.6508 17.6812 12.2684 18.1586 12.2775C18.6326 12.2866 18.9724 12.6564 18.9794 13.1772C18.9835 13.5254 18.9801 13.8742 18.9801 14.1881C19.4156 14.3852 19.8231 14.5754 20.2377 14.7501C20.2831 14.7697 20.3803 14.7187 20.4285 14.6732C20.6501 14.4635 20.8599 14.2412 21.0794 14.0294C21.4457 13.6757 21.963 13.6666 22.2958 14.0035C22.6208 14.3321 22.6132 14.8417 22.272 15.2017C22.0266 15.4611 21.7729 15.7128 21.5233 15.9686C21.5177 15.9742 21.5177 15.9847 21.5303 15.9442C21.6974 16.3776 21.8442 16.7754 22.0091 17.1661C22.0357 17.2291 22.1413 17.292 22.214 17.2955C22.5013 17.3102 22.7893 17.299 23.0773 17.3025C23.6345 17.3088 24.0057 17.6499 24.0029 18.1497C24.0001 18.6412 23.6373 18.9712 23.0906 18.9768C22.8026 18.9796 22.5146 18.9691 22.2273 18.983C22.1518 18.9865 22.0413 19.0425 22.014 19.1047C21.9253 19.3018 21.8791 19.5185 21.7959 19.7185C21.7127 19.9177 21.6044 20.1065 21.4925 20.3302C21.7386 20.5686 21.9931 20.8076 22.2384 21.0544C22.6132 21.4312 22.6327 21.9464 22.2909 22.2883C21.9497 22.6301 21.4338 22.6113 21.0577 22.2365C20.8109 21.9912 20.5718 21.7374 20.3628 21.5221L20.3607 21.5207ZM18.137 20.4322C19.4184 20.4322 20.4041 19.4395 20.4425 18.184C20.4803 16.9459 19.4107 15.8805 18.2188 15.8428C16.9464 15.8029 15.8014 16.8942 15.8461 18.219C15.8859 19.4221 16.8954 20.4308 18.137 20.4315V20.4322Z" fill="#DA291C"/>
<path id="Vector_2" d="M11.4564 1.61158e-05C14.8497 0.00770596 17.6013 2.76417 17.5908 6.147C17.5803 9.53892 14.8238 12.2835 11.4361 12.2744C8.0407 12.2653 5.30102 9.51794 5.30591 6.12672C5.31011 2.7376 8.06587 -0.00767373 11.4564 1.61158e-05ZM11.4333 10.5994C13.9032 10.6078 15.9165 8.60425 15.9158 6.13721C15.9158 3.67996 13.922 1.68339 11.4592 1.6757C8.99634 1.66731 6.98999 3.65409 6.9802 6.11134C6.97042 8.58817 8.95789 10.5917 11.4326 10.6001L11.4333 10.5994Z" fill="#DA291C"/>
<path id="Vector_3" d="M6.60765 22.8982C5.08157 22.8982 3.55549 22.8996 2.0287 22.8982C0.788541 22.8968 0.00557527 22.1152 0.0076725 20.8709C0.00907065 20.1998 -0.0293786 19.521 0.0538116 18.8589C0.201317 17.6908 0.882917 16.8078 1.75536 16.0668C2.91933 15.0783 4.28812 14.4792 5.73311 14.0444C7.58217 13.4872 9.47806 13.2425 11.4075 13.2481C11.8997 13.2495 12.2576 13.5802 12.2751 14.0381C12.2939 14.5156 11.9591 14.8805 11.4648 14.9189C11.3865 14.9252 11.3082 14.9238 11.2293 14.9238C9.76748 14.9273 8.32459 15.0944 6.90686 15.4516C5.4416 15.8207 4.04834 16.3534 2.8606 17.3217C2.3321 17.7523 1.89029 18.2528 1.7316 18.9428C1.70084 19.0777 1.68476 19.2183 1.68266 19.3567C1.67637 19.8712 1.68476 20.3857 1.67637 20.9002C1.67217 21.1365 1.77004 21.2407 2.00493 21.2225C2.07414 21.2169 2.14475 21.2218 2.21396 21.2218C5.23187 21.2218 8.24909 21.2211 11.267 21.2246C11.4299 21.2246 11.6019 21.2393 11.7543 21.2931C12.1255 21.4231 12.3324 21.8209 12.2639 22.2215C12.2024 22.585 11.8794 22.8821 11.4984 22.8912C10.958 22.9045 10.4169 22.8968 9.87654 22.8968C8.78668 22.8968 7.69612 22.8968 6.60626 22.8968L6.60765 22.8982Z" fill="#DA291C"/>
</g>
<defs>
<clipPath id="clip0_155_2044">
<rect width="24.0014" height="24" fill="white"/>
</clipPath>
</defs>
</svg>
