<svg width="24" height="24" viewBox="0 0 24 24" fill="none" xmlns="http://www.w3.org/2000/svg">
<g id="Capa_1" clip-path="url(#clip0_38_44)">
<path id="Vector" d="M20.3607 21.5202C19.9063 21.6964 19.5155 21.8397 19.1324 22.004C19.0625 22.034 18.9898 22.1445 18.9856 22.2214C18.9689 22.5255 18.9828 22.8317 18.9773 23.1372C18.9675 23.6412 18.6256 23.9956 18.153 23.9991C17.6833 24.0026 17.3246 23.651 17.3065 23.1532C17.2953 22.8485 17.2988 22.5423 17.3065 22.2375C17.3093 22.0976 17.2757 22.0319 17.124 21.9816C16.7388 21.853 16.3655 21.688 15.9384 21.5174C15.73 21.7313 15.4917 21.9844 15.2442 22.2291C14.8618 22.6066 14.3515 22.6303 14.0089 22.2941C13.6573 21.9487 13.6804 21.4328 14.0669 21.0399C14.269 20.8344 14.4787 20.6366 14.6737 20.4255C14.7206 20.3744 14.7646 20.2668 14.7422 20.2136C14.5724 19.8061 14.3864 19.4048 14.1928 18.9756C13.8719 18.9756 13.5147 18.9805 13.1581 18.9742C12.6576 18.9658 12.2927 18.6225 12.2822 18.1569C12.2717 17.6886 12.6443 17.3174 13.1532 17.3027C13.458 17.2936 13.7642 17.2943 14.069 17.3027C14.2054 17.3069 14.2606 17.2579 14.3074 17.1279C14.4284 16.7937 14.5647 16.4638 14.7157 16.1422C14.773 16.0206 14.7821 15.9493 14.6779 15.8521C14.4542 15.6445 14.241 15.425 14.0292 15.2054C13.6755 14.8398 13.6699 14.3232 14.0117 13.9905C14.3445 13.6661 14.8506 13.6766 15.2078 14.0219C15.4336 14.24 15.6476 14.4714 15.8796 14.6818C15.93 14.7273 16.0488 14.7406 16.1166 14.7154C16.4655 14.584 16.8115 14.4428 17.1506 14.2862C17.2205 14.254 17.2932 14.1449 17.2981 14.0673C17.3156 13.7716 17.3009 13.4745 17.3065 13.1781C17.3162 12.6503 17.6812 12.2679 18.1586 12.277C18.6326 12.2861 18.9724 12.6559 18.9794 13.1767C18.9835 13.5249 18.9801 13.8737 18.9801 14.1876C19.4156 14.3847 19.8231 14.5749 20.2377 14.7496C20.2831 14.7692 20.3803 14.7182 20.4285 14.6728C20.6501 14.463 20.8599 14.2407 21.0794 14.0289C21.4457 13.6752 21.963 13.6661 22.2958 14.003C22.6208 14.3316 22.6132 14.8412 22.272 15.2013C22.0266 15.4606 21.7729 15.7123 21.5233 15.9681C21.5177 15.9737 21.5177 15.9842 21.5303 15.9437C21.6974 16.3771 21.8442 16.7749 22.0091 17.1657C22.0357 17.2286 22.1413 17.2915 22.214 17.295C22.5013 17.3097 22.7893 17.2985 23.0773 17.302C23.6345 17.3083 24.0057 17.6494 24.0029 18.1493C24.0001 18.6407 23.6373 18.9707 23.0906 18.9763C22.8026 18.9791 22.5146 18.9686 22.2273 18.9826C22.1518 18.9861 22.0413 19.042 22.014 19.1042C21.9253 19.3013 21.8791 19.5181 21.7959 19.718C21.7127 19.9172 21.6044 20.106 21.4925 20.3297C21.7386 20.5681 21.9931 20.8071 22.2384 21.0539C22.6132 21.4307 22.6327 21.9459 22.2909 22.2878C21.9497 22.6296 21.4338 22.6108 21.0577 22.2361C20.8109 21.9907 20.5718 21.7369 20.3628 21.5216L20.3607 21.5202ZM18.137 20.4317C19.4184 20.4317 20.4041 19.4391 20.4425 18.1835C20.4803 16.9454 19.4107 15.8801 18.2188 15.8423C16.9464 15.8025 15.8014 16.8937 15.8461 18.2185C15.8859 19.4216 16.8954 20.4303 18.137 20.431V20.4317Z" fill="#D4D3D3"/>
<path id="Vector_2" d="M11.4564 1.61158e-05C14.8497 0.00770596 17.6013 2.76417 17.5908 6.147C17.5803 9.53892 14.8238 12.2835 11.4361 12.2744C8.0407 12.2653 5.30102 9.51794 5.30591 6.12672C5.31011 2.7376 8.06587 -0.00767373 11.4564 1.61158e-05ZM11.4333 10.5994C13.9032 10.6078 15.9165 8.60425 15.9158 6.13721C15.9158 3.67996 13.922 1.68339 11.4592 1.6757C8.99634 1.66731 6.98999 3.65409 6.9802 6.11134C6.97042 8.58817 8.95789 10.5917 11.4326 10.6001L11.4333 10.5994Z" fill="#D4D3D3"/>
<path id="Vector_3" d="M6.60765 22.8982C5.08157 22.8982 3.55549 22.8996 2.0287 22.8982C0.788541 22.8968 0.00557527 22.1152 0.0076725 20.8709C0.00907065 20.1998 -0.0293786 19.521 0.0538116 18.8589C0.201317 17.6908 0.882917 16.8078 1.75536 16.0668C2.91933 15.0783 4.28812 14.4792 5.73311 14.0444C7.58217 13.4872 9.47806 13.2425 11.4075 13.2481C11.8997 13.2495 12.2576 13.5802 12.2751 14.0381C12.2939 14.5156 11.9591 14.8805 11.4648 14.9189C11.3865 14.9252 11.3082 14.9238 11.2293 14.9238C9.76748 14.9273 8.32459 15.0944 6.90686 15.4516C5.4416 15.8207 4.04834 16.3534 2.8606 17.3217C2.3321 17.7523 1.89029 18.2528 1.7316 18.9428C1.70084 19.0777 1.68476 19.2183 1.68266 19.3567C1.67637 19.8712 1.68476 20.3857 1.67637 20.9002C1.67217 21.1365 1.77004 21.2407 2.00493 21.2225C2.07414 21.2169 2.14475 21.2218 2.21396 21.2218C5.23187 21.2218 8.24909 21.2211 11.267 21.2246C11.4299 21.2246 11.6019 21.2393 11.7543 21.2931C12.1255 21.4231 12.3324 21.8209 12.2639 22.2215C12.2024 22.585 11.8794 22.8821 11.4984 22.8912C10.958 22.9045 10.4169 22.8968 9.87654 22.8968C8.78668 22.8968 7.69612 22.8968 6.60626 22.8968L6.60765 22.8982Z" fill="#D4D3D3"/>
</g>
<defs>
<clipPath id="clip0_38_44">
<rect width="24.0014" height="24" fill="white"/>
</clipPath>
</defs>
</svg>
