<svg width="21" height="24" viewBox="0 0 21 24" fill="none" xmlns="http://www.w3.org/2000/svg">
<g id="Capa_1" clip-path="url(#clip0_100_334)">
<path id="Vector" d="M20.9979 11.9895C20.9979 14.5516 21.0016 17.1136 20.9965 19.6757C20.9928 21.7708 19.5562 23.4934 17.4606 23.9131C17.1683 23.9717 16.8644 23.9938 16.5655 23.9945C12.5195 23.9995 8.47342 24.0017 4.42736 23.9967C1.93675 23.9938 0.00447063 22.1042 0.00301285 19.6692C-0.000631591 14.5544 -0.00136048 9.43889 0.00301285 4.32408C0.00519952 1.90338 1.93748 0.00736364 4.40696 0.0045082C8.47124 -0.000488826 12.5355 -0.00120269 16.5998 0.0045082C19.0547 0.0080775 20.9899 1.90124 20.9965 4.30409C21.0037 6.86614 20.9979 9.42818 20.9979 11.9902V11.9895ZM19.2486 12.0274C19.2486 9.50171 19.2486 6.97607 19.2486 4.45043C19.2486 2.80498 18.1378 1.71706 16.4591 1.71706C12.4867 1.71706 8.51497 1.71706 4.54253 1.71706C2.8639 1.71706 1.75234 2.80641 1.75234 4.44972C1.75234 9.48315 1.75234 14.5166 1.75234 19.55C1.75234 21.194 2.8639 22.2841 4.5418 22.2841C8.51424 22.2841 12.486 22.2841 16.4584 22.2841C18.137 22.2841 19.2479 21.1962 19.2486 19.5507C19.2493 17.0429 19.2486 14.5351 19.2486 12.0274Z" fill="white"/>
<path id="Vector_2" d="M12.2231 8.57256C11.0933 8.57256 9.96355 8.57398 8.83377 8.57256C8.27471 8.57184 7.88039 8.21848 7.87601 7.72378C7.87164 7.22479 8.26305 6.86072 8.81701 6.86C11.113 6.85786 13.409 6.85786 15.705 6.86C16.1453 6.86 16.4681 7.09486 16.587 7.48392C16.6941 7.83371 16.5636 8.22776 16.232 8.41551C16.0673 8.50831 15.8573 8.56399 15.6664 8.56613C14.5184 8.5797 13.3704 8.57256 12.2224 8.57256H12.2231Z" fill="white"/>
<path id="Vector_3" d="M12.2501 12.8573C11.129 12.8573 10.0087 12.8573 8.8877 12.8573C8.28053 12.8573 7.87965 12.5196 7.876 12.0071C7.87236 11.4902 8.27033 11.144 8.87239 11.144C11.1502 11.144 13.4279 11.1426 15.7057 11.1447C16.146 11.1447 16.4689 11.3803 16.5869 11.7701C16.6934 12.1199 16.5629 12.5139 16.2312 12.7017C16.0665 12.7945 15.8566 12.8494 15.6656 12.8516C14.5271 12.8651 13.3879 12.858 12.2493 12.858L12.2501 12.8573Z" fill="white"/>
<path id="Vector_4" d="M12.277 15.4286C13.3981 15.4286 14.5184 15.4279 15.6394 15.4286C16.2218 15.4286 16.6198 15.7748 16.6227 16.2788C16.6263 16.7849 16.2283 17.1411 15.6518 17.1411C13.3828 17.1426 11.1145 17.1426 8.84543 17.1411C8.26961 17.1411 7.87164 16.7821 7.87601 16.2767C7.88039 15.7705 8.27544 15.4286 8.86001 15.4279C9.99926 15.4265 11.1378 15.4279 12.277 15.4279V15.4286Z" fill="white"/>
<path id="Vector_5" d="M6.13597 7.70196C6.1418 8.1831 5.75111 8.57287 5.26494 8.57144C4.79481 8.57001 4.39538 8.18595 4.38591 7.72694C4.37643 7.25794 4.78169 6.85817 5.26494 6.85889C5.74237 6.8596 6.13013 7.23509 6.13597 7.70196Z" fill="white"/>
<path id="Vector_6" d="M6.13607 11.9965C6.13752 12.4655 5.75777 12.8489 5.28327 12.8567C4.80293 12.8646 4.38965 12.4712 4.38673 12.0029C4.38382 11.5432 4.77669 11.152 5.24755 11.1442C5.73664 11.1363 6.13461 11.5175 6.13607 11.9958V11.9965Z" fill="white"/>
<path id="Vector_7" d="M6.13581 16.288C6.13435 16.7563 5.75095 17.1375 5.27572 17.1418C4.79611 17.1461 4.38429 16.7477 4.38575 16.2809C4.38793 15.8183 4.78007 15.4335 5.25385 15.4292C5.74367 15.425 6.13654 15.8076 6.13581 16.288Z" fill="white"/>
</g>
<defs>
<clipPath id="clip0_100_334">
<rect width="21" height="24" fill="white"/>
</clipPath>
</defs>
</svg>
