<svg width="24" height="24" viewBox="0 0 24 24" fill="none" xmlns="http://www.w3.org/2000/svg">
<g id="Capa_1" clip-path="url(#clip0_100_381)">
<path id="Vector" d="M9.48793 23.9997C9.30998 23.8875 9.11128 23.7968 8.95848 23.6582C8.71199 23.435 8.68432 23.1253 8.68432 22.8132C8.68558 19.962 8.67678 17.1102 8.69124 14.2589C8.69438 13.5894 8.5026 13.0142 8.1052 12.4703C5.49254 8.89801 2.8912 5.31711 0.286083 1.73866C-0.0647873 1.2561 -0.0924544 0.816456 0.200566 0.41851C0.391092 0.159753 0.657074 0.035893 0.974618 0.00523462C1.05385 -0.0021234 1.13496 -0.000283892 1.21482 -0.000283892C8.40891 -0.000283892 15.6036 -0.000283892 22.7977 -0.000283892C23.4385 -0.000283892 23.8201 0.251115 23.9654 0.766176C24.0685 1.13162 23.9314 1.43698 23.7195 1.72762C22.5229 3.36969 21.3276 5.01298 20.1322 6.65565C18.7093 8.61043 17.292 10.5689 15.8602 12.5175C15.481 13.0338 15.3018 13.5887 15.3049 14.2221C15.3144 16.527 15.3087 18.8313 15.3087 21.1362C15.3087 21.807 15.132 22.0584 14.4894 22.2963C12.979 22.8543 11.468 23.4117 9.95764 23.9697C9.94381 23.9746 9.93375 23.9893 9.92117 23.9991H9.48856L9.48793 23.9997ZM1.45313 1.22666C1.52042 1.32355 1.5638 1.38793 1.60908 1.45108C4.1117 4.8885 6.60991 8.32837 9.12071 11.7603C9.67091 12.512 9.94507 13.3232 9.93941 14.2503C9.92306 16.9606 9.93375 19.6708 9.93375 22.381C9.93375 22.4699 9.93375 22.5594 9.93375 22.6728C10.0494 22.636 10.1255 22.6152 10.1985 22.5882C11.4089 22.1388 12.6168 21.6832 13.831 21.2435C14.0165 21.1761 14.0631 21.089 14.0631 20.9063C14.0562 18.6885 14.0662 16.47 14.0549 14.2522C14.0505 13.3373 14.3171 12.528 14.8635 11.7817C17.3794 8.34432 19.8813 4.89709 22.3877 1.45292C22.4362 1.38609 22.4808 1.31619 22.5405 1.22728H1.45313V1.22666Z" fill="white"/>
</g>
<defs>
<clipPath id="clip0_100_381">
<rect width="24" height="24" fill="white"/>
</clipPath>
</defs>
</svg>
