<svg width="23" height="24" viewBox="0 0 23 24" fill="none" xmlns="http://www.w3.org/2000/svg">
<g id="Capa_1" clip-path="url(#clip0_134_361)">
<path id="Vector" d="M7.21387 20.0952C7.14252 20.0952 7.07117 20.0952 6.99982 20.0952C5.5953 20.0952 4.19041 20.0963 2.78589 20.0949C1.95868 20.0938 1.25678 19.7978 0.697582 19.1876C0.352066 18.8104 0.127878 18.3651 0.0583402 17.8598C-0.0593672 17.0067 -0.026047 16.1701 0.423414 15.3974C0.679111 14.9575 1.02499 14.6056 1.45743 14.3364C1.65119 14.2159 1.85872 14.1112 2.03365 13.9672C2.37229 13.6882 2.51643 13.3071 2.5541 12.8762C2.6508 11.7636 2.74678 10.6509 2.85616 9.53971C2.96517 8.43501 2.98799 7.30937 3.22775 6.23246C3.88546 3.27382 5.73655 1.36901 8.65641 0.521985C9.96713 0.1416 11.4832 0.200065 12.7635 0.610044C12.514 1.1485 12.2637 1.68804 12.0094 2.23624C11.7179 2.19294 11.3999 2.12834 11.0783 2.10019C9.7817 1.98723 8.57493 2.26656 7.47717 2.96923C6.30589 3.71881 5.50222 4.75927 5.1165 6.09135C4.97091 6.59444 4.90245 7.12459 4.84777 7.64753C4.71376 8.93124 4.60982 10.2182 4.4903 11.5037C4.4309 12.1432 4.39251 12.7863 4.29327 13.4201C4.14406 14.3721 3.62759 15.1029 2.81885 15.628C2.71817 15.6934 2.61096 15.7489 2.50557 15.8074C2.08399 16.0416 1.84423 16.3957 1.81743 16.8782C1.80584 17.0872 1.80512 17.2997 1.82975 17.5072C1.88226 17.9547 2.22959 18.2673 2.67941 18.2947C2.72758 18.2976 2.77575 18.2972 2.82392 18.2972C7.97842 18.2972 13.1329 18.2972 18.2874 18.2972C18.7923 18.2972 19.1675 18.08 19.2508 17.6491C19.4138 16.8057 19.2939 16.1521 18.5029 15.7417C17.6496 15.2989 17.1093 14.5901 16.8677 13.6687C16.7829 13.3461 16.7612 13.0058 16.7275 12.6719C16.6562 11.9678 16.5964 11.263 16.5319 10.5625C17.1408 10.6531 17.7431 10.7426 18.3656 10.8353C18.4131 11.3467 18.4624 11.8837 18.5131 12.4204C18.533 12.6294 18.5493 12.839 18.579 13.0469C18.6489 13.537 18.9049 13.9095 19.3377 14.1462C19.7658 14.3804 20.1461 14.6659 20.4485 15.0506C20.9136 15.6428 21.0943 16.3217 21.1037 17.0655C21.112 17.736 21.011 18.3698 20.6119 18.9284C20.053 19.7101 19.282 20.0902 18.3265 20.0945C16.922 20.101 15.5171 20.0963 14.1126 20.0963H13.8587C13.8587 20.3655 13.8732 20.6218 13.8562 20.8762C13.7533 22.419 12.7414 23.5862 11.2199 23.9276C9.45067 24.3246 7.58003 23.069 7.30441 21.2858C7.24501 20.9026 7.24393 20.5103 7.21387 20.0963V20.0952ZM9.06459 20.1053C9.06459 20.3648 9.04431 20.6113 9.06857 20.8535C9.12797 21.4417 9.44451 21.8625 9.98886 22.0859C10.5267 22.3064 11.0442 22.2263 11.5006 21.8647C12.0757 21.4085 12.1058 20.7734 12.0576 20.1053H9.06459Z" fill="#DA291C"/>
<path id="Vector_2" d="M22.5882 4.17558C22.5654 6.50193 20.7531 8.33781 18.3902 8.35838C16.1303 8.37787 14.2085 6.56869 14.1991 4.17883C14.1897 1.76082 16.1458 0.0047004 18.4062 8.74255e-06C20.7071 -0.00468292 22.5886 1.87956 22.5882 4.17558Z" fill="#25FF62"/>
<path id="Vector_3" d="M20.7581 4.17702C20.7451 5.48852 19.7238 6.52321 18.3917 6.53476C17.1179 6.54594 16.0343 5.52605 16.0292 4.17882C16.0241 2.81571 17.1266 1.82577 18.4007 1.82325C19.6977 1.82072 20.7585 2.88284 20.7581 4.17702Z" fill="#2EB43B"/>
</g>
<defs>
<clipPath id="clip0_134_361">
<rect width="22.5882" height="24" fill="white"/>
</clipPath>
</defs>
</svg>
