<svg width="24" height="24" viewBox="0 0 24 24" fill="none" xmlns="http://www.w3.org/2000/svg">
<g id="Capa_1" clip-path="url(#clip0_38_58)">
<path id="Vector" d="M0 11.251C0.0613619 10.804 0.106444 10.3538 0.187216 9.91048C0.686877 7.15421 1.99426 4.84813 4.08996 2.99412C5.89262 1.39997 7.9952 0.430074 10.3783 0.115125C13.4289 -0.288111 16.254 0.364955 18.7836 2.12128C21.5725 4.05731 23.3087 6.71841 23.8297 10.0777C24.4583 14.1275 23.2818 17.6458 20.3903 20.5536C18.6108 22.3431 16.4387 23.4164 13.9504 23.8409C13.5522 23.9085 13.149 23.9479 12.7482 23.9999H11.2486C10.9562 23.9636 10.6626 23.9323 10.3708 23.8903C7.9833 23.5478 5.87321 22.5924 4.06929 20.9901C1.98612 19.1392 0.684999 16.8375 0.187216 14.0919C0.106444 13.6479 0.0613619 13.1983 0 12.7513C0 12.2516 0 11.7513 0 11.2517V11.251ZM12.0031 0.940379C5.91829 0.937874 0.948604 5.89316 0.937334 11.9724C0.926063 18.0798 5.89011 23.0588 11.9931 23.062C18.0867 23.0651 23.057 18.0985 23.0595 12.0056C23.0614 5.91006 18.098 0.942257 12.0031 0.939753V0.940379Z" fill="#D4D3D3"/>
<path id="Vector_2" d="M14.157 9.1642C14.2559 9.07216 14.3179 9.01768 14.3755 8.95945C15.6848 7.65144 16.9928 6.34218 18.3014 5.03355C18.3459 4.98909 18.3884 4.94401 18.4342 4.90143C18.6602 4.69292 18.9307 4.68103 19.1229 4.87075C19.3158 5.0611 19.3145 5.3391 19.0997 5.55888C18.6245 6.04414 18.1411 6.52188 17.6609 7.00213C16.7887 7.87435 15.9158 8.74656 15.0436 9.61941C14.9847 9.67826 14.9296 9.73962 14.8338 9.84106C14.9666 9.84106 15.048 9.84106 15.13 9.84106C16.036 9.84106 16.9414 9.83793 17.8475 9.84294C18.2288 9.84482 18.4598 10.1635 18.3221 10.4854C18.2401 10.677 18.086 10.7759 17.8806 10.7765C16.4906 10.779 15.1006 10.7809 13.7105 10.7759C13.415 10.7746 13.2228 10.5849 13.2215 10.2894C13.2165 8.89934 13.2165 7.50931 13.2215 6.11928C13.2228 5.83939 13.4375 5.63402 13.6918 5.63589C13.9585 5.63777 14.1532 5.84628 14.1545 6.14808C14.1576 7.06162 14.1557 7.97516 14.1557 8.8887C14.1557 8.96321 14.1557 9.03772 14.1557 9.16295L14.157 9.1642Z" fill="#D4D3D3"/>
<path id="Vector_3" d="M9.1561 9.76262C9.08597 9.71253 9.00708 9.67058 8.94697 9.61047C7.63145 8.29808 6.31718 6.98381 5.00353 5.66891C4.93215 5.59753 4.85764 5.5249 4.80317 5.44099C4.68295 5.2544 4.71989 5.01584 4.88018 4.86432C5.03484 4.71843 5.2615 4.68962 5.44121 4.80734C5.52511 4.86244 5.59711 4.93632 5.66912 5.0077C6.98402 6.32135 8.29829 7.63499 9.61068 8.95052C9.67079 9.01063 9.71212 9.08889 9.76221 9.15902C9.78412 9.14587 9.80666 9.13335 9.82858 9.1202C9.83233 9.04757 9.83922 8.97494 9.83922 8.9023C9.83985 8.00442 9.83922 7.10653 9.83985 6.20802C9.83985 5.85425 10.0277 5.63009 10.3138 5.63635C10.5925 5.64199 10.7753 5.86176 10.7759 6.2005C10.7772 7.53606 10.7772 8.871 10.7759 10.2066C10.7759 10.6035 10.6006 10.7776 10.2036 10.7782C8.86808 10.7795 7.53314 10.7795 6.19758 10.7782C5.85822 10.7782 5.63907 10.5954 5.63343 10.3168C5.6278 10.03 5.8507 9.84214 6.2051 9.84214C7.09547 9.84089 7.98522 9.84214 8.87559 9.84214C8.95135 9.84214 9.02774 9.84214 9.10351 9.84214C9.12104 9.81584 9.13794 9.78955 9.15548 9.76325L9.1561 9.76262Z" fill="#D4D3D3"/>
<path id="Vector_4" d="M9.83979 14.839C9.74024 14.9323 9.67888 14.9868 9.62064 15.045C8.30074 16.3643 6.98083 17.6835 5.66155 19.0035C5.62273 19.0423 5.58516 19.0823 5.54446 19.118C5.32469 19.3115 5.0592 19.3159 4.87261 19.1299C4.6854 18.9433 4.6879 18.6766 4.88075 18.4587C4.92709 18.4061 4.97906 18.3579 5.02852 18.3084C6.33716 16.9998 7.6458 15.6912 8.9538 14.3825C9.01204 14.3243 9.06776 14.2623 9.16294 14.1609C9.02957 14.1609 8.94754 14.1609 8.86552 14.1609C7.95949 14.1609 7.05409 14.164 6.14806 14.159C5.76612 14.1571 5.5357 13.8378 5.67408 13.5159C5.7561 13.325 5.91013 13.2254 6.11551 13.2254C7.50554 13.2229 8.89557 13.2217 10.285 13.226C10.5799 13.2273 10.7727 13.417 10.774 13.7126C10.779 15.1026 10.779 16.4926 10.774 17.882C10.7727 18.1644 10.5599 18.3673 10.3038 18.3654C10.0395 18.3635 9.8423 18.1519 9.84105 17.8526C9.83792 16.9391 9.83979 16.0255 9.83979 15.112C9.83979 15.0375 9.83979 14.963 9.83979 14.8377V14.839Z" fill="#D4D3D3"/>
<path id="Vector_5" d="M14.8233 14.2525C14.9022 14.3013 14.9942 14.337 15.0581 14.4002C16.3749 15.712 17.6879 17.0269 19.0022 18.3412C19.046 18.3856 19.0923 18.4282 19.1324 18.4758C19.3102 18.688 19.3065 18.9504 19.1255 19.1301C18.9439 19.3104 18.6816 19.3129 18.4712 19.1332C18.4117 19.0825 18.3585 19.0249 18.3034 18.9698C16.9948 17.6612 15.6861 16.3525 14.3775 15.0445C14.3192 14.9863 14.2573 14.9312 14.1577 14.8373C14.1577 14.9625 14.1577 15.037 14.1577 15.1109C14.1577 16.0088 14.1583 16.9067 14.1577 17.8052C14.1577 18.1458 13.9761 18.3631 13.6956 18.3662C13.4176 18.3693 13.2216 18.1464 13.2216 17.8139C13.2197 16.4709 13.2197 15.1278 13.2216 13.7847C13.2216 13.4003 13.3976 13.225 13.7814 13.2243C15.1245 13.2225 16.4675 13.2231 17.8106 13.2243C18.1456 13.2243 18.366 13.4172 18.3641 13.6964C18.3616 13.9757 18.1437 14.1598 17.8044 14.1604C16.8363 14.1623 15.8683 14.1604 14.9003 14.1604C14.8753 14.1911 14.8496 14.2211 14.8245 14.2518L14.8233 14.2525Z" fill="#D4D3D3"/>
</g>
<defs>
<clipPath id="clip0_38_58">
<rect width="23.9944" height="24" fill="white"/>
</clipPath>
</defs>
</svg>
