<svg width="18" height="24" viewBox="0 0 18 24" fill="none" xmlns="http://www.w3.org/2000/svg">
<g id="Capa_1" clip-path="url(#clip0_146_2282)">
<path id="Vector" d="M7.60346 15.9973C5.38792 15.9973 3.17237 15.9973 0.956825 15.9973C0.296917 15.9973 8.90518e-06 15.6979 8.90518e-06 15.0345C8.90518e-06 13.5264 -0.000491783 12.0188 8.90518e-06 10.5108C8.90518e-06 9.91646 0.315943 9.59852 0.906756 9.59852C5.37089 9.59802 9.83503 9.59802 14.2997 9.59852C14.8745 9.59852 15.1934 9.91996 15.1939 10.4983C15.1949 12.0309 15.1949 13.564 15.1939 15.0966C15.1939 15.6769 14.8765 15.9963 14.2997 15.9968C12.0676 15.9978 9.83553 15.9968 7.60346 15.9968V15.9973ZM8.85168 12.0935C8.83666 11.6719 8.64239 11.3459 8.26788 11.2588C7.94543 11.1837 7.59345 11.1652 7.2645 11.2062C6.81388 11.2628 6.54751 11.5812 6.51397 11.9823C6.48242 12.3568 6.71374 12.6923 7.13582 12.8465C7.40018 12.9431 7.67556 13.0097 7.94644 13.0893C8.1362 13.1449 8.32846 13.2075 8.31444 13.4553C8.30042 13.7062 8.11817 13.8073 7.90037 13.8514C7.45726 13.9415 7.23245 13.8003 6.98812 13.2816C6.89349 13.2871 6.79435 13.2896 6.69622 13.2991C6.60109 13.3081 6.50646 13.3246 6.41283 13.3377C6.4679 13.8609 6.73777 14.2174 7.17588 14.3375C7.55189 14.4407 7.93292 14.4392 8.30643 14.3165C8.70097 14.1868 8.9398 13.8669 8.95282 13.4613C8.96684 13.0317 8.77658 12.7273 8.37402 12.5656C8.19778 12.4945 8.00952 12.4529 7.82827 12.3939C7.63951 12.3328 7.44324 12.2842 7.266 12.1986C7.09827 12.1175 7.08325 11.9232 7.20992 11.8061C7.47529 11.5607 8.03255 11.6704 8.20329 11.9883C8.23784 12.0529 8.34148 12.109 8.41808 12.1165C8.55577 12.13 8.69747 12.1035 8.85168 12.0924V12.0935ZM5.38441 13.199C5.35788 13.2771 5.34486 13.3246 5.32583 13.3702C5.17963 13.7272 4.95082 13.8789 4.59883 13.8549C4.2809 13.8328 4.00952 13.6095 3.96246 13.253C3.9214 12.9446 3.91539 12.6212 3.95995 12.3133C4.02104 11.8862 4.37002 11.6533 4.78859 11.6994C5.09802 11.7335 5.26074 11.9457 5.37891 12.2161C5.58068 12.1655 5.76994 12.1185 5.9567 12.0714C5.90012 11.7685 5.76293 11.5532 5.53662 11.393C4.70147 10.8017 3.51334 11.2718 3.30706 12.2842C3.26099 12.51 3.24247 12.7489 3.25849 12.9782C3.35662 14.3631 4.61135 14.6374 5.35738 14.2514C5.70185 14.0732 5.88861 13.7743 5.99025 13.3917C5.77845 13.3241 5.5912 13.2641 5.38441 13.1985V13.199ZM12.1202 11.2117H11.4513C11.1989 11.9693 10.9481 12.7213 10.6792 13.5284C10.4208 12.7744 10.1805 12.0839 9.95019 11.39C9.90413 11.2513 9.84404 11.1842 9.68933 11.1987C9.53562 11.2132 9.37941 11.2017 9.20316 11.2017C9.23821 11.3089 9.26124 11.3875 9.28878 11.4646C9.57818 12.2792 9.86758 13.0938 10.158 13.9079C10.3202 14.3626 10.3207 14.3566 10.8129 14.3551C10.9521 14.3551 11.0167 14.3135 11.0627 14.1788C11.2425 13.6516 11.4367 13.1299 11.6245 12.6057C11.7862 12.153 11.9464 11.7004 12.1197 11.2117H12.1202Z" fill="#DA291C"/>
<path id="Vector_2" d="M16.7936 18.3968V18.0653C16.7936 12.6414 16.7936 7.21792 16.7936 1.79397C16.7936 1.08299 16.5082 0.799599 15.7932 0.799599C11.3867 0.799599 6.98061 0.799599 2.57405 0.799599C1.89361 0.799599 1.59971 1.092 1.59971 1.76943C1.59971 4.002 1.59971 6.23507 1.59971 8.46764C1.59971 8.56678 1.59971 8.66541 1.59971 8.78107H0.80011V8.5102C0.80011 6.2526 0.80011 3.99449 0.80011 1.73689C0.80011 0.656402 1.46002 0 2.54751 0C6.97911 0 11.4102 0 15.8418 0C16.9418 0 17.5932 0.653899 17.5932 1.75892C17.5932 7.22443 17.5912 12.6899 17.5972 18.155C17.5977 18.7062 17.413 19.1523 17.0234 19.5384C15.7216 20.8286 14.4258 22.1244 13.1361 23.4267C12.7495 23.8172 12.3024 24.0005 11.7522 23.999C8.68695 23.9915 5.62174 23.9955 2.55602 23.995C1.45751 23.995 0.80011 23.3381 0.80011 22.2401C0.80011 20.5237 0.80011 18.8074 0.80011 17.0915V16.8096H1.59971V17.069C1.59971 18.8019 1.59971 20.5347 1.59971 22.2676C1.59971 22.879 1.91114 23.1944 2.51697 23.1944C5.5907 23.1949 8.66442 23.1944 11.7381 23.1944H11.9955V22.915C11.9955 21.8405 11.9945 20.7656 11.9955 19.6911C11.9965 18.8935 12.4927 18.3968 13.2893 18.3958C14.3552 18.3943 15.4217 18.3958 16.4877 18.3958H16.7936V18.3968Z" fill="#DA291C"/>
</g>
<defs>
<clipPath id="clip0_146_2282">
<rect width="17.5972" height="24" fill="white" transform="translate(-0.000488281)"/>
</clipPath>
</defs>
</svg>
