<svg width="19" height="18" viewBox="0 0 19 18" fill="none" xmlns="http://www.w3.org/2000/svg">
<g id="Capa_1" clip-path="url(#clip0_155_926)">
<path id="Vector" d="M7.06831 7.90297C7.06831 7.7982 7.06831 7.70994 7.06831 7.62167C7.06831 5.62456 7.06664 3.62745 7.06914 1.62992C7.06997 0.801297 7.54601 0.187975 8.30908 0.0300038C8.44284 0.00236929 8.58365 0.00154437 8.72115 0.00154437C11.0087 -0.000105451 13.2959 -0.000517908 15.5834 0.000719461C16.6003 0.00113192 17.2379 0.634665 17.2383 1.64848C17.2396 6.54887 17.2387 11.4493 17.2387 16.3497C17.2387 16.4524 17.2387 16.5551 17.2387 16.6883C17.5935 16.6883 17.9574 16.6846 18.3208 16.6891C18.7084 16.6941 18.9905 16.9609 18.9992 17.3214C19.0083 17.6819 18.7491 17.9685 18.3861 17.997C18.3312 18.0015 18.2756 17.9991 18.2203 17.9991C12.4086 17.9991 6.59642 17.9991 0.784681 17.9991C0.75685 17.9991 0.729434 17.9991 0.701603 17.9991C0.288704 17.9933 0.00166877 17.7273 7.20727e-06 17.3478C-0.00165436 16.9671 0.284135 16.6928 0.693711 16.6883C1.03225 16.6846 1.3708 16.6862 1.70934 16.6846C1.72222 16.6846 1.73551 16.6776 1.76085 16.6701C1.76085 16.5744 1.76085 16.475 1.76085 16.3752C1.76085 14.0898 1.75877 11.8044 1.7621 9.51897C1.76334 8.70478 2.24229 8.09558 2.99913 7.93761C3.13289 7.90957 3.27371 7.90833 3.4112 7.90833C4.59299 7.9075 5.77478 7.90957 6.95615 7.9108C6.98274 7.9108 7.00974 7.90709 7.06872 7.90297H7.06831ZM8.38593 9.00051C8.39008 9.00051 8.39465 9.00051 8.3988 9.00051C8.3988 10.7778 8.3988 12.5551 8.3988 14.3323C8.3988 14.998 8.39839 15.6637 8.3988 16.3294C8.3988 16.6516 8.43536 16.6875 8.75355 16.6875C11.0133 16.6875 13.2726 16.6875 15.5323 16.6875C15.8759 16.6875 15.9211 16.6413 15.9215 16.2923C15.9215 11.4266 15.9215 6.56125 15.9215 1.6955C15.9215 1.35275 15.8767 1.30903 15.5244 1.30903C13.2788 1.30903 11.0328 1.30903 8.7872 1.30903C8.42581 1.30903 8.38634 1.34863 8.38634 1.71241C8.38634 4.14178 8.38634 6.57115 8.38634 9.00051H8.38593ZM7.05917 12.9415C7.05917 11.8032 7.05917 10.6644 7.05917 9.52598C7.05917 9.26036 7.01597 9.21664 6.74389 9.21623C5.63188 9.21499 4.51988 9.21499 3.40829 9.21623C3.14327 9.21623 3.0793 9.28016 3.07889 9.54537C3.07806 11.8155 3.07806 14.0857 3.07889 16.3563C3.07889 16.6198 3.1466 16.6875 3.40663 16.6875C4.51863 16.6883 5.63064 16.6883 6.74222 16.6875C7.00766 16.6875 7.05917 16.6371 7.05917 16.3781C7.05958 15.2327 7.05917 14.0873 7.05917 12.9419V12.9415Z" fill="#DA291C"/>
<path id="Vector_2" d="M12.1432 5.69708C11.8536 5.69708 11.5641 5.70162 11.2746 5.69584C10.8958 5.68801 10.6257 5.42816 10.6158 5.07221C10.6058 4.70801 10.8467 4.41434 11.2239 4.40238C11.8503 4.383 12.4784 4.38423 13.1048 4.40568C13.4645 4.41806 13.7021 4.71667 13.6917 5.07304C13.6818 5.42115 13.4168 5.67976 13.0529 5.69626C13.0392 5.69708 13.0255 5.69708 13.0113 5.69708C12.7218 5.69708 12.4323 5.69708 12.1428 5.69708H12.1432Z" fill="#DA291C"/>
<path id="Vector_3" d="M12.1543 9.65062C11.8648 9.65062 11.5752 9.65433 11.2857 9.64938C10.9023 9.64278 10.6302 9.39077 10.6157 9.03688C10.6003 8.66361 10.8454 8.36581 11.2325 8.35427C11.8523 8.33529 12.4733 8.33653 13.0931 8.35715C13.4644 8.36953 13.7054 8.66979 13.6912 9.03523C13.6775 9.38169 13.4104 9.63535 13.0436 9.64979C13.0299 9.6502 13.0162 9.6502 13.0021 9.6502C12.7196 9.6502 12.4367 9.6502 12.1543 9.6502V9.65062Z" fill="#DA291C"/>
<path id="Vector_4" d="M12.1355 13.6045C11.8531 13.6045 11.5702 13.6082 11.2877 13.6037C10.8952 13.5971 10.6227 13.3381 10.6156 12.9726C10.6086 12.6031 10.8611 12.3156 11.2516 12.3053C11.8576 12.2892 12.4649 12.29 13.071 12.309C13.4586 12.321 13.7053 12.6138 13.6916 12.9879C13.6783 13.3426 13.4071 13.5967 13.0249 13.6037C12.7287 13.6091 12.4321 13.6049 12.1355 13.6049V13.6045Z" fill="#DA291C"/>
<path id="Vector_5" d="M5.06108 13.6041C4.77156 13.6041 4.48161 13.609 4.1925 13.6028C3.82114 13.5946 3.54449 13.3269 3.53286 12.9747C3.52123 12.6319 3.77171 12.3238 4.13102 12.3118C4.76449 12.2912 5.39921 12.292 6.03268 12.3135C6.3866 12.3255 6.6404 12.6459 6.62005 12.9846C6.59928 13.3331 6.33177 13.5884 5.97121 13.6032C5.9575 13.6037 5.94379 13.6037 5.92967 13.6037C5.64014 13.6037 5.35061 13.6037 5.06108 13.6037V13.6041Z" fill="#DA291C"/>
</g>
<defs>
<clipPath id="clip0_155_926">
<rect width="19" height="18" fill="white"/>
</clipPath>
</defs>
</svg>
