<svg width="20" height="24" viewBox="0 0 20 24" fill="none" xmlns="http://www.w3.org/2000/svg">
<g id="Capa_1" clip-path="url(#clip0_416_27)">
<path id="Vector" d="M12.5173 0C12.8595 0.140359 13.2346 0.230959 13.5364 0.431874C14.1969 0.871259 14.4636 1.54113 14.4692 2.32179C14.4706 2.50816 14.4692 2.69452 14.4692 2.91797C14.5682 2.91797 14.6504 2.91797 14.7325 2.91797C15.5602 2.91797 16.3882 2.9114 17.2158 2.91985C18.2058 2.9297 18.9386 3.35547 19.3329 4.28823C19.7775 5.33881 19.2287 6.63584 18.1608 7.0372C17.9486 7.117 17.8937 7.22216 17.8937 7.43903C17.9003 11.9052 17.8984 16.3708 17.8993 20.837C17.8993 21.5317 17.7585 22.1866 17.3543 22.7645C16.7966 23.5616 16.0263 23.9761 15.0536 23.9901C14.234 24.0019 13.4139 23.993 12.5938 23.993C9.92325 23.993 7.2522 23.9728 4.58163 24.0005C2.92173 24.0178 1.6369 22.7682 1.60357 21.0759C1.57635 19.6789 1.59606 18.281 1.59606 16.8835C1.59606 13.7134 1.59418 10.5438 1.60029 7.37378C1.60029 7.19634 1.54959 7.1217 1.38106 7.06067C0.474127 6.72926 -0.108903 5.75848 0.0169036 4.81446C0.15163 3.80472 0.943086 3.01326 1.94015 2.9513C2.66354 2.9067 3.39116 2.92548 4.11689 2.91797C4.40559 2.91515 4.69429 2.9175 5.0027 2.9175C5.0196 2.59265 5.02289 2.27532 5.05528 1.96127C5.15668 0.975472 5.89462 0.203263 6.87807 0.0366154C6.91516 0.0305128 6.95036 0.0126746 6.98651 0C8.82995 0 10.6734 0 12.5168 0L12.5173 0ZM2.72175 7.20526V7.45218C2.72175 11.9188 2.72175 16.3859 2.72363 20.8525C2.72363 21.0234 2.73536 21.1966 2.76306 21.3656C2.9053 22.2401 3.5855 22.8626 4.44784 22.8645C7.97841 22.8724 11.5085 22.8701 15.0391 22.8654C15.6146 22.8645 16.0751 22.6166 16.4122 22.1429C16.6919 21.7496 16.7741 21.3031 16.7741 20.8356C16.775 16.3765 16.775 11.9174 16.7741 7.45828C16.7741 7.37613 16.767 7.29351 16.7628 7.20526H2.72175ZM9.73971 6.06783C12.1915 6.06783 14.6434 6.06783 17.0952 6.06736C17.22 6.06736 17.3454 6.06455 17.4693 6.05093C17.9495 5.99836 18.304 5.62375 18.3448 5.1332C18.3842 4.65673 18.0777 4.20514 17.6191 4.09013C17.4698 4.05258 17.3097 4.04413 17.1548 4.04413C12.2202 4.04178 7.28553 4.04225 2.35043 4.04319C2.22603 4.04319 2.10023 4.04976 1.97771 4.06901C1.5064 4.14318 1.15761 4.54501 1.1379 5.02711C1.11912 5.48292 1.44725 5.92794 1.89603 6.03028C2.04624 6.06455 2.20585 6.06595 2.3617 6.06595C4.82103 6.06783 7.28084 6.06736 9.74018 6.06736L9.73971 6.06783ZM6.1359 2.89872H13.3257C13.3257 2.60908 13.3487 2.33541 13.321 2.06689C13.267 1.54254 12.8445 1.13602 12.3159 1.13226C10.6053 1.11959 8.8952 1.12053 7.18461 1.13132C6.68185 1.13461 6.26594 1.49419 6.18285 1.98944C6.13356 2.28471 6.14952 2.59078 6.1359 2.89919V2.89872Z" fill="#DA291C"/>
<path id="Vector_2" d="M6.9903 14.5481C6.9903 16.2728 6.99312 17.998 6.98561 19.7227C6.98514 19.8794 6.94805 20.0517 6.87529 20.1883C6.77155 20.3822 6.57204 20.4536 6.35376 20.4202C6.12796 20.3855 5.96601 20.2587 5.90639 20.0306C5.88104 19.9339 5.86837 19.8311 5.86837 19.7306C5.86649 16.2888 5.86649 12.8469 5.86696 9.40509C5.86696 8.99199 6.03361 8.75399 6.34531 8.71221C6.66029 8.66949 6.91942 8.8521 6.97528 9.16427C6.99171 9.25534 6.98983 9.35064 6.98983 9.44405C6.99077 11.1453 6.9903 12.8469 6.9903 14.5481Z" fill="#DA291C"/>
<path id="Vector_3" d="M9.18619 14.5536C9.18619 12.8289 9.18713 11.1042 9.18526 9.37908C9.18526 9.12136 9.24393 8.89932 9.48757 8.76554C9.78002 8.60499 10.1743 8.75802 10.2663 9.07771C10.3001 9.19506 10.3091 9.32369 10.3091 9.44715C10.3114 12.8575 10.3109 16.2684 10.3091 19.6788C10.3091 19.7868 10.3011 19.8976 10.2767 20.0027C10.2171 20.2614 9.98892 20.4355 9.73543 20.4304C9.48851 20.4252 9.26975 20.2548 9.21248 20.006C9.18854 19.9013 9.18666 19.7896 9.18619 19.6812C9.18479 17.972 9.18526 16.2628 9.18526 14.5536H9.18619Z" fill="#DA291C"/>
<path id="Vector_4" d="M12.5032 14.5752C12.5032 12.8661 12.5032 11.1569 12.5032 9.44768C12.5032 8.96229 12.6909 8.70786 13.0515 8.70129C13.42 8.69472 13.6279 8.96276 13.6279 9.44909C13.6279 12.8595 13.6279 16.2699 13.6279 19.6803C13.6279 20.1666 13.4162 20.4394 13.0501 20.4295C12.69 20.4201 12.5036 20.1652 12.5032 19.6789C12.5032 17.9777 12.5032 16.276 12.5032 14.5748V14.5752Z" fill="#DA291C"/>
</g>
<defs>
<clipPath id="clip0_416_27">
<rect width="19.4883" height="24" fill="white"/>
</clipPath>
</defs>
</svg>
