<svg width="24" height="24" viewBox="0 0 24 24" fill="none" xmlns="http://www.w3.org/2000/svg">
<g id="Capa_1" clip-path="url(#clip0_146_2297)">
<path id="Vector" d="M12.0171 0.00366552C14.232 0.00366552 16.447 -0.00472438 18.6619 0.00576299C21.2817 0.0183478 23.3952 1.75715 23.9028 4.31398C23.9699 4.65307 23.993 5.00684 23.993 5.35362C23.9986 9.78349 24.0035 14.2141 23.9944 18.6439C23.9888 21.2728 22.264 23.3807 19.7051 23.8988C19.3408 23.9729 18.9604 23.9946 18.5878 23.9953C14.1929 24.0016 9.79728 24.003 5.40238 23.9981C2.73998 23.9953 0.620834 22.2788 0.0985629 19.701C0.0300454 19.362 0.00627404 19.0089 0.00557488 18.6621C-1.83848e-05 14.2224 -0.00421333 9.78419 0.00487572 5.34523C0.010469 2.72619 1.75137 0.608437 4.3068 0.0994502C4.67945 0.0253394 5.06888 0.00855963 5.45062 0.00716131C7.63968 -0.00122859 9.82805 0.00296636 12.0171 0.00296636V0.00366552ZM22.3227 12.0152C22.3227 9.83453 22.3241 7.65455 22.3213 5.47388C22.3213 5.23896 22.3227 4.99985 22.2842 4.76983C21.9717 2.90727 20.514 1.68095 18.6074 1.67955C14.2027 1.67605 9.79868 1.67815 5.39399 1.67955C5.17655 1.67955 4.95561 1.68374 4.74237 1.7208C2.90079 2.04381 1.68006 3.49107 1.67796 5.36691C1.67307 9.78908 1.67586 14.2106 1.67796 18.6327C1.67796 18.8411 1.68286 19.0536 1.71921 19.2578C2.04362 21.1071 3.49507 22.3215 5.39189 22.3229C9.79659 22.3264 14.2006 22.3243 18.6053 22.3229C18.8143 22.3229 19.0262 22.3208 19.231 22.2865C21.0824 21.974 22.3157 20.5205 22.3206 18.6348C22.3269 16.4283 22.322 14.2217 22.322 12.0152H22.3227Z" fill="#DA291C"/>
<path id="Vector_2" d="M11.1627 11.974C11.1627 10.5009 11.1606 9.02776 11.1641 7.55534C11.1648 7.1701 11.3774 6.87366 11.7179 6.74991C12.0493 6.63035 12.4282 6.71635 12.6317 7.0079C12.74 7.16311 12.8281 7.37146 12.8288 7.55604C12.8407 10.5198 12.8393 13.4828 12.8358 16.4465C12.8358 16.9394 12.4716 17.2981 12.0003 17.2981C11.5298 17.2981 11.1669 16.9373 11.1648 16.4458C11.1599 14.9552 11.1634 13.4646 11.1634 11.9747L11.1627 11.974Z" fill="#DA291C"/>
<path id="Vector_3" d="M17.2978 13.1212C17.2978 14.237 17.3013 15.3529 17.2957 16.4688C17.2937 16.8484 17.065 17.149 16.7245 17.2609C16.3875 17.3714 15.9911 17.2609 15.7995 16.9561C15.7024 16.8023 15.6325 16.6009 15.6318 16.4212C15.6206 14.2154 15.6206 12.0095 15.6269 9.80369C15.6283 9.2947 16.0079 8.92065 16.4756 8.92834C16.9497 8.93603 17.295 9.30588 17.2971 9.82536C17.3013 10.9237 17.2985 12.0221 17.2985 13.1212H17.2978Z" fill="#DA291C"/>
<path id="Vector_4" d="M6.70144 14.2222C6.70144 13.5084 6.69865 12.7945 6.70214 12.0807C6.70494 11.5382 7.03984 11.169 7.52505 11.1641C8.00887 11.1592 8.37173 11.5319 8.37383 12.0625C8.37942 13.5168 8.37872 14.9703 8.37383 16.4246C8.37243 16.8448 8.12563 17.1706 7.76416 17.272C7.41249 17.3705 7.01397 17.2328 6.83638 16.9098C6.75248 16.7581 6.71123 16.5651 6.70774 16.3903C6.69375 15.6681 6.70214 14.9452 6.70214 14.2222H6.70144Z" fill="#DA291C"/>
</g>
<defs>
<clipPath id="clip0_146_2297">
<rect width="24" height="24" fill="white"/>
</clipPath>
</defs>
</svg>
