<svg width="24" height="24" viewBox="0 0 24 24" fill="none" xmlns="http://www.w3.org/2000/svg">
<g id="Capa_1" clip-path="url(#clip0_38_51)">
<path id="Vector" d="M12.017 0.00366552C14.232 0.00366552 16.4469 -0.00472438 18.6618 0.00576299C21.2816 0.0183478 23.3951 1.75715 23.9027 4.31398C23.9699 4.65307 23.9929 5.00684 23.9929 5.35362C23.9985 9.78349 24.0034 14.2141 23.9943 18.6439C23.9887 21.2728 22.2639 23.3807 19.705 23.8988C19.3407 23.9729 18.9604 23.9946 18.5877 23.9953C14.1928 24.0016 9.79722 24.003 5.40231 23.9981C2.73992 23.9953 0.620773 22.2788 0.0985019 19.701C0.0299844 19.362 0.006213 19.0089 0.00551384 18.6621C-7.942e-05 14.2224 -0.00427437 9.78419 0.00481469 5.34523C0.010408 2.72619 1.75131 0.608437 4.30673 0.0994502C4.67939 0.0253394 5.06882 0.00855963 5.45056 0.00716131C7.63962 -0.00122859 9.82799 0.00296636 12.017 0.00296636V0.00366552ZM22.3226 12.0152C22.3226 9.83453 22.324 7.65455 22.3212 5.47388C22.3212 5.23896 22.3226 4.99985 22.2842 4.76983C21.9717 2.90727 20.5139 1.68095 18.6073 1.67955C14.2026 1.67605 9.79862 1.67815 5.39393 1.67955C5.17649 1.67955 4.95555 1.68374 4.74231 1.7208C2.90073 2.04381 1.68 3.49107 1.6779 5.36691C1.67301 9.78908 1.6758 14.2106 1.6779 18.6327C1.6779 18.8411 1.68279 19.0536 1.71915 19.2578C2.04356 21.1071 3.49501 22.3215 5.39183 22.3229C9.79652 22.3264 14.2005 22.3243 18.6052 22.3229C18.8143 22.3229 19.0261 22.3208 19.231 22.2865C21.0823 21.974 22.3156 20.5205 22.3205 18.6348C22.3268 16.4283 22.3219 14.2217 22.3219 12.0152H22.3226Z" fill="#D4D3D3"/>
<path id="Vector_2" d="M11.1627 11.974C11.1627 10.5009 11.1606 9.02776 11.1641 7.55534C11.1648 7.1701 11.3774 6.87366 11.7179 6.74991C12.0493 6.63035 12.4282 6.71635 12.6317 7.0079C12.74 7.16311 12.8281 7.37146 12.8288 7.55604C12.8407 10.5198 12.8393 13.4828 12.8358 16.4465C12.8358 16.9394 12.4716 17.2981 12.0003 17.2981C11.5298 17.2981 11.1669 16.9373 11.1648 16.4458C11.1599 14.9552 11.1634 13.4646 11.1634 11.9747L11.1627 11.974Z" fill="#D4D3D3"/>
<path id="Vector_3" d="M17.2978 13.1212C17.2978 14.237 17.3013 15.3529 17.2957 16.4688C17.2936 16.8484 17.065 17.149 16.7245 17.2609C16.3875 17.3714 15.9911 17.2609 15.7995 16.9561C15.7023 16.8023 15.6324 16.6009 15.6317 16.4212C15.6205 14.2154 15.6205 12.0095 15.6268 9.80369C15.6282 9.2947 16.0078 8.92065 16.4756 8.92834C16.9496 8.93603 17.295 9.30588 17.2971 9.82536C17.3013 10.9237 17.2985 12.0221 17.2985 13.1212H17.2978Z" fill="#D4D3D3"/>
<path id="Vector_4" d="M6.7015 14.2222C6.7015 13.5084 6.69871 12.7945 6.7022 12.0807C6.705 11.5382 7.0399 11.169 7.52511 11.1641C8.00893 11.1592 8.37179 11.5319 8.37389 12.0625C8.37948 13.5168 8.37878 14.9703 8.37389 16.4246C8.37249 16.8448 8.12569 17.1706 7.76422 17.272C7.41255 17.3705 7.01403 17.2328 6.83644 16.9098C6.75254 16.7581 6.71129 16.5651 6.7078 16.3903C6.69381 15.6681 6.7022 14.9452 6.7022 14.2222H6.7015Z" fill="#D4D3D3"/>
</g>
<defs>
<clipPath id="clip0_38_51">
<rect width="24" height="24" fill="white"/>
</clipPath>
</defs>
</svg>
