<svg width="24" height="24" viewBox="0 0 24 24" fill="none" xmlns="http://www.w3.org/2000/svg">
<g id="Capa_1" clip-path="url(#clip0_100_346)">
<path id="Vector" d="M24.007 12.1883C23.5354 12.7143 23.1015 13.2816 22.5849 13.7594C20.521 15.668 18.1358 17.0219 15.415 17.7533C12.7662 18.4652 10.1406 18.3337 7.55632 17.4351C4.82174 16.4846 2.45287 14.9636 0.488507 12.827C0.398962 12.7293 0.313174 12.6279 0.228012 12.5258C-0.0756907 12.1633 -0.0763169 11.8376 0.228012 11.4751C0.878623 10.7005 1.61189 10.0104 2.40778 9.38735C4.33144 7.88136 6.45861 6.78052 8.83625 6.1894C11.6416 5.49182 14.383 5.73666 17.06 6.78741C19.6393 7.79996 21.8804 9.3072 23.7133 11.3987C23.8241 11.5252 23.9099 11.6742 24.007 11.8132V12.1883ZM16.7958 12.0117C16.802 9.36794 14.6755 7.22386 12.0336 7.21071C9.37665 7.19756 7.22694 9.32348 7.21379 11.9773C7.20064 14.6298 9.33532 16.782 11.9872 16.7908C14.641 16.7996 16.7895 14.6643 16.7958 12.0123V12.0117ZM16.9993 15.73C19.0544 14.8214 20.8034 13.5734 22.335 12.0117C21.2931 10.7506 18.0438 8.49879 17.0312 8.32157C18.6192 10.7731 18.6173 13.2259 16.9993 15.7294V15.73ZM7.01091 15.73C5.39033 13.2271 5.38719 10.77 7.00903 8.27211C4.9545 9.17946 3.20492 10.4268 1.66324 12.0017C3.2093 13.5853 4.95888 14.8252 7.01091 15.73Z" fill="#DA291C"/>
<path id="Vector_2" d="M12.1917 0.000137909C12.5855 0.182359 12.7389 0.486688 12.7145 0.920012C12.6889 1.37901 12.7108 1.84051 12.7083 2.30076C12.7051 2.75037 12.4102 3.05845 11.9925 3.05344C11.588 3.04843 11.3031 2.74097 11.3006 2.30014C11.2981 1.83989 11.3213 1.37838 11.2937 0.919386C11.268 0.484183 11.4252 0.182986 11.8172 -0.000488281H12.1923L12.1917 0.000137909Z" fill="#DA291C"/>
<path id="Vector_3" d="M5.77832 22.2428C5.82528 22.1131 5.85659 21.9748 5.92297 21.8558C6.21039 21.3379 6.50533 20.8238 6.80277 20.3116C7.03007 19.9202 7.44399 19.7956 7.79904 20.0048C8.14407 20.2076 8.24363 20.6222 8.0301 21.0035C7.7289 21.5408 7.42645 22.0774 7.11398 22.6085C6.9399 22.9046 6.62368 23.0217 6.30933 22.9309C5.99937 22.842 5.80399 22.5797 5.77832 22.2434V22.2428Z" fill="#DA291C"/>
<path id="Vector_4" d="M18.2055 22.2092C18.2005 22.573 18.0132 22.8316 17.7302 22.9243C17.4271 23.0232 17.0946 22.9299 16.928 22.6519C16.583 22.077 16.2486 21.4953 15.9336 20.9042C15.7577 20.5748 15.9048 20.1747 16.2242 19.9962C16.5329 19.8234 16.95 19.8985 17.1384 20.2079C17.491 20.7865 17.8172 21.382 18.1466 21.975C18.1936 22.0595 18.1967 22.1685 18.2061 22.2098L18.2055 22.2092Z" fill="#DA291C"/>
<path id="Vector_5" d="M7.44265 4.08833C7.1784 4.08833 6.97113 3.97499 6.83963 3.75019C6.51276 3.19163 6.18776 2.63181 5.87842 2.06386C5.6962 1.72947 5.83271 1.3118 6.1552 1.12958C6.48583 0.942975 6.89598 1.03565 7.09699 1.37129C7.4295 1.92609 7.75449 2.48653 8.05882 3.05699C8.31618 3.53853 7.97804 4.0852 7.44265 4.0877V4.08833Z" fill="#DA291C"/>
<path id="Vector_6" d="M16.5719 4.0883C16.0446 4.09018 15.6927 3.55854 15.9382 3.0864C16.2444 2.49903 16.5788 1.92607 16.9207 1.35874C17.121 1.02623 17.5418 0.9442 17.8675 1.13769C18.1756 1.32054 18.3089 1.73257 18.1323 2.05819C17.8205 2.63366 17.4918 3.20099 17.1586 3.76456C17.0321 3.97934 16.8261 4.08768 16.5713 4.0883H16.5719Z" fill="#DA291C"/>
<path id="Vector_7" d="M11.3003 22.457C11.3003 22.1921 11.2966 21.9266 11.301 21.6618C11.3085 21.2472 11.609 20.946 12.0073 20.9473C12.4056 20.9485 12.7042 21.2491 12.708 21.6668C12.713 22.2047 12.7136 22.7432 12.708 23.2811C12.7036 23.6937 12.3949 24.0012 12.0023 23.9999C11.6097 23.9987 11.3085 23.69 11.3016 23.2761C11.2972 23.0031 11.301 22.73 11.301 22.457H11.3003Z" fill="#DA291C"/>
<path id="Vector_8" d="M14.4004 11.9964C14.4016 13.3246 13.3352 14.3941 12.0089 14.396C10.682 14.3978 9.61063 13.3296 9.60938 12.0039C9.60812 10.6764 10.6745 9.60686 12.0014 9.60498C13.3296 9.6031 14.3997 10.6701 14.401 11.9964H14.4004ZM12.9902 11.9926C12.987 11.4497 12.5468 11.0139 12.0027 11.0152C11.4591 11.0158 11.0208 11.4535 11.0189 11.9964C11.0171 12.55 11.4635 12.992 12.0183 12.9864C12.5587 12.9808 12.9939 12.5362 12.9908 11.9926H12.9902Z" fill="#DA291C"/>
</g>
<defs>
<clipPath id="clip0_100_346">
<rect width="24.0069" height="24" fill="white"/>
</clipPath>
</defs>
</svg>
