<svg width="24" height="24" viewBox="0 0 24 24" fill="none" xmlns="http://www.w3.org/2000/svg">
<g id="Capa_1" clip-path="url(#clip0_158_3738)">
<path id="Vector" d="M24.007 12.1881C23.5354 12.7141 23.1015 13.2814 22.5849 13.7592C20.521 15.6678 18.1358 17.0216 15.415 17.753C12.7662 18.465 10.1406 18.3335 7.55632 17.4349C4.82174 16.4843 2.45287 14.9633 0.488507 12.8268C0.398962 12.7291 0.313174 12.6276 0.228012 12.5256C-0.0756907 12.163 -0.0763169 11.8374 0.228012 11.4748C0.878623 10.7002 1.61189 10.0102 2.40778 9.38711C4.33144 7.88112 6.45861 6.78027 8.83625 6.18915C11.6416 5.49157 14.383 5.73642 17.06 6.78716C19.6393 7.79971 21.8804 9.30695 23.7133 11.3984C23.8241 11.5249 23.9099 11.674 24.007 11.813V12.1881ZM16.7958 12.0115C16.802 9.36769 14.6755 7.22362 12.0336 7.21047C9.37665 7.19732 7.22694 9.32323 7.21379 11.977C7.20064 14.6296 9.33532 16.7818 11.9872 16.7906C14.641 16.7993 16.7895 14.664 16.7958 12.0121V12.0115ZM16.9993 15.7298C19.0544 14.8212 20.8034 13.5732 22.335 12.0115C21.2931 10.7503 18.0438 8.49854 17.0312 8.32133C18.6192 10.7729 18.6173 13.2257 16.9993 15.7292V15.7298ZM7.01091 15.7298C5.39033 13.2269 5.38719 10.7697 7.00903 8.27186C4.9545 9.17921 3.20492 10.4266 1.66324 12.0015C3.2093 13.5851 4.95888 14.8249 7.01091 15.7298Z" fill="white"/>
<path id="Vector_2" d="M12.1917 -0.000106231C12.5855 0.182115 12.7389 0.486444 12.7145 0.919768C12.6889 1.37877 12.7108 1.84027 12.7083 2.30052C12.7051 2.75012 12.4102 3.05821 11.9925 3.0532C11.588 3.04819 11.3031 2.74073 11.3006 2.29989C11.2981 1.83964 11.3213 1.37814 11.2937 0.919141C11.268 0.483939 11.4252 0.182741 11.8172 -0.000732422H12.1923L12.1917 -0.000106231Z" fill="white"/>
<path id="Vector_3" d="M5.77832 22.243C5.82528 22.1134 5.85659 21.975 5.92297 21.856C6.21039 21.3382 6.50533 20.8241 6.80277 20.3118C7.03007 19.9205 7.44399 19.7959 7.79904 20.005C8.14407 20.2079 8.24363 20.6224 8.0301 21.0038C7.7289 21.541 7.42645 22.0777 7.11398 22.6087C6.9399 22.9049 6.62368 23.022 6.30933 22.9312C5.99937 22.8423 5.80399 22.5799 5.77832 22.2436V22.243Z" fill="white"/>
<path id="Vector_4" d="M18.2055 22.2092C18.2005 22.573 18.0132 22.8316 17.7302 22.9243C17.4271 23.0232 17.0946 22.9299 16.928 22.6519C16.583 22.077 16.2486 21.4953 15.9336 20.9042C15.7577 20.5748 15.9048 20.1747 16.2242 19.9962C16.5329 19.8234 16.95 19.8985 17.1384 20.2079C17.491 20.7865 17.8172 21.382 18.1466 21.975C18.1936 22.0595 18.1967 22.1685 18.2061 22.2098L18.2055 22.2092Z" fill="white"/>
<path id="Vector_5" d="M7.44265 4.08833C7.1784 4.08833 6.97113 3.97499 6.83963 3.75019C6.51276 3.19163 6.18776 2.63181 5.87842 2.06386C5.6962 1.72947 5.83271 1.3118 6.1552 1.12958C6.48583 0.942975 6.89598 1.03565 7.09699 1.37129C7.4295 1.92609 7.75449 2.48653 8.05882 3.05699C8.31618 3.53853 7.97804 4.0852 7.44265 4.0877V4.08833Z" fill="white"/>
<path id="Vector_6" d="M16.5719 4.0883C16.0446 4.09018 15.6927 3.55854 15.9382 3.0864C16.2444 2.49903 16.5788 1.92607 16.9207 1.35874C17.121 1.02623 17.5418 0.9442 17.8675 1.13769C18.1756 1.32054 18.3089 1.73257 18.1323 2.05819C17.8205 2.63366 17.4918 3.20099 17.1586 3.76456C17.0321 3.97934 16.8261 4.08768 16.5713 4.0883H16.5719Z" fill="white"/>
<path id="Vector_7" d="M11.3003 22.457C11.3003 22.1921 11.2966 21.9266 11.301 21.6618C11.3085 21.2472 11.609 20.946 12.0073 20.9473C12.4056 20.9485 12.7042 21.2491 12.708 21.6668C12.713 22.2047 12.7136 22.7432 12.708 23.2811C12.7036 23.6937 12.3949 24.0012 12.0023 23.9999C11.6097 23.9987 11.3085 23.69 11.3016 23.2761C11.2972 23.0031 11.301 22.73 11.301 22.457H11.3003Z" fill="white"/>
<path id="Vector_8" d="M14.4004 11.9966C14.4016 13.3248 13.3352 14.3943 12.0089 14.3962C10.682 14.3981 9.61063 13.3298 9.60938 12.0042C9.60812 10.6766 10.6745 9.60711 12.0014 9.60523C13.3296 9.60335 14.3997 10.6704 14.401 11.9966H14.4004ZM12.9902 11.9929C12.987 11.45 12.5468 11.0142 12.0027 11.0154C11.4591 11.016 11.0208 11.4537 11.0189 11.9966C11.0171 12.5502 11.4635 12.9923 12.0183 12.9867C12.5587 12.981 12.9939 12.5364 12.9908 11.9929H12.9902Z" fill="white"/>
</g>
<defs>
<clipPath id="clip0_158_3738">
<rect width="24.0069" height="24" fill="white"/>
</clipPath>
</defs>
</svg>
