<svg width="24" height="24" viewBox="0 0 24 24" fill="none" xmlns="http://www.w3.org/2000/svg">
<g id="Capa_1" clip-path="url(#clip0_149_314)">
<path id="Vector" d="M8.29382 1.82025C10.7258 1.82025 13.1583 1.81852 15.5903 1.82431C15.7746 1.82431 15.8688 1.78027 15.9567 1.59946C16.463 0.56097 17.3114 0 18.4586 0C19.6064 0 20.4548 0.56039 20.9605 1.59946C21.0483 1.77969 21.1419 1.82837 21.3269 1.82431C21.8649 1.81272 22.4036 1.81967 22.9416 1.82025C23.5756 1.82141 23.9987 2.19694 23.9946 2.75269C23.9906 3.29686 23.571 3.6689 22.9561 3.67064C22.4082 3.6718 21.8597 3.67818 21.3124 3.66659C21.1367 3.66311 21.0489 3.71121 20.9674 3.87927C20.4577 4.93109 19.6029 5.49611 18.4436 5.4909C17.2969 5.4851 16.4491 4.9195 15.9509 3.87695C15.8579 3.68281 15.7452 3.6689 15.5747 3.6689C10.7581 3.67122 5.94219 3.67064 1.12567 3.67006C0.991584 3.67006 0.853457 3.67412 0.724577 3.64572C0.25876 3.54257 -0.0492807 3.10098 0.00620127 2.63621C0.0616832 2.17028 0.446012 1.82489 0.93957 1.82257C2.30466 1.81736 3.66975 1.82025 5.03483 1.82025C6.12136 1.82025 7.2073 1.82025 8.29382 1.82025ZM18.4626 1.82141C17.9604 1.81736 17.5414 2.22939 17.5368 2.73299C17.5321 3.23948 17.9361 3.65905 18.4389 3.6689C18.9539 3.67934 19.381 3.25861 19.3798 2.74284C19.3787 2.23866 18.9672 1.82547 18.4626 1.82141Z" fill="#DA291C"/>
<path id="Vector_2" d="M2.92957 11.0743C3.16883 10.4838 3.53062 10.0097 4.0629 9.67533C5.47191 8.78984 7.3086 9.31661 8.02697 10.8257C8.12002 11.0215 8.22174 11.0795 8.43384 11.0795C13.2504 11.0725 18.0663 11.0737 22.8829 11.0749C23.0077 11.0749 23.1348 11.0702 23.2562 11.0946C23.7087 11.1855 24.0249 11.6069 23.9936 12.0629C23.963 12.5179 23.592 12.8887 23.1308 12.9218C23.0256 12.9293 22.9193 12.9247 22.8135 12.9247C18.0259 12.9247 13.2388 12.9264 8.45118 12.92C8.23388 12.92 8.12233 12.9733 8.01888 13.182C7.51088 14.2095 6.65784 14.7501 5.52451 14.7449C4.39059 14.7397 3.54623 14.1863 3.04342 13.1582C2.95095 12.9693 2.85039 12.9166 2.65563 12.9206C2.09849 12.9322 1.54079 12.9276 0.983076 12.9235C0.417853 12.9195 0.00578403 12.5306 0.00173847 12.0061C-0.00230709 11.4672 0.41034 11.0772 0.995791 11.0743C1.63903 11.0714 2.2817 11.0737 2.92957 11.0737V11.0743ZM5.5326 12.9235C6.03194 12.9281 6.45441 12.5132 6.46019 12.0125C6.46597 11.5066 6.06257 11.087 5.55918 11.076C5.0454 11.0644 4.61715 11.4846 4.61715 12.0003C4.61715 12.5039 5.02864 12.9189 5.5326 12.9235Z" fill="#DA291C"/>
<path id="Vector_3" d="M5.99955 20.3287C7.66285 20.3287 9.32557 20.3264 10.9889 20.3321C11.1628 20.3327 11.2518 20.291 11.3345 20.1212C11.8436 19.0705 12.6978 18.5038 13.8572 18.5078C15.005 18.5119 15.8488 19.0792 16.3527 20.1189C16.4342 20.2869 16.5209 20.3327 16.6966 20.3327C18.802 20.3269 20.9074 20.3264 23.0123 20.3304C23.7266 20.3316 24.1936 20.9887 23.9202 21.6106C23.7422 22.0156 23.4105 22.1825 22.9713 22.182C20.8947 22.1773 18.8182 22.1831 16.7417 22.175C16.5325 22.1744 16.4284 22.2283 16.3319 22.4254C15.8256 23.4528 14.9778 24.0005 13.8439 24.0005C12.6973 24.0005 11.8477 23.4401 11.3414 22.401C11.2536 22.2202 11.1594 22.1762 10.975 22.1767C7.68712 22.182 4.39924 22.1808 1.11193 22.1796C0.977849 22.1796 0.839722 22.182 0.71142 22.1518C0.257162 22.044 -0.041054 21.6169 0.00460303 21.1614C0.0525718 20.6839 0.442679 20.3333 0.95242 20.3321C2.6348 20.3281 4.31717 20.3304 5.99955 20.3304V20.3287ZM14.7657 21.2594C14.7669 20.7535 14.36 20.3379 13.8566 20.3304C13.3428 20.3229 12.918 20.7471 12.9227 21.2628C12.9273 21.7664 13.3422 22.1773 13.8462 22.1779C14.3455 22.1779 14.7645 21.7601 14.7657 21.2588V21.2594Z" fill="#DA291C"/>
</g>
<defs>
<clipPath id="clip0_149_314">
<rect width="24" height="24" fill="white"/>
</clipPath>
</defs>
</svg>
