<svg width="24" height="24" viewBox="0 0 24 24" fill="none" xmlns="http://www.w3.org/2000/svg">
<g id="Capa_1" clip-path="url(#clip0_143_1435)">
<path id="Vector" d="M24.0034 12.1883C23.5319 12.7143 23.098 13.2816 22.5813 13.7594C20.5174 15.668 18.1323 17.0219 15.4115 17.7533C12.7627 18.4652 10.1371 18.3337 7.55278 17.4351C4.8182 16.4846 2.44933 14.9636 0.484967 12.827C0.395422 12.7293 0.309633 12.6279 0.224472 12.5258C-0.0792307 12.1633 -0.0798569 11.8376 0.224472 11.4751C0.875083 10.7005 1.60835 10.0104 2.40424 9.38735C4.3279 7.88136 6.45507 6.78052 8.83271 6.1894C11.638 5.49182 14.3795 5.73666 17.0565 6.78741C19.6357 7.79996 21.8769 9.3072 23.7097 11.3987C23.8206 11.5252 23.9064 11.6742 24.0034 11.8132V12.1883ZM16.7922 12.0117C16.7985 9.36794 14.6719 7.22386 12.03 7.21071C9.37311 7.19756 7.2234 9.32348 7.21025 11.9773C7.1971 14.6298 9.33178 16.782 11.9837 16.7908C14.6375 16.7996 16.786 14.6643 16.7922 12.0123V12.0117ZM16.9957 15.73C19.0509 14.8214 20.7998 13.5734 22.3315 12.0117C21.2895 10.7506 18.0402 8.49879 17.0277 8.32157C18.6157 10.7731 18.6138 13.2259 16.9957 15.7294V15.73ZM7.00737 15.73C5.38679 13.2271 5.38365 10.77 7.00549 8.27211C4.95096 9.17946 3.20138 10.4268 1.6597 12.0017C3.20576 13.5853 4.95534 14.8252 7.00737 15.73Z" fill="#D4D3D3"/>
<path id="Vector_2" d="M12.1885 -0.000350372C12.5824 0.181871 12.7358 0.4862 12.7114 0.919523C12.6857 1.37852 12.7076 1.84002 12.7051 2.30027C12.702 2.74988 12.407 3.05796 11.9894 3.05295C11.5848 3.04795 11.2999 2.74049 11.2974 2.29965C11.2949 1.8394 11.3181 1.37789 11.2905 0.918897C11.2649 0.483695 11.422 0.182497 11.814 -0.000976562H12.1891L12.1885 -0.000350372Z" fill="#D4D3D3"/>
<path id="Vector_3" d="M5.77441 22.2428C5.82138 22.1131 5.85269 21.9748 5.91906 21.8558C6.20649 21.3379 6.50142 20.8238 6.79886 20.3116C7.02617 19.9202 7.44008 19.7956 7.79513 20.0048C8.14016 20.2076 8.23973 20.6222 8.02619 21.0035C7.725 21.5408 7.42255 22.0774 7.11008 22.6085C6.936 22.9046 6.61977 23.0217 6.30542 22.9309C5.99546 22.842 5.80009 22.5797 5.77441 22.2434V22.2428Z" fill="#D4D3D3"/>
<path id="Vector_4" d="M18.2018 22.2092C18.1968 22.573 18.0096 22.8316 17.7265 22.9243C17.4234 23.0232 17.0909 22.9299 16.9244 22.6519C16.5793 22.077 16.245 21.4953 15.93 20.9042C15.754 20.5748 15.9012 20.1747 16.2205 19.9962C16.5292 19.8234 16.9463 19.8985 17.1348 20.2079C17.4873 20.7865 17.8136 21.382 18.1429 21.975C18.1899 22.0595 18.193 22.1685 18.2024 22.2098L18.2018 22.2092Z" fill="#D4D3D3"/>
<path id="Vector_5" d="M7.43947 4.08882C7.17522 4.08882 6.96795 3.97548 6.83645 3.75068C6.50958 3.19211 6.18459 2.6323 5.87525 2.06434C5.69303 1.72996 5.82954 1.31229 6.15203 1.13007C6.48266 0.943463 6.89281 1.03614 7.09382 1.37178C7.42632 1.92658 7.75132 2.48702 8.05564 3.05748C8.31301 3.53902 7.97487 4.08569 7.43947 4.08819V4.08882Z" fill="#D4D3D3"/>
<path id="Vector_6" d="M16.5687 4.08879C16.0415 4.09067 15.6895 3.55903 15.935 3.08689C16.2412 2.49952 16.5756 1.92655 16.9175 1.35923C17.1179 1.02672 17.5387 0.944688 17.8643 1.13818C18.1724 1.32103 18.3058 1.73306 18.1292 2.05868C17.8173 2.63415 17.4886 3.20148 17.1554 3.76505C17.029 3.97983 16.8229 4.08816 16.5681 4.08879H16.5687Z" fill="#D4D3D3"/>
<path id="Vector_7" d="M11.2968 22.457C11.2968 22.1921 11.293 21.9266 11.2974 21.6618C11.3049 21.2472 11.6055 20.946 12.0038 20.9473C12.402 20.9485 12.7007 21.2491 12.7045 21.6668C12.7095 22.2047 12.7101 22.7432 12.7045 23.2811C12.7001 23.6937 12.3914 24.0012 11.9987 23.9999C11.6061 23.9987 11.3049 23.69 11.298 23.2761C11.2937 23.0031 11.2974 22.73 11.2974 22.457H11.2968Z" fill="#D4D3D3"/>
<path id="Vector_8" d="M14.3965 11.9969C14.3977 13.325 13.3313 14.3946 12.005 14.3965C10.6781 14.3983 9.60672 13.3301 9.60547 12.0044C9.60422 10.6769 10.6706 9.60735 11.9975 9.60547C13.3257 9.60359 14.3958 10.6706 14.3971 11.9969H14.3965ZM12.9863 11.9931C12.9831 11.4502 12.5429 11.0144 11.9988 11.0157C11.4552 11.0163 11.0169 11.454 11.015 11.9969C11.0131 12.5504 11.4596 12.9925 12.0144 12.9869C12.5548 12.9813 12.99 12.5367 12.9869 11.9931H12.9863Z" fill="#D4D3D3"/>
</g>
<defs>
<clipPath id="clip0_143_1435">
<rect width="24.0069" height="24" fill="white" transform="translate(-0.00341797)"/>
</clipPath>
</defs>
</svg>
