<svg width="25" height="24" viewBox="0 0 25 24" fill="none" xmlns="http://www.w3.org/2000/svg">
<g id="Capa_1" clip-path="url(#clip0_146_2287)">
<path id="Vector" d="M13.3465 23.9999H11.8464C11.7942 23.9872 11.7426 23.9703 11.6895 23.9623C11.142 23.8825 10.5889 23.8295 10.0471 23.721C5.3949 22.7905 1.53857 18.7887 0.784026 14.1179C0.710778 13.6649 0.658659 13.2085 0.59668 12.7536C0.59668 12.2536 0.59668 11.7541 0.59668 11.2541C0.661476 10.7762 0.709369 10.295 0.794355 9.8208C2.09404 2.55052 9.80245 -1.83296 16.7512 0.743518C22.4471 2.85521 25.6616 8.84242 24.276 14.7583C23.1843 19.4192 19.3529 23.0328 14.6636 23.8187C14.2264 23.8919 13.7856 23.9402 13.3461 24.0003L13.3465 23.9999ZM5.39818 19.7469C5.72263 18.6347 6.25556 17.6653 7.00776 16.8197C7.76278 15.9709 8.67181 15.3315 9.73108 14.8775C7.01105 13.0499 6.68096 9.41659 8.59245 7.14809C10.4129 4.98804 13.6334 4.64814 15.8313 6.40585C16.9578 7.3063 17.6372 8.47952 17.7785 9.91235C17.9846 12.0001 17.1559 13.6428 15.4679 14.8742C17.6531 15.8531 19.089 17.4653 19.7971 19.7281C22.3546 17.4695 24.0173 13.3292 22.7561 8.99547C21.5146 4.73123 17.5494 1.61345 13.0949 1.42238C8.48305 1.22426 4.32576 3.94486 2.67814 8.29783C1.09815 12.4715 2.36872 16.9732 5.39771 19.7474L5.39818 19.7469ZM12.5709 22.5961C14.6692 22.5811 16.5882 22.0192 18.3462 20.8995C18.5392 20.7765 18.5758 20.6605 18.5251 20.445C17.7841 17.3033 14.8613 15.3179 11.6618 15.7925C9.19487 16.1582 7.18619 18.0479 6.65561 20.4948C6.61757 20.6708 6.65326 20.7718 6.81337 20.875C8.57273 22.0074 10.4974 22.5764 12.5713 22.5961H12.5709ZM16.4075 10.4968C16.4075 8.39079 14.7002 6.68237 12.5957 6.68284C10.4908 6.68331 8.78543 8.39079 8.78543 10.4973C8.78543 12.6057 10.4875 14.3071 12.5967 14.3071C14.7054 14.3071 16.4075 12.6053 16.4075 10.4964V10.4968Z" fill="#DA291C"/>
</g>
<defs>
<clipPath id="clip0_146_2287">
<rect width="24" height="24" fill="white" transform="translate(0.59668)"/>
</clipPath>
</defs>
</svg>
