<svg width="24" height="24" viewBox="0 0 24 24" fill="none" xmlns="http://www.w3.org/2000/svg">
<g id="Capa_1" clip-path="url(#clip0_92_1402)">
<path id="Vector" d="M0 12.7049C0 12.2365 0 11.7675 0 11.2992C0.0146735 11.2164 0.0311079 11.1336 0.0434336 11.0503C0.118562 10.5338 0.161409 10.0102 0.271754 9.50136C0.898019 6.62007 2.37828 4.25881 4.72546 2.48097C7.64549 0.26879 10.9341 -0.464299 14.5197 0.282876C17.3899 0.880968 19.7236 2.3853 21.5084 4.70547C23.4354 7.21054 24.2383 10.0631 23.936 13.2026C23.6913 15.7464 22.7034 17.9926 21.0084 19.9096C19.1501 22.0114 16.8352 23.3209 14.0678 23.8133C13.6164 23.8937 13.158 23.9389 12.7032 24H11.2968C11.2364 23.9865 11.1771 23.9659 11.1161 23.9612C9.23903 23.8286 7.48291 23.2921 5.88056 22.3102C2.77212 20.4055 0.858107 17.6593 0.186647 14.066C0.102715 13.6164 0.0610418 13.1592 0 12.7049ZM22.1365 12.0023C22.1376 6.41171 17.6041 1.87583 12.007 1.86703C6.4223 1.85822 1.88056 6.39058 1.86412 11.9888C1.84769 17.5771 6.41056 22.1423 12.0053 22.1358C17.6012 22.1288 22.1353 17.5941 22.1365 12.0023Z" fill="white"/>
<path id="Vector_2" d="M12.9333 12.8465C12.9333 13.6506 12.9333 14.4225 12.9333 15.1949C12.9333 15.6163 12.9351 16.0383 12.9333 16.4597C12.9298 17.0766 12.5483 17.4922 11.9931 17.4892C11.4495 17.4863 11.0698 17.0725 11.068 16.4685C11.0651 15.2741 11.0669 14.0797 11.0669 12.8471C10.9765 12.8471 10.8949 12.8471 10.8127 12.8471C9.65703 12.8471 8.50135 12.8512 7.34507 12.8436C6.86496 12.8406 6.4946 12.499 6.43121 12.033C6.37369 11.6081 6.63664 11.1761 7.05395 11.0481C7.20714 11.0012 7.37618 10.9888 7.53818 10.9883C8.60817 10.983 9.67816 10.9859 10.7482 10.9859C10.8415 10.9859 10.9348 10.9859 11.0663 10.9859C11.0663 10.8926 11.0663 10.8104 11.0663 10.7288C11.0663 9.60426 11.0639 8.48026 11.0675 7.35569C11.0692 6.8515 11.3421 6.48115 11.7753 6.37667C12.3834 6.22993 12.9245 6.66486 12.9304 7.32399C12.9392 8.32355 12.9327 9.32311 12.9327 10.3221C12.9327 10.5316 12.9327 10.7412 12.9327 10.9859C13.039 10.9859 13.1294 10.9859 13.2192 10.9859C14.3203 10.9859 15.4214 10.9842 16.5225 10.9865C17.0325 10.9877 17.38 11.209 17.5203 11.6098C17.7363 12.2273 17.2937 12.8412 16.6152 12.8448C15.483 12.8518 14.3502 12.8465 13.218 12.8471C13.1335 12.8471 13.049 12.8471 12.9322 12.8471L12.9333 12.8465Z" fill="white"/>
</g>
<defs>
<clipPath id="clip0_92_1402">
<rect width="23.9977" height="24" fill="white"/>
</clipPath>
</defs>
</svg>
