<svg width="24" height="24" viewBox="0 0 24 24" fill="none" xmlns="http://www.w3.org/2000/svg">
<g id="Capa_1" clip-path="url(#clip0_38_40)">
<path id="Vector" d="M12.7499 23.9999H11.2497C11.1976 23.9872 11.1459 23.9703 11.0929 23.9623C10.5454 23.8825 9.99225 23.8295 9.45041 23.721C4.79822 22.7905 0.941895 18.7887 0.187346 14.1179C0.114098 13.6649 0.0619791 13.2085 0 12.7536C0 12.2536 0 11.7541 0 11.2541C0.0647963 10.7762 0.112689 10.295 0.197676 9.8208C1.49736 2.55052 9.20577 -1.83296 16.1545 0.743518C21.8505 2.85521 25.0649 8.84242 23.6793 14.7583C22.5876 19.4192 18.7562 23.0328 14.0669 23.8187C13.6298 23.8919 13.1889 23.9402 12.7494 24.0003L12.7499 23.9999ZM4.8015 19.7469C5.12595 18.6347 5.65888 17.6653 6.41108 16.8197C7.1661 15.9709 8.07513 15.3315 9.13441 14.8775C6.41437 13.0499 6.08428 9.41659 7.99577 7.14809C9.81618 4.98804 13.0367 4.64814 15.2347 6.40585C16.3611 7.3063 17.0405 8.47952 17.1818 9.91235C17.388 12.0001 16.5592 13.6428 14.8712 14.8742C17.0565 15.8531 18.4923 17.4653 19.2004 19.7281C21.758 17.4695 23.4206 13.3292 22.1594 8.99547C20.9179 4.73123 16.9527 1.61345 12.4982 1.42238C7.88637 1.22426 3.72908 3.94486 2.08147 8.29783C0.501467 12.4715 1.77204 16.9732 4.80103 19.7474L4.8015 19.7469ZM11.9742 22.5961C14.0725 22.5811 15.9915 22.0192 17.7495 20.8995C17.9425 20.7765 17.9791 20.6605 17.9284 20.445C17.1875 17.3033 14.2646 15.3179 11.0651 15.7925C8.59819 16.1582 6.58951 18.0479 6.05893 20.4948C6.02089 20.6708 6.05658 20.7718 6.21669 20.875C7.97605 22.0074 9.90069 22.5764 11.9746 22.5961H11.9742ZM15.8108 10.4968C15.8108 8.39079 14.1035 6.68237 11.9991 6.68284C9.89412 6.68331 8.18875 8.39079 8.18875 10.4973C8.18875 12.6057 9.89083 14.3071 12 14.3071C14.1087 14.3071 15.8108 12.6053 15.8108 10.4964V10.4968Z" fill="#D4D3D3"/>
</g>
<defs>
<clipPath id="clip0_38_40">
<rect width="24" height="24" fill="white"/>
</clipPath>
</defs>
</svg>
