<svg width="20" height="24" viewBox="0 0 20 24" fill="none" xmlns="http://www.w3.org/2000/svg">
<g id="Capa_1" clip-path="url(#clip0_91_400)">
<path id="Vector" d="M10.2009 0C10.6302 0.199143 10.773 0.542007 10.7575 1.00276C10.735 1.67299 10.7519 2.34416 10.7519 3.00358C11.2084 3.11208 11.6527 3.1938 12.0825 3.32343C14.7422 4.12658 16.7332 6.55152 16.9493 9.32167C17.0324 10.386 17.0042 11.4601 16.9943 12.5296C16.9751 14.6694 17.735 16.4579 19.3399 17.8806C19.8819 18.3611 20.1158 18.9547 19.9425 19.6663C19.7861 20.3069 19.3718 20.7334 18.7383 20.9227C18.5476 20.9795 18.3386 20.9964 18.138 20.9974C16.7398 21.0035 15.3416 21.0006 13.9433 21.0006H13.6841C13.6385 21.1542 13.6005 21.297 13.5535 21.437C13.0228 23.0188 11.5428 24.0432 9.85573 23.9991C8.24146 23.9563 6.80378 22.8108 6.37731 21.2097C6.32987 21.0321 6.25801 20.9969 6.09409 20.9978C4.65688 21.0035 3.2192 21.0044 1.78199 20.9997C0.825263 20.9964 0.0925683 20.3351 0.00802649 19.385C-0.046456 18.7744 0.196836 18.2746 0.658528 17.8773C1.31701 17.3104 1.84775 16.6411 2.2465 15.8685C2.76174 14.8709 2.9994 13.8104 2.99658 12.6883C2.99376 11.6184 2.94585 10.5428 3.03556 9.47948C3.26382 6.78307 4.65313 4.84988 7.06867 3.64939C7.74548 3.3131 8.47254 3.1365 9.25173 3.03552V2.71285C9.25173 2.11918 9.26864 1.52504 9.24609 0.931838C9.22871 0.474843 9.3978 0.164856 9.82567 0H10.2005L10.2009 0ZM9.99194 19.5005C12.679 19.5005 15.366 19.5005 18.053 19.5005C18.131 19.5005 18.2113 19.508 18.2864 19.493C18.4785 19.4549 18.5556 19.2525 18.4381 19.0966C18.3963 19.0412 18.34 18.9965 18.2878 18.9496C16.4467 17.2879 15.5229 15.2133 15.4994 12.7372C15.4909 11.8391 15.5102 10.9406 15.4923 10.0426C15.4848 9.64669 15.4552 9.2437 15.3702 8.8581C14.7197 5.9137 11.9932 4.08994 9.01501 4.59062C6.61121 4.99454 4.67896 7.09963 4.53101 9.53866C4.46714 10.5893 4.49813 11.6466 4.49485 12.7005C4.48733 15.0522 3.65084 17.0535 1.9755 18.7039C1.84775 18.8298 1.70027 18.9378 1.58379 19.0731C1.5326 19.1327 1.49831 19.2572 1.52602 19.322C1.55843 19.3981 1.66129 19.4554 1.74583 19.4935C1.80454 19.5198 1.88438 19.5 1.95437 19.5C4.6334 19.5 7.3129 19.5 9.99194 19.5V19.5005ZM7.90423 21.0086C8.14893 21.8982 9.12773 22.5445 10.1244 22.4966C11.0177 22.4534 11.9467 21.7507 12.082 21.0086H7.9047H7.90423Z" fill="#D4D3D3"/>
</g>
<defs>
<clipPath id="clip0_91_400">
<rect width="19.9988" height="24" fill="white"/>
</clipPath>
</defs>
</svg>
