<svg width="35" height="28" viewBox="0 0 35 28" fill="none" xmlns="http://www.w3.org/2000/svg">
<g id="Capa_1" clip-path="url(#clip0_92_1322)">
<path id="Vector" d="M21.4778 1.82575C21.171 1.79805 20.8461 1.80657 20.5319 1.81403C20.3785 1.81723 20.2262 1.82149 20.076 1.82149C19.865 1.82149 19.6861 1.66703 19.6541 1.45825C19.4379 0.013832 19.1588 0.00850615 18.7732 0.00104971C18.3855 -0.00640673 18.0808 -0.0117328 17.8454 1.39966C17.8113 1.60525 17.6334 1.75544 17.4247 1.75544H8.13287C7.9145 1.75544 7.73129 1.59034 7.70892 1.37303C7.56938 0.00957133 7.19549 0.012767 6.89723 0.0159626C6.70017 0.018093 6.45623 0.0937226 6.27621 0.20983C5.98754 0.396241 5.95239 0.696629 5.97902 1.34321C5.98328 1.45932 5.94068 1.57223 5.86078 1.65638C5.78089 1.74053 5.66905 1.7874 5.55294 1.7874C5.43683 1.7874 5.32179 1.7874 5.21207 1.78633C5.10981 1.78633 5.00969 1.78633 4.91169 1.78633C4.79664 1.78633 4.68373 1.78633 4.57189 1.78953C2.02711 1.83533 0.0245219 3.77401 0.014935 6.19948C-0.00530387 11.0547 -0.00530387 16.0835 0.014935 21.1465C0.0245219 23.5048 2.0367 25.5181 4.40997 25.5436C5.9982 25.5607 7.73129 25.5596 9.86276 25.5383C10.0321 25.5362 10.2367 25.4765 10.3975 25.3828C10.7032 25.2028 10.8374 24.8182 10.7245 24.4486C10.6127 24.0822 10.2803 23.8531 9.85637 23.851C8.78904 23.8478 7.72276 23.8478 6.65543 23.8478C6.00885 23.8478 5.3612 23.8478 4.71462 23.8478C2.88779 23.8457 1.70755 22.6633 1.70648 20.8343C1.70648 18.2555 1.70648 15.6756 1.70648 13.0967V9.46434C1.70648 9.22893 1.89715 9.03826 2.13256 9.03826H23.4324C23.6678 9.03826 23.8585 9.22893 23.8585 9.46434C23.8585 9.60175 23.8585 9.73597 23.8574 9.86912C23.8564 10.1589 23.8553 10.4326 23.8596 10.7085C23.8692 11.2496 24.226 11.6448 24.7096 11.648C24.7117 11.648 24.7139 11.648 24.716 11.648C24.9397 11.648 25.1378 11.5692 25.2891 11.419C25.4595 11.2507 25.5543 11.0057 25.5554 10.7287L25.5575 10.2345C25.5628 8.92108 25.5692 7.56401 25.5532 6.23037C25.5256 3.92207 23.7733 2.02814 21.4767 1.82362L21.4778 1.82575ZM23.834 6.89293C23.8074 7.10597 23.6263 7.26575 23.4111 7.26575H2.15813C1.9387 7.26575 1.75442 7.09852 1.73418 6.88015C1.63298 5.80429 1.94189 4.87224 2.60445 4.25761C3.32027 3.59292 4.39187 3.3426 5.62005 3.55138C5.82883 3.58653 5.98009 3.77081 5.97476 3.98172V3.99983C5.96091 4.53137 5.96837 4.86691 6.26982 5.06504C6.45943 5.18967 6.68419 5.27062 6.85569 5.27701C7.18271 5.28873 7.49162 5.30045 7.72703 3.87307C7.76111 3.66749 7.939 3.51623 8.14778 3.51623H17.4587C17.691 3.51623 17.8816 3.70264 17.8848 3.93592V4.03605C17.8923 4.56652 17.9104 4.87543 18.1959 5.06291C18.377 5.18115 18.6028 5.2621 18.8009 5.27914C19.0704 5.30151 19.2984 5.18115 19.4091 4.95426C19.5061 4.75826 19.5561 4.51326 19.6105 4.25442C19.6371 4.12553 19.6648 3.99238 19.6999 3.85709C19.7415 3.69518 19.8746 3.57162 20.0397 3.54392C21.2381 3.33727 22.2873 3.59612 22.9946 4.27253C23.6582 4.90632 23.9629 5.86288 23.8329 6.89506L23.834 6.89293Z" fill="white"/>
<path id="Vector_2" d="M23.0329 13.6582C18.2033 13.819 14.3781 15.828 11.665 19.6297C11.0685 20.4659 11.0706 21.2478 11.6725 22.0914C14.1874 25.6162 17.5684 27.5826 21.7206 27.9373C26.9774 28.3857 31.2499 26.429 34.4168 22.1213C35.0537 21.2542 35.058 20.4777 34.4306 19.6021C31.6717 15.7599 27.9435 13.8148 23.034 13.6582H23.0329ZM18.3162 17.2543C16.6576 19.6479 16.6342 21.9892 18.2448 24.4125C18.3449 24.5638 18.3385 24.7608 18.2299 24.9057C18.1479 25.0144 18.0211 25.0751 17.8901 25.0751C17.8464 25.0751 17.8027 25.0687 17.7601 25.0548C17.7165 25.041 17.6813 25.0303 17.6493 25.0218C17.5737 25.0005 17.5034 24.9803 17.4257 24.9398C15.7597 24.078 14.3547 22.8818 13.249 21.3852C13.1414 21.2393 12.8549 20.8515 13.2181 20.3594C14.3557 18.8159 15.8065 17.5909 17.53 16.7175C17.595 16.6845 17.6557 16.6653 17.7197 16.645C17.7495 16.6355 17.7846 16.6248 17.8283 16.6099C18.003 16.5502 18.1947 16.6099 18.3055 16.7558C18.4163 16.9028 18.4206 17.1041 18.3162 17.2554V17.2543ZM23.0478 25.0591C23.0425 25.0591 23.0361 25.0591 23.0308 25.0591C20.6841 25.0591 18.7678 23.1982 18.755 20.9027C18.7423 18.5954 20.6458 16.7068 22.9977 16.693C23.0063 16.693 23.0159 16.693 23.0244 16.693C24.1876 16.693 25.2752 17.1372 26.09 17.9467C26.8815 18.7328 27.3172 19.7725 27.3193 20.8739C27.3214 23.1726 25.4051 25.0495 23.0478 25.0591ZM32.8978 21.3447C31.7324 22.9255 30.2475 24.1697 28.4836 25.0421C28.4122 25.0772 28.3472 25.09 28.2908 25.1006C28.2684 25.1049 28.2386 25.1102 28.1991 25.1198C28.1683 25.1273 28.1363 25.1305 28.1054 25.1305C27.9637 25.1305 27.8285 25.0591 27.7486 24.9377C27.6516 24.7885 27.657 24.5947 27.7624 24.4519C28.6167 23.2941 29.0279 22.1149 29.0194 20.8462C29.0108 19.5701 28.5965 18.392 27.7507 17.2458C27.6367 17.0914 27.6399 16.8794 27.7603 16.7281C27.8796 16.5779 28.0852 16.5257 28.262 16.6014C29.4348 17.1052 30.4648 17.7837 31.3245 18.6199C31.693 18.9778 32.0296 19.3677 32.3545 19.7448C32.5196 19.9355 32.6901 20.1336 32.8594 20.3211C33.0224 20.5011 33.244 20.8739 32.8978 21.3447Z" fill="white"/>
</g>
<defs>
<clipPath id="clip0_92_1322">
<rect width="34.8972" height="28" fill="white"/>
</clipPath>
</defs>
</svg>
