<svg width="27" height="28" viewBox="0 0 27 28" fill="none" xmlns="http://www.w3.org/2000/svg">
<g id="Capa_1" clip-path="url(#clip0_92_1413)">
<path id="Vector" d="M19.6808 3.22483C19.605 2.77449 19.5404 2.36935 19.4678 1.96421C19.2934 1.0022 19.8164 0.1903 20.7187 0.0240461C21.5774 -0.132523 22.349 0.430802 22.5168 1.37022C22.8332 3.13928 23.1415 4.90996 23.4336 6.68226C23.5902 7.63458 23.0269 8.37708 22.0713 8.5401C20.3119 8.84033 18.5526 9.14055 16.7948 9.44078C15.9006 9.59412 15.1306 9.07599 14.9515 8.20114C14.782 7.37794 15.3195 6.57895 16.196 6.39656C16.8368 6.26259 17.4856 6.16897 18.241 6.03661C17.8811 5.8526 17.6148 5.70088 17.3355 5.57336C11.2842 2.80839 4.15145 6.7323 3.23302 13.3292C2.47923 18.7364 6.06902 23.7822 11.3407 24.7232C17.0288 25.7385 22.236 22.0728 23.2222 16.3572C23.3626 15.547 23.9211 15.0191 24.683 14.9772C25.3916 14.9384 26.0953 15.3968 26.2373 16.099C26.3181 16.4993 26.2761 16.9464 26.1986 17.3564C25.1769 22.683 20.8624 26.899 15.5261 27.8045C8.39657 29.0151 1.72706 24.473 0.272742 17.4177C-1.21386 10.2123 3.54132 3.16027 10.7838 1.8141C13.7812 1.25723 16.6285 1.68335 19.3402 3.06665C19.4355 3.11507 19.5339 3.15704 19.6808 3.22483Z" fill="white"/>
</g>
<defs>
<clipPath id="clip0_92_1413">
<rect width="26.2826" height="28" fill="white"/>
</clipPath>
</defs>
</svg>
