<svg width="28" height="28" viewBox="0 0 28 28" fill="none" xmlns="http://www.w3.org/2000/svg">
<g id="Capa_1" clip-path="url(#clip0_92_1326)">
<path id="Vector" d="M17.2787 0C18.3567 0.294132 19.0101 1.11832 19.5922 1.97123C19.804 2.28088 19.9422 2.55949 20.324 2.6891C20.5436 2.7636 20.7346 2.95529 20.9076 3.12603C21.7838 3.9898 22.6367 4.87685 23.5238 5.72898C24.1027 6.28465 24.4845 6.89387 24.313 7.7623C24.4644 7.75143 24.5862 7.73591 24.7088 7.73436C25.1621 7.73048 25.5881 7.84767 25.9172 8.15965C26.4791 8.69126 27.0409 9.22753 27.5524 9.80726C28.1655 10.5018 28.1352 11.4681 27.54 12.1828C27.4701 12.2666 27.3948 12.3466 27.318 12.4242C24.2385 15.5044 21.1591 18.5847 18.078 21.6641C17.3571 22.3851 16.4972 22.5302 15.7002 22.0568C15.5224 21.9513 15.3633 21.8069 15.2151 21.6618C14.6307 21.0867 14.0533 20.5039 13.4736 19.9242C12.8566 19.3072 12.3041 19.3724 11.8213 20.1089C10.6681 21.8682 9.52183 23.6315 8.35073 25.3792C7.89052 26.0652 7.41401 26.7428 6.7202 27.2371C4.19019 29.0384 0.510047 27.4824 0.0560431 24.4107C0.044402 24.3307 0.0187915 24.2531 -0.000610352 24.1747C0.000165723 23.8627 0.000165723 23.5531 0.000165723 23.2434C0.0164633 23.2031 0.0428498 23.1635 0.0482824 23.1208C0.146844 22.4022 0.420798 21.7573 0.847639 21.1713C1.34277 20.493 2.03271 20.0406 2.71177 19.5858C4.44397 18.4256 6.19324 17.2894 7.93631 16.1455C8.62158 15.6961 8.68056 15.1288 8.09773 14.5444C7.50558 13.9507 6.90102 13.3694 6.32517 12.7602C6.11098 12.5336 5.90687 12.2651 5.79977 11.9779C5.50409 11.1848 5.74389 10.5065 6.33294 9.91901C9.33169 6.92569 12.3289 3.92927 15.3183 0.926633C15.7289 0.514537 16.1495 0.139693 16.7316 0L17.2787 0ZM19.4098 17.6107C21.6332 15.3872 23.859 13.1607 26.0437 10.9752C25.613 10.5461 25.1574 10.0921 24.6918 9.62876C24.6475 9.65825 24.5715 9.70714 24.4962 9.75836C22.6584 11.0078 20.8207 12.2573 18.983 13.506C18.9077 13.5572 18.8355 13.6279 18.7517 13.6473C18.6749 13.6659 18.5561 13.6558 18.5088 13.6069C18.463 13.5596 18.463 13.4408 18.4832 13.3648C18.5057 13.281 18.5732 13.2088 18.6244 13.1335C19.8568 11.295 21.0892 9.45725 22.3224 7.61872C22.3814 7.53025 22.4396 7.44023 22.4854 7.36961C21.4672 6.3514 20.4707 5.35336 19.4564 4.33903C18.7649 4.67197 18.0548 5.02043 17.3377 5.35259C17.2306 5.40226 17.087 5.37354 16.9597 5.3813C16.9652 5.2548 16.9341 5.11356 16.9807 5.00491C17.2717 4.32817 17.5845 3.65997 17.877 2.98401C17.9112 2.90485 17.9073 2.7605 17.8569 2.70307C17.6 2.40971 17.3222 2.13498 17.0676 1.87034C14.8123 4.12717 12.585 6.3545 10.3701 8.57019C13.382 11.5821 16.4095 14.6104 19.409 17.6107H19.4098ZM18.0548 19.0092C15.0358 15.9895 12.0037 12.9573 8.99177 9.94462C8.53078 10.4079 8.05039 10.8899 7.55913 11.3835C8.1668 11.9911 8.79697 12.6104 9.41318 13.2429C9.61495 13.4502 9.81285 13.6729 9.95953 13.9205C10.7302 15.2149 10.339 16.7849 9.03212 17.6456C7.76246 18.4814 6.47418 19.2901 5.20918 20.1337C4.35394 20.7041 3.4925 21.2745 2.6947 21.9202C1.93802 22.5326 1.69589 23.3886 1.94734 24.3346C2.20732 25.3132 2.86543 25.9186 3.86036 26.0955C4.91039 26.2825 5.73769 25.8642 6.33449 25.0075C7.1191 23.879 7.88353 22.7359 8.64641 21.5919C9.26727 20.6599 9.85399 19.7045 10.4896 18.7833C11.1361 17.8466 12.3204 17.4539 13.4146 17.7535C13.9307 17.8947 14.356 18.1764 14.7285 18.5521C15.3626 19.1916 15.9997 19.8272 16.6151 20.4441C17.1149 19.9459 17.5969 19.4655 18.0548 19.0092Z" fill="white"/>
</g>
<defs>
<clipPath id="clip0_92_1326">
<rect width="28" height="28" fill="white"/>
</clipPath>
</defs>
</svg>
