<svg width="18" height="24" viewBox="0 0 18 24" fill="none" xmlns="http://www.w3.org/2000/svg">
<g id="Capa_1" clip-path="url(#clip0_146_2277)">
<path id="Vector" d="M0 12.0038C0 8.77174 0 5.53971 0 2.30768C0.0018731 0.788597 0.785765 0.00751484 2.31234 0.00751484C5.59026 0.0065783 8.86912 0.0121976 12.147 2.24537e-05C12.5366 -0.00185064 12.8214 0.113345 13.0958 0.3915C14.5867 1.90309 16.089 3.40438 17.5996 4.8963C17.875 5.1679 18.0014 5.44699 18.0005 5.84034C17.9892 11.1328 17.9939 16.4262 17.993 21.7186C17.993 23.2077 17.1997 23.9981 15.7078 23.9981C11.2273 23.9991 6.7469 24 2.26645 23.9981C0.802622 23.9981 0.00280965 23.2021 0.0018731 21.7457C0 18.4978 0.0018731 15.2508 0.0018731 12.0028L0 12.0038ZM11.9944 1.01711H11.4708C8.42707 1.01711 5.38328 1.01711 2.3395 1.01711C1.30087 1.01711 1.01147 1.30932 1.01147 2.35732C1.01147 8.78953 1.01147 15.2208 1.01147 21.653C1.01147 22.6982 1.3018 22.9886 2.34418 22.9886C6.77687 22.9886 11.2105 22.9886 15.6432 22.9886C16.6902 22.9886 16.9834 22.6982 16.9834 21.6596C16.9834 16.6172 16.9834 11.5748 16.9834 6.53245C16.9834 6.36762 16.9693 6.20185 16.9609 6.00611C16.015 6.00611 15.1122 6.00892 14.2093 6.00611C12.8111 6.00049 12.0019 5.19225 11.9963 3.79585C11.9925 2.89302 11.9963 1.98925 11.9963 1.01711H11.9944ZM16.0618 4.97872C15.0475 3.96069 14.0248 2.93423 13.018 1.92182C13.018 2.62049 12.9984 3.37909 13.0255 4.13582C13.0414 4.57975 13.3908 4.95062 13.8272 4.96935C14.597 5.00213 15.3688 4.97872 16.0618 4.97872Z" fill="white"/>
<path id="Vector_2" d="M10.0735 9.90944C9.87308 10.6437 9.69233 11.3845 9.46194 12.1094C9.35985 12.4325 9.38139 12.6591 9.63707 12.8942C10.1531 13.3691 10.6598 13.8561 11.1468 14.3609C11.4371 14.6606 11.7574 14.6456 12.1292 14.6072C12.6696 14.5519 13.2212 14.5042 13.7598 14.55C14.7703 14.6362 15.2376 15.3695 14.8939 16.2396C14.6439 16.8736 13.7466 17.2117 13.062 16.8689C12.5357 16.6048 12.0618 16.2368 11.5476 15.9464C11.3791 15.8509 11.1384 15.7844 10.9585 15.8256C10.0782 16.0279 9.21001 16.278 8.3334 16.4962C7.98875 16.5824 7.7799 16.779 7.61694 17.0937C7.14679 18.0022 6.54833 18.8179 5.73822 19.4585C5.10886 19.9567 4.42799 20.1871 3.65721 19.7872C2.94918 19.4201 2.76936 18.668 3.29289 18.0677C3.56355 17.7577 3.91382 17.4927 4.2772 17.2951C5.08451 16.8549 5.92928 16.4859 6.74033 16.0532C6.95105 15.9408 7.17114 15.7329 7.25543 15.5175C7.57854 14.6905 7.86793 13.8495 8.1208 12.9982C8.17325 12.8221 8.05992 12.5496 7.94192 12.3782C7.35189 11.525 6.90516 10.6428 7.02504 9.55449C7.15147 8.40815 7.84733 7.84623 8.92529 8.04384C9.52469 8.15341 9.78973 8.55894 9.90961 9.09558C9.96674 9.35313 9.97517 9.62192 10.0061 9.88509L10.0744 9.90663L10.0735 9.90944ZM8.56285 11.465L8.7127 11.4772C8.7998 10.8113 8.90563 10.1483 8.96463 9.47957C8.98523 9.25105 8.89158 9.01972 8.57315 9.00474C8.26035 8.99069 8.12455 9.1602 8.06086 9.43087C7.88011 10.1998 8.1311 10.8554 8.56285 11.4641V11.465ZM8.95433 13.7015C8.76514 14.2822 8.59469 14.8057 8.39895 15.4042C9.05173 15.229 9.61834 15.0773 10.0716 14.9556C9.71293 14.5529 9.3533 14.1501 8.95339 13.7025L8.95433 13.7015ZM3.96721 18.7842C4.66025 19.1569 5.65674 18.5257 6.13344 17.4618C5.37203 17.8842 4.57409 18.1202 3.96721 18.7842ZM12.8953 15.4885C12.8738 15.5484 12.8522 15.6074 12.8298 15.6673C13.1238 15.7741 13.4151 15.8959 13.7167 15.9745C13.7794 15.9905 13.8843 15.8434 13.9695 15.7713C13.9002 15.702 13.8384 15.5849 13.7588 15.5718C13.4741 15.525 13.1838 15.5138 12.8953 15.4885Z" fill="white"/>
</g>
<defs>
<clipPath id="clip0_146_2277">
<rect width="17.9995" height="24" fill="white"/>
</clipPath>
</defs>
</svg>
