<svg width="28" height="28" viewBox="0 0 28 28" fill="none" xmlns="http://www.w3.org/2000/svg">
<g id="Capa_1" clip-path="url(#clip0_155_823)">
<path id="Vector" d="M0.00224265 13.9793C0.00224265 10.651 -0.00432601 7.32278 0.0044322 3.99453C0.00954115 2.07306 1.16781 0.568443 2.97055 0.126768C3.27343 0.0523035 3.59384 0.0143413 3.90548 0.0136113C7.48686 0.00558085 11.069 0.00777097 14.6503 0.00923106C15.2255 0.00923106 15.5678 0.326069 15.5481 0.823227C15.5335 1.19701 15.2722 1.49413 14.9021 1.54232C14.7584 1.5613 14.6117 1.55692 14.4657 1.55692C11.0296 1.55692 7.59342 1.55692 4.15801 1.55765C2.4852 1.55765 1.54953 2.50086 1.54953 4.18288C1.54953 10.7423 1.54953 17.3017 1.54953 23.8611C1.54953 25.4906 2.50052 26.4499 4.12152 26.4499C10.7019 26.4506 17.2829 26.4506 23.8633 26.4499C25.4835 26.4499 26.4455 25.4869 26.4462 23.867C26.4477 20.4416 26.4462 17.0163 26.4462 13.5909C26.4462 13.4573 26.4425 13.323 26.452 13.1901C26.4834 12.7572 26.7878 12.4652 27.2052 12.4601C27.6191 12.455 27.9439 12.7455 27.9876 13.1668C27.9986 13.2748 27.9935 13.385 27.9935 13.4946C27.9935 16.9564 27.9942 20.4183 27.9935 23.8801C27.9928 26.3425 26.3433 27.9983 23.8895 27.999C17.2603 27.9997 10.6311 28.0012 4.00255 27.9983C1.967 27.9975 0.391253 26.6915 0.0504128 24.727C0.000782943 24.4422 0.0029725 24.1466 0.0029725 23.8553C5.30939e-05 20.5635 0.000782945 17.2718 0.000782945 13.98L0.00224265 13.9793Z" fill="#DA291C"/>
<path id="Vector_2" d="M13.2242 17.1205C12.7505 17.1205 12.2776 17.1263 11.8039 17.119C11.204 17.1095 10.8996 16.8168 10.8945 16.2247C10.8858 15.2654 10.8712 14.3054 10.9062 13.3476C10.9157 13.0957 11.0376 12.7869 11.2135 12.6103C15.2948 8.50306 19.3907 4.40972 23.4859 0.315648C23.9019 -0.0997449 24.3092 -0.104855 24.7252 0.306158C25.709 1.2793 26.6863 2.25902 27.6614 3.24092C28.1256 3.70815 28.1124 4.09945 27.6249 4.58712C24.5449 7.67008 21.4635 10.7523 18.3828 13.8346C17.4128 14.8048 16.4377 15.7699 15.4765 16.7481C15.2196 17.0095 14.935 17.1343 14.5708 17.1234C14.1219 17.1102 13.6731 17.1205 13.2235 17.1205H13.2242ZM26.0893 3.96877C25.3842 3.26282 24.7266 2.60433 24.0654 1.94218C24.0639 1.94364 24.0333 1.96408 24.0077 1.98963C20.214 5.78439 16.4202 9.57987 12.6286 13.3768C12.563 13.4425 12.4732 13.5294 12.4717 13.6075C12.4593 14.2456 12.4644 14.8843 12.4644 15.5531C13.041 15.5531 13.5738 15.5377 14.1044 15.5596C14.373 15.5706 14.5525 15.4757 14.7372 15.291C18.4404 11.5765 22.1488 7.86792 25.8572 4.15932C25.9338 4.08266 26.0265 4.02061 26.0893 3.96877Z" fill="#DA291C"/>
</g>
<defs>
<clipPath id="clip0_155_823">
<rect width="28" height="28" fill="white"/>
</clipPath>
</defs>
</svg>
