<svg width="32" height="32" viewBox="0 0 32 32" fill="none" xmlns="http://www.w3.org/2000/svg">
<g id="Capa_1" clip-path="url(#clip0_155_965)">
<path id="Vector" d="M32 16.2511C31.3715 16.9524 30.793 17.7088 30.1044 18.3459C27.3533 20.8907 24.174 22.6958 20.5473 23.671C17.0166 24.6203 13.5168 24.445 10.0721 23.2469C6.42703 21.9795 3.26943 19.9514 0.651034 17.1027C0.531674 16.9724 0.417323 16.8372 0.303806 16.7011C-0.101014 16.2177 -0.101849 15.7835 0.303806 15.3001C1.17104 14.2673 2.14845 13.3472 3.20933 12.5165C5.77347 10.5085 8.60888 9.04069 11.7782 8.25253C15.5175 7.32243 19.1718 7.64888 22.74 9.04988C26.1781 10.3999 29.1654 12.4096 31.6085 15.1982C31.7563 15.3669 31.8706 15.5656 32 15.7509V16.2511ZM22.3878 16.0156C22.3961 12.4906 19.5616 9.63182 16.04 9.61428C12.4985 9.59675 9.63304 12.4313 9.61551 15.9697C9.59798 19.5064 12.4434 22.376 15.9783 22.3877C19.5157 22.3994 22.3794 19.5523 22.3878 16.0165V16.0156ZM22.6591 20.9734C25.3985 19.7619 27.7298 18.0979 29.7714 16.0156C28.3825 14.3341 24.0513 11.3317 22.7016 11.0954C24.8184 14.3641 24.8159 17.6345 22.6591 20.9725V20.9734ZM9.34507 20.9734C7.18492 17.6362 7.18074 14.36 9.34257 11.0295C6.60398 12.2393 4.27188 13.9024 2.2169 16.0023C4.27772 18.1138 6.60982 19.7669 9.34507 20.9734Z" fill="#DA291C"/>
<path id="Vector_2" d="M16.2513 -0.000141642C16.7763 0.24282 16.9808 0.648592 16.9483 1.22636C16.914 1.83835 16.9432 2.45369 16.9399 3.06736C16.9357 3.66683 16.5426 4.07761 15.9859 4.07093C15.4467 4.06425 15.0669 3.65431 15.0635 3.06652C15.0602 2.45286 15.0911 1.83752 15.0544 1.22552C15.0201 0.645252 15.2296 0.243655 15.7522 -0.000976562H16.2521L16.2513 -0.000141642Z" fill="#DA291C"/>
<path id="Vector_3" d="M7.70166 29.657C7.76426 29.4842 7.806 29.2997 7.89447 29.141C8.27759 28.4506 8.67072 27.7651 9.0672 27.0821C9.37019 26.5603 9.92191 26.3941 10.3952 26.673C10.8551 26.9435 10.9878 27.4962 10.7032 28.0047C10.3017 28.7211 9.89854 29.4366 9.48203 30.1446C9.24999 30.5395 8.82848 30.6957 8.40947 30.5746C7.9963 30.456 7.73588 30.1062 7.70166 29.6579V29.657Z" fill="#DA291C"/>
<path id="Vector_4" d="M24.2667 29.6119C24.26 30.097 24.0105 30.4418 23.6332 30.5654C23.2292 30.6973 22.786 30.5729 22.564 30.2022C22.104 29.4357 21.6583 28.6601 21.2385 27.8719C21.0039 27.4328 21.2001 26.8992 21.6258 26.6613C22.0373 26.4308 22.5932 26.531 22.8444 26.9435C23.3143 27.715 23.7492 28.509 24.1882 29.2996C24.2509 29.4123 24.255 29.5576 24.2675 29.6127L24.2667 29.6119Z" fill="#DA291C"/>
<path id="Vector_5" d="M9.92103 5.45143C9.56879 5.45143 9.29251 5.30031 9.11723 5.00057C8.68153 4.25583 8.24833 3.50941 7.836 2.75213C7.5931 2.30629 7.77506 1.74939 8.20493 1.50643C8.64564 1.25763 9.19235 1.38119 9.46028 1.82871C9.9035 2.56845 10.3367 3.3157 10.7424 4.07632C11.0854 4.71837 10.6347 5.44726 9.92103 5.4506V5.45143Z" fill="#DA291C"/>
<path id="Vector_6" d="M22.0898 5.45139C21.387 5.4539 20.9179 4.74505 21.2451 4.11552C21.6533 3.33237 22.099 2.56841 22.5547 1.81198C22.8218 1.36863 23.3827 1.25926 23.8168 1.51725C24.2274 1.76105 24.4052 2.31042 24.1699 2.74458C23.7542 3.51187 23.316 4.26831 22.8719 5.01974C22.7033 5.30612 22.4287 5.45056 22.089 5.45139H22.0898Z" fill="#DA291C"/>
<path id="Vector_7" d="M15.0627 29.9427C15.0627 29.5895 15.0577 29.2355 15.0635 28.8823C15.0735 28.3296 15.4742 27.928 16.005 27.9297C16.5359 27.9314 16.934 28.3321 16.939 28.889C16.9457 29.6062 16.9465 30.3242 16.939 31.0414C16.9332 31.5917 16.5217 32.0016 15.9983 31.9999C15.475 31.9983 15.0735 31.5866 15.0643 31.0348C15.0585 30.6707 15.0635 30.3067 15.0635 29.9427H15.0627Z" fill="#DA291C"/>
<path id="Vector_8" d="M19.1944 15.9952C19.196 17.7661 17.7746 19.1921 16.0067 19.1946C14.238 19.1971 12.8099 17.7728 12.8082 16.0052C12.8066 14.2352 14.228 12.8091 15.9967 12.8066C17.7671 12.8041 19.1935 14.2268 19.1952 15.9952H19.1944ZM17.3147 15.9902C17.3105 15.2663 16.7237 14.6852 15.9984 14.6869C15.2739 14.6877 14.6896 15.2713 14.6871 15.9952C14.6846 16.7333 15.2797 17.3227 16.0192 17.3152C16.7396 17.3077 17.3197 16.7149 17.3155 15.9902H17.3147Z" fill="#DA291C"/>
</g>
<defs>
<clipPath id="clip0_155_965">
<rect width="32" height="32" fill="white"/>
</clipPath>
</defs>
</svg>
