<svg width="16" height="16" viewBox="0 0 16 16" fill="none" xmlns="http://www.w3.org/2000/svg">
<path id="Vector" d="M8.49991 15.9997H7.49979C7.46505 15.9912 7.43061 15.98 7.39524 15.9746C7.03025 15.9214 6.66151 15.8861 6.30028 15.8138C3.19881 15.1935 0.62793 12.5256 0.124897 9.4118C0.0760654 9.10978 0.0413195 8.80556 0 8.50229C0 8.16897 0 7.83596 0 7.50263C0.0431976 7.18402 0.0751263 6.86322 0.131784 6.54711C0.99824 1.70033 6.13719 -1.22195 10.7697 0.495672C14.567 1.90345 16.71 5.89486 15.7862 9.83871C15.0584 12.946 12.5041 15.355 9.37795 15.8789C9.08652 15.9277 8.79259 15.9599 8.4996 16L8.49991 15.9997ZM3.20101 13.1644C3.41731 12.423 3.77259 11.7767 4.27406 11.213C4.77741 10.6471 5.38342 10.2209 6.08961 9.9182C4.27625 8.69978 4.05619 6.27764 5.33052 4.76532C6.54412 3.32531 8.69117 3.09871 10.1564 4.2705C10.9074 4.8708 11.3603 5.65293 11.4546 6.60814C11.592 7.99996 11.0395 9.09507 9.91416 9.91601C11.371 10.5686 12.3282 11.6433 12.8003 13.1519C14.5053 11.6462 15.6137 8.886 14.773 5.99689C13.9453 3.15411 11.3018 1.07562 8.33213 0.948238C5.25759 0.816162 2.48605 2.62987 1.38765 5.53181C0.334312 8.31419 1.18136 11.3153 3.20069 13.1647L3.20101 13.1644ZM7.98279 15.0639C9.38171 15.0539 10.661 14.6792 11.833 13.9328C11.9617 13.8508 11.9861 13.7735 11.9523 13.6298C11.4583 11.5354 9.50974 10.2118 7.37677 10.5282C5.73214 10.772 4.39301 12.0317 4.03929 13.663C4.01393 13.7804 4.03772 13.8476 4.14447 13.9165C5.31738 14.6714 6.60047 15.0507 7.98311 15.0639H7.98279ZM10.5405 6.9978C10.5405 5.59378 9.40237 4.45485 7.99938 4.45516C6.59609 4.45548 5.45918 5.59378 5.45918 6.99811C5.45918 8.4037 6.5939 9.53793 8.00001 9.53793C9.40581 9.53793 10.5405 8.40339 10.5405 6.99749V6.9978Z" fill="#DA291C"/>
</svg>
