<svg width="24" height="24" viewBox="0 0 24 24" fill="none" xmlns="http://www.w3.org/2000/svg">
<g id="Capa_1" clip-path="url(#clip0_38_36)">
<path id="Vector" d="M0.401185 18.271C2.39691 19.2662 4.42486 20.2799 6.38593 21.2609L7.51338 21.8247C7.8521 21.994 8.19034 22.1629 8.52906 22.3323C9.5584 22.8462 10.6229 23.3777 11.6669 23.9068C11.9085 24.0293 12.1037 24.0307 12.3399 23.9126C13.6167 23.2728 14.8935 22.6339 16.1708 21.995C18.6205 20.7694 21.1531 19.5019 23.6408 18.249C23.7223 18.208 23.8174 18.1085 23.918 18.0026C23.9346 17.9855 23.9512 17.9679 23.9678 17.9503V17.5096C23.8336 17.3476 23.63 17.2387 23.3689 17.1099C22.5133 16.6882 21.647 16.2543 20.809 15.8345C20.5322 15.6959 20.2555 15.5573 19.9783 15.4187C19.927 15.3928 19.8797 15.3665 19.8255 15.3362C19.7991 15.3216 19.7699 15.305 19.7362 15.2864L18.9948 14.8789L19.7376 14.4733C19.7703 14.4552 19.8001 14.4387 19.8279 14.4235C19.8865 14.3908 19.9417 14.3601 20.0002 14.3308L20.7875 13.9369C21.6323 13.5138 22.5065 13.0769 23.3684 12.6508C23.63 12.522 23.8336 12.4127 23.9678 12.2511V11.7616C23.8336 11.5995 23.63 11.4907 23.3689 11.3618C22.5133 10.9401 21.647 10.5063 20.809 10.0865C20.5322 9.9479 20.2555 9.80929 19.9783 9.67067C19.927 9.6448 19.8797 9.61845 19.8255 9.58819C19.7991 9.57355 19.7699 9.55695 19.7362 9.5384L18.9943 9.13038L19.7372 8.72479C19.7704 8.70673 19.8001 8.69013 19.8279 8.67452C19.886 8.6423 19.9412 8.61156 19.9993 8.58227C20.2721 8.4461 20.5444 8.30944 20.8173 8.17278C21.6524 7.7545 22.5158 7.32255 23.3684 6.90232C23.6208 6.77787 23.8301 6.6661 23.9673 6.50162V6.01501C23.8316 5.85346 23.6295 5.74413 23.387 5.62357C20.7977 4.3336 18.1675 3.01824 15.6237 1.74632C14.5753 1.22213 13.5274 0.698431 12.479 0.174241C12.3785 0.12397 12.275 0.0771149 12.1657 0.0273314C12.1447 0.0180581 12.1237 0.00829661 12.1027 -0.00146484H11.9231C11.4487 0.234274 10.9743 0.469525 10.4999 0.705264C9.37196 1.26508 8.20547 1.84394 7.05947 2.41547C6.18143 2.85327 5.30436 3.29205 4.4273 3.73083C3.10901 4.39021 1.74583 5.07205 0.403137 5.73925C0.0732002 5.9047 0.00633422 6.06723 0.00682229 6.261C0.00731036 6.45378 0.0761286 6.61583 0.408994 6.77933C1.29485 7.21518 2.19095 7.66518 3.05825 8.10005C3.37257 8.2577 3.68689 8.41535 4.00121 8.573C4.05636 8.60082 4.11103 8.6301 4.17692 8.66524C4.20766 8.68184 4.24134 8.6999 4.27941 8.71991L5.02958 9.11817L4.28868 9.53352C4.25598 9.55207 4.22621 9.56915 4.19888 9.58477C4.13933 9.61894 4.08272 9.65164 4.02122 9.68239C3.58098 9.90251 3.14074 10.1226 2.70001 10.3427C1.91567 10.7347 1.13085 11.1266 0.347497 11.5205C0.0512369 11.6693 -0.062484 11.9104 0.0346424 12.1818C0.0688075 12.277 0.137138 12.3912 0.384591 12.5142C1.31388 12.9759 2.25684 13.4474 3.16905 13.9037L3.99633 14.3176C4.0505 14.3449 4.10468 14.3733 4.17057 14.4074L5.04178 14.8608L4.29161 15.2806C4.25891 15.2986 4.22963 15.3157 4.2023 15.3313C4.14324 15.365 4.08711 15.3972 4.02659 15.428C3.60441 15.6393 3.18174 15.8502 2.75955 16.0615C1.96351 16.4593 1.14013 16.8707 0.331879 17.2778C0.0497727 17.4198 -0.062484 17.6736 0.0380589 17.9391C0.0878424 18.0704 0.193266 18.1666 0.401673 18.2705L0.401185 18.271ZM4.47269 7.66713L2.67121 6.76664C2.63217 6.74712 2.598 6.72759 2.55847 6.70514C2.53992 6.69441 2.51893 6.68269 2.49404 6.66854L1.7917 6.27515L2.48428 5.86468C2.51064 5.84906 2.53455 5.83442 2.557 5.82027C2.6102 5.78757 2.66535 5.7534 2.72832 5.72216L5.0286 4.57178C7.18296 3.4946 9.41003 2.38082 11.5995 1.28265C11.8763 1.14355 12.1452 1.14355 12.4214 1.28217C14.6856 2.4184 16.9888 3.57025 19.2169 4.68452L21.2712 5.71191C21.3278 5.74022 21.3795 5.76951 21.4396 5.80367C21.4688 5.82027 21.5015 5.83881 21.5391 5.8598L22.3059 6.28686L17.0435 8.91806C15.5305 9.67458 13.9662 10.4565 12.4288 11.2281C12.3551 11.2652 12.2038 11.3413 12.0046 11.3413C11.8929 11.3413 11.766 11.3174 11.6293 11.2486C9.24506 10.0523 6.81885 8.83949 4.47269 7.66616V7.66713ZM4.41265 13.3844L2.69317 12.5244C2.65657 12.5059 2.62045 12.4864 2.56969 12.4585C2.54529 12.4454 2.51698 12.4297 2.48233 12.4107L1.70092 11.9876L3.00359 11.333C3.37745 11.1451 3.73716 10.9641 4.09687 10.784C4.27648 10.6942 4.45609 10.6048 4.6357 10.5155C5.03544 10.3169 5.44932 10.1114 5.85052 9.90348C6.12286 9.76243 6.39325 9.76389 6.67829 9.9069C7.35036 10.2451 8.03464 10.5873 8.69696 10.9182C9.66041 11.3994 10.6561 11.8973 11.6337 12.3931C11.9031 12.5298 12.1096 12.5318 12.3697 12.4C13.8115 11.6693 15.3953 10.8787 17.3539 9.9108C17.5525 9.8127 17.8649 9.76829 18.1153 9.88982C19.007 10.3242 19.907 10.7752 20.7777 11.2115L21.3629 11.5044C21.4117 11.5288 21.4503 11.5537 21.4908 11.58C21.5074 11.5908 21.5269 11.6034 21.5504 11.6176L22.2483 12.051L21.4015 12.4829C21.3307 12.5191 21.2697 12.5503 21.2082 12.581L19.5834 13.3937C17.2373 14.567 14.811 15.7804 12.4258 16.9761C12.318 17.0303 12.175 17.0874 12.0032 17.0874C11.8894 17.0874 11.763 17.062 11.6264 16.9937C9.2231 15.7872 6.77737 14.5646 4.41217 13.382L4.41265 13.3844ZM3.18613 16.9893C4.13445 16.5154 5.03007 16.0678 5.94423 15.6208C6.18485 15.5031 6.47379 15.5622 6.66365 15.6564C8.42266 16.5286 10.0099 17.3178 11.6244 18.1382C11.9002 18.2783 12.113 18.2798 12.3819 18.1431C13.3293 17.6624 14.2952 17.1802 15.2293 16.7136C15.9209 16.3685 16.6359 16.0112 17.3373 15.6579C17.6219 15.5149 17.8986 15.5153 18.1831 15.6598C18.9226 16.0351 19.6776 16.4119 20.4078 16.7765C20.6943 16.9195 20.9808 17.0625 21.2668 17.2055C21.3229 17.2338 21.3756 17.2631 21.4313 17.2944C21.4581 17.3095 21.4869 17.3256 21.5191 17.3432L22.2332 17.7346L21.5318 18.149C21.5059 18.1641 21.483 18.1783 21.462 18.1914C21.4127 18.2217 21.3615 18.2529 21.3039 18.2817L20.6952 18.5863C17.9806 19.9456 15.1732 21.3507 12.4083 22.7261C12.3014 22.7793 12.153 22.8169 11.9983 22.8169C11.8777 22.8169 11.7538 22.7945 11.642 22.7388C8.93562 21.3947 6.18778 20.0207 3.53022 18.6917L2.67951 18.2661C2.63461 18.2437 2.59605 18.2207 2.55115 18.1944C2.52918 18.1817 2.50429 18.167 2.47354 18.1495L1.72191 17.719L3.18515 16.9883L3.18613 16.9893Z" fill="#D4D3D3"/>
</g>
<defs>
<clipPath id="clip0_38_36">
<rect width="23.9678" height="24" fill="white"/>
</clipPath>
</defs>
</svg>
