<svg width="24" height="24" viewBox="0 0 24 24" fill="none" xmlns="http://www.w3.org/2000/svg">
<g id="Capa_1" clip-path="url(#clip0_155_1742)">
<path id="Vector" d="M0.401185 18.2715C2.39691 19.2667 4.42486 20.2804 6.38593 21.2614L7.51338 21.8251C7.8521 21.9945 8.19034 22.1634 8.52906 22.3327C9.5584 22.8467 10.6229 23.3782 11.6669 23.9073C11.9085 24.0298 12.1037 24.0312 12.3399 23.9131C13.6167 23.2733 14.8935 22.6344 16.1708 21.9955C18.6205 20.7699 21.1531 19.5024 23.6408 18.2495C23.7223 18.2085 23.8174 18.109 23.918 18.0031C23.9346 17.986 23.9512 17.9684 23.9678 17.9508V17.5101C23.8336 17.3481 23.63 17.2392 23.3689 17.1104C22.5133 16.6887 21.647 16.2548 20.809 15.835C20.5322 15.6964 20.2555 15.5578 19.9783 15.4192C19.927 15.3933 19.8797 15.367 19.8255 15.3367C19.7991 15.3221 19.7699 15.3055 19.7362 15.2869L18.9948 14.8794L19.7376 14.4738C19.7703 14.4557 19.8001 14.4391 19.8279 14.424C19.8865 14.3913 19.9417 14.3606 20.0002 14.3313L20.7875 13.9374C21.6323 13.5142 22.5065 13.0774 23.3684 12.6513C23.63 12.5225 23.8336 12.4132 23.9678 12.2516V11.7621C23.8336 11.6 23.63 11.4912 23.3689 11.3623C22.5133 10.9406 21.647 10.5067 20.809 10.087C20.5322 9.94839 20.2555 9.80977 19.9783 9.67116C19.927 9.64529 19.8797 9.61894 19.8255 9.58868C19.7991 9.57403 19.7699 9.55744 19.7362 9.53889L18.9943 9.13087L19.7372 8.72528C19.7704 8.70722 19.8001 8.69062 19.8279 8.675C19.886 8.64279 19.9412 8.61204 19.9993 8.58276C20.2721 8.44659 20.5444 8.30993 20.8173 8.17327C21.6524 7.75499 22.5158 7.32304 23.3684 6.90281C23.6208 6.77835 23.8301 6.66659 23.9673 6.5021V6.0155C23.8316 5.85394 23.6295 5.74462 23.387 5.62406C20.7977 4.33409 18.1675 3.01873 15.6237 1.74681C14.5753 1.22262 13.5274 0.69892 12.479 0.17473C12.3785 0.124458 12.275 0.0776031 12.1657 0.0278197C12.1447 0.0185463 12.1237 0.00878489 12.1027 -0.000976562H11.9231C11.4487 0.234763 10.9743 0.470014 10.4999 0.705753C9.37196 1.26557 8.20547 1.84443 7.05947 2.41596C6.18143 2.85376 5.30436 3.29254 4.4273 3.73132C3.10901 4.3907 1.74583 5.07254 0.403137 5.73973C0.0732002 5.90519 0.00633422 6.06772 0.00682229 6.26148C0.00731036 6.45427 0.0761286 6.61631 0.408994 6.77982C1.29485 7.21567 2.19095 7.66567 3.05825 8.10054C3.37257 8.25819 3.68689 8.41584 4.00121 8.57349C4.05636 8.60131 4.11103 8.63059 4.17692 8.66573C4.20766 8.68233 4.24134 8.70038 4.27941 8.7204L5.02958 9.11866L4.28868 9.53401C4.25598 9.55256 4.22621 9.56964 4.19888 9.58526C4.13933 9.61943 4.08272 9.65213 4.02122 9.68287C3.58098 9.903 3.14074 10.1231 2.70001 10.3432C1.91567 10.7352 1.13085 11.1271 0.347497 11.521C0.0512369 11.6698 -0.062484 11.9109 0.0346424 12.1823C0.0688075 12.2775 0.137138 12.3917 0.384591 12.5147C1.31388 12.9764 2.25684 13.4479 3.16905 13.9042L3.99633 14.3181C4.0505 14.3454 4.10468 14.3737 4.17057 14.4079L5.04178 14.8613L4.29161 15.2811C4.25891 15.2991 4.22963 15.3162 4.2023 15.3318C4.14324 15.3655 4.08711 15.3977 4.02659 15.4285C3.60441 15.6398 3.18174 15.8506 2.75955 16.062C1.96351 16.4598 1.14013 16.8712 0.331879 17.2783C0.0497727 17.4203 -0.062484 17.6741 0.0380589 17.9396C0.0878424 18.0709 0.193266 18.167 0.401673 18.271L0.401185 18.2715ZM4.47269 7.66762L2.67121 6.76713C2.63217 6.74761 2.598 6.72808 2.55847 6.70563C2.53992 6.69489 2.51893 6.68318 2.49404 6.66903L1.7917 6.27564L2.48428 5.86517C2.51064 5.84955 2.53455 5.83491 2.557 5.82076C2.6102 5.78805 2.66535 5.75389 2.72832 5.72265L5.0286 4.57227C7.18296 3.49509 9.41003 2.38131 11.5995 1.28314C11.8763 1.14404 12.1452 1.14404 12.4214 1.28265C14.6856 2.41889 16.9888 3.57074 19.2169 4.68501L21.2712 5.7124C21.3278 5.74071 21.3795 5.77 21.4396 5.80416C21.4688 5.82076 21.5015 5.8393 21.5391 5.86029L22.3059 6.28735L17.0435 8.91855C15.5305 9.67507 13.9662 10.457 12.4288 11.2286C12.3551 11.2657 12.2038 11.3418 12.0046 11.3418C11.8929 11.3418 11.766 11.3179 11.6293 11.2491C9.24506 10.0528 6.81885 8.83997 4.47269 7.66665V7.66762ZM4.41265 13.3849L2.69317 12.5249C2.65657 12.5064 2.62045 12.4869 2.56969 12.459C2.54529 12.4459 2.51698 12.4302 2.48233 12.4112L1.70092 11.988L3.00359 11.3335C3.37745 11.1456 3.73716 10.9646 4.09687 10.7845C4.27648 10.6946 4.45609 10.6053 4.6357 10.516C5.03544 10.3174 5.44932 10.1119 5.85052 9.90397C6.12286 9.76292 6.39325 9.76438 6.67829 9.90739C7.35036 10.2456 8.03464 10.5878 8.69696 10.9187C9.66041 11.3999 10.6561 11.8977 11.6337 12.3936C11.9031 12.5303 12.1096 12.5322 12.3697 12.4005C13.8115 11.6698 15.3953 10.8791 17.3539 9.91129C17.5525 9.81319 17.8649 9.76878 18.1153 9.89031C19.007 10.3247 19.907 10.7757 20.7777 11.212L21.3629 11.5049C21.4117 11.5293 21.4503 11.5541 21.4908 11.5805C21.5074 11.5912 21.5269 11.6039 21.5504 11.6181L22.2483 12.0515L21.4015 12.4834C21.3307 12.5196 21.2697 12.5508 21.2082 12.5815L19.5834 13.3942C17.2373 14.5675 14.811 15.7809 12.4258 16.9766C12.318 17.0308 12.175 17.0879 12.0032 17.0879C11.8894 17.0879 11.763 17.0625 11.6264 16.9942C9.2231 15.7877 6.77737 14.5651 4.41217 13.3825L4.41265 13.3849ZM3.18613 16.9898C4.13445 16.5159 5.03007 16.0683 5.94423 15.6213C6.18485 15.5036 6.47379 15.5627 6.66365 15.6569C8.42266 16.5291 10.0099 17.3183 11.6244 18.1387C11.9002 18.2788 12.113 18.2803 12.3819 18.1436C13.3293 17.6629 14.2952 17.1806 15.2293 16.7141C15.9209 16.369 16.6359 16.0117 17.3373 15.6583C17.6219 15.5153 17.8986 15.5158 18.1831 15.6603C18.9226 16.0356 19.6776 16.4124 20.4078 16.777C20.6943 16.92 20.9808 17.063 21.2668 17.206C21.3229 17.2343 21.3756 17.2636 21.4313 17.2949C21.4581 17.31 21.4869 17.3261 21.5191 17.3437L22.2332 17.7351L21.5318 18.1495C21.5059 18.1646 21.483 18.1788 21.462 18.1919C21.4127 18.2222 21.3615 18.2534 21.3039 18.2822L20.6952 18.5868C17.9806 19.9461 15.1732 21.3512 12.4083 22.7266C12.3014 22.7798 12.153 22.8174 11.9983 22.8174C11.8777 22.8174 11.7538 22.795 11.642 22.7393C8.93562 21.3952 6.18778 20.0212 3.53022 18.6922L2.67951 18.2666C2.63461 18.2442 2.59605 18.2212 2.55115 18.1949C2.52918 18.1822 2.50429 18.1675 2.47354 18.15L1.72191 17.7195L3.18515 16.9888L3.18613 16.9898Z" fill="#303D40"/>
</g>
<defs>
<clipPath id="clip0_155_1742">
<rect width="23.9678" height="24" fill="white"/>
</clipPath>
</defs>
</svg>
