<svg width="24" height="24" viewBox="0 0 24 24" fill="none" xmlns="http://www.w3.org/2000/svg">
<path id="Vector" d="M0.400453 18.272C2.39618 19.2672 4.42412 20.2809 6.3852 21.2619L7.51265 21.8256C7.85137 21.995 8.1896 22.1639 8.52833 22.3332C9.55767 22.8472 10.6222 23.3787 11.6661 23.9078C11.9077 24.0303 12.103 24.0317 12.3392 23.9136C13.616 23.2737 14.8928 22.6349 16.1701 21.996C18.6197 20.7704 21.1523 19.5029 23.64 18.25C23.7215 18.209 23.8167 18.1095 23.9173 18.0035C23.9339 17.9865 23.9504 17.9689 23.967 17.9513V17.5106C23.8328 17.3485 23.6293 17.2397 23.3682 17.1109C22.5126 16.6892 21.6463 16.2553 20.8082 15.8355C20.5315 15.6969 20.2548 15.5583 19.9775 15.4197C19.9263 15.3938 19.8789 15.3675 19.8248 15.3372C19.7984 15.3226 19.7691 15.306 19.7355 15.2874L18.9941 14.8799L19.7369 14.4743C19.7696 14.4562 19.7994 14.4396 19.8272 14.4245C19.8858 14.3918 19.9409 14.3611 19.9995 14.3318L20.7868 13.9379C21.6316 13.5147 22.5058 13.0779 23.3677 12.6518C23.6293 12.523 23.8328 12.4136 23.967 12.2521V11.7626C23.8328 11.6005 23.6293 11.4917 23.3682 11.3628C22.5126 10.9411 21.6463 10.5072 20.8082 10.0875C20.5315 9.94887 20.2548 9.81026 19.9775 9.67165C19.9263 9.64578 19.8789 9.61943 19.8248 9.58916C19.7984 9.57452 19.7691 9.55793 19.7355 9.53938L18.9936 9.13135L19.7364 8.72576C19.7696 8.70771 19.7994 8.69111 19.8272 8.67549C19.8853 8.64328 19.9404 8.61253 19.9985 8.58325C20.2714 8.44707 20.5437 8.31041 20.8165 8.17375C21.6516 7.75548 22.515 7.32353 23.3677 6.9033C23.62 6.77884 23.8294 6.66707 23.9666 6.50259V6.01598C23.8309 5.85443 23.6288 5.7451 23.3862 5.62455C20.797 4.33457 18.1668 3.01922 15.623 1.7473C14.5746 1.22311 13.5267 0.699408 12.4783 0.175218C12.3778 0.124946 12.2743 0.0780914 12.165 0.028308C12.144 0.0190346 12.123 0.00927317 12.102 -0.000488281H11.9224C11.448 0.235251 10.9736 0.470502 10.4992 0.706241C9.37123 1.26606 8.20473 1.84491 7.05874 2.41645C6.1807 2.85425 5.30363 3.29303 4.42656 3.7318C3.10828 4.39119 1.74509 5.07303 0.402405 5.74022C0.0724678 5.90568 0.0056018 6.06821 0.00608987 6.26197C0.00657794 6.45476 0.0753962 6.6168 0.408262 6.78031C1.29411 7.21616 2.19022 7.66616 3.05752 8.10103C3.37184 8.25868 3.68616 8.41633 4.00048 8.57397C4.05563 8.60179 4.11029 8.63108 4.17618 8.66622C4.20693 8.68281 4.24061 8.70087 4.27868 8.72088L5.02885 9.11915L4.28795 9.5345C4.25525 9.55305 4.22548 9.57013 4.19815 9.58575C4.1386 9.61991 4.08198 9.65261 4.02049 9.68336C3.58025 9.90348 3.14 10.1236 2.69928 10.3437C1.91494 10.7356 1.13012 11.1276 0.346765 11.5214C0.0505045 11.6703 -0.0632165 11.9114 0.03391 12.1828C0.0680751 12.278 0.136405 12.3922 0.383858 12.5152C1.31315 12.9769 2.2561 13.4484 3.16831 13.9047L3.9956 14.3186C4.04977 14.3459 4.10395 14.3742 4.16984 14.4084L5.04105 14.8618L4.29088 15.2816C4.25818 15.2996 4.22889 15.3167 4.20156 15.3323C4.14251 15.366 4.08638 15.3982 4.02586 15.429C3.60367 15.6403 3.181 15.8511 2.75882 16.0625C1.96277 16.4603 1.13939 16.8717 0.331146 17.2788C0.0490403 17.4208 -0.0632165 17.6746 0.0373265 17.9401C0.0871099 18.0714 0.192534 18.1675 0.400941 18.2715L0.400453 18.272ZM4.47195 7.66811L2.67048 6.76762C2.63143 6.74809 2.59727 6.72857 2.55773 6.70612C2.53919 6.69538 2.5182 6.68367 2.49331 6.66951L1.79097 6.27613L2.48355 5.86566C2.5099 5.85004 2.53382 5.8354 2.55627 5.82124C2.60947 5.78854 2.66462 5.75438 2.72758 5.72314L5.02787 4.57275C7.18222 3.49558 9.4093 2.38179 11.5988 1.28363C11.8755 1.14453 12.1445 1.14453 12.4207 1.28314C14.6849 2.41938 16.9881 3.57123 19.2161 4.6855L21.2704 5.71289C21.3271 5.7412 21.3788 5.77048 21.4388 5.80465C21.4681 5.82124 21.5008 5.83979 21.5384 5.86078L22.3052 6.28784L17.0428 8.91904C15.5297 9.67555 13.9655 10.4574 12.428 11.2291C12.3543 11.2662 12.203 11.3423 12.0039 11.3423C11.8921 11.3423 11.7652 11.3184 11.6286 11.2496C9.24433 10.0533 6.81812 8.84046 4.47195 7.66713V7.66811ZM4.41192 13.3854L2.69244 12.5254C2.65584 12.5069 2.61972 12.4873 2.56896 12.4595C2.54456 12.4463 2.51625 12.4307 2.48159 12.4117L1.70019 11.9885L3.00286 11.334C3.37672 11.1461 3.73643 10.965 4.09614 10.7849C4.27575 10.6951 4.45536 10.6058 4.63497 10.5165C5.0347 10.3179 5.44859 10.1124 5.84978 9.90446C6.12213 9.76341 6.39252 9.76487 6.67756 9.90788C7.34963 10.2461 8.03391 10.5883 8.69622 10.9192C9.65968 11.4004 10.6553 11.8982 11.633 12.3941C11.9024 12.5308 12.1088 12.5327 12.369 12.401C13.8107 11.6703 15.3945 10.8796 17.3532 9.91178C17.5518 9.81368 17.8642 9.76926 18.1146 9.89079C19.0063 10.3252 19.9063 10.7762 20.777 11.2125L21.3622 11.5053C21.411 11.5297 21.4496 11.5546 21.4901 11.581C21.5067 11.5917 21.5262 11.6044 21.5496 11.6186L22.2476 12.052L21.4008 12.4839C21.33 12.52 21.269 12.5513 21.2075 12.582L19.5827 13.3947C17.2365 14.568 14.8103 15.7813 12.4251 16.9771C12.3172 17.0313 12.1742 17.0884 12.0024 17.0884C11.8887 17.0884 11.7623 17.063 11.6256 16.9947C9.22237 15.7882 6.77663 14.5656 4.41143 13.383L4.41192 13.3854ZM3.1854 16.9903C4.13372 16.5164 5.02933 16.0688 5.94349 15.6217C6.18411 15.5041 6.47305 15.5632 6.66291 15.6574C8.42193 16.5296 10.0091 17.3188 11.6237 18.1392C11.8994 18.2793 12.1122 18.2808 12.3812 18.1441C13.3285 17.6634 14.2944 17.1811 15.2286 16.7145C15.9202 16.3695 16.6352 16.0122 17.3366 15.6588C17.6211 15.5158 17.8979 15.5163 18.1824 15.6608C18.9218 16.0361 19.6769 16.4129 20.407 16.7775C20.6935 16.9205 20.98 17.0635 21.2661 17.2065C21.3222 17.2348 21.3749 17.2641 21.4305 17.2953C21.4574 17.3105 21.4862 17.3266 21.5184 17.3442L22.2324 17.7356L21.5311 18.15C21.5052 18.1651 21.4823 18.1792 21.4613 18.1924C21.412 18.2227 21.3607 18.2539 21.3031 18.2827L20.6945 18.5873C17.9799 19.9466 15.1725 21.3517 12.4075 22.7271C12.3006 22.7803 12.1523 22.8179 11.9975 22.8179C11.877 22.8179 11.753 22.7954 11.6413 22.7398C8.93489 21.3956 6.18704 20.0217 3.52949 18.6927L2.67878 18.2671C2.63387 18.2446 2.59532 18.2217 2.55041 18.1954C2.52845 18.1827 2.50356 18.168 2.47281 18.1504L1.72118 17.72L3.18442 16.9893L3.1854 16.9903Z" fill="#DA291C"/>
</svg>
