<svg width="25" height="24" viewBox="0 0 25 24" fill="none" xmlns="http://www.w3.org/2000/svg">
<g id="Capa_1" clip-path="url(#clip0_91_395)">
<path id="Vector" d="M24.0109 20.2971C23.9977 20.3249 23.9785 20.3507 23.9719 20.3798C23.8014 21.166 23.3205 21.677 22.5686 21.9292C20.628 22.5801 18.6846 23.2226 16.7421 23.8679C16.6031 23.9139 16.4632 23.9562 16.3232 23.9999H15.7141C15.7023 23.9905 15.6915 23.9754 15.6779 23.9721C14.5353 23.6645 14.0158 22.9887 14.0154 21.8071C14.0154 21.5441 14.0154 21.2811 14.0154 21.0002H13.7312C12.7708 21.0002 11.8099 21.0012 10.8495 21.0002C9.21695 20.9983 8.02264 19.8134 8.017 18.1828C8.0123 16.7457 8.01606 15.3085 8.01606 13.8714C8.01606 13.8089 8.01606 13.7465 8.02076 13.684C8.04565 13.3708 8.26732 13.1068 8.56978 13.0289C9.07935 12.8969 9.5133 13.2599 9.51471 13.8315C9.51847 15.2766 9.51377 16.7212 9.51706 18.1663C9.51894 18.9831 10.0356 19.4987 10.848 19.5002C11.8244 19.502 12.8008 19.5011 13.7768 19.5002C13.8514 19.5002 13.9261 19.4922 14.0158 19.487C14.0158 19.3654 14.0158 19.2649 14.0158 19.1644C14.0158 14.1734 14.0158 9.1829 14.0172 4.19194C14.0172 4.00502 14.0135 3.81341 14.0515 3.63259C14.2117 2.868 14.6682 2.35092 15.4055 2.09261C15.9517 1.901 16.5026 1.723 17.0516 1.5389C17.0484 1.52669 17.0455 1.51401 17.0422 1.5018H16.8323C14.8565 1.5018 12.8802 1.51823 10.9044 1.49334C10.1478 1.48395 9.48888 2.01277 9.50767 2.89712C9.53772 4.30231 9.51988 5.70891 9.51002 7.11457C9.50861 7.29445 9.46869 7.49264 9.38509 7.6495C9.22682 7.94491 8.87599 8.06044 8.55569 7.97074C8.23257 7.88057 8.01888 7.60066 8.01841 7.23433C8.01465 5.75024 8.00996 4.26662 8.01841 2.78253C8.02686 1.19324 9.22541 0.00361536 10.8166 0.00220642C14.5498 -0.00155077 18.2831 0.000327822 22.0163 0.00173677C22.8851 0.00173677 23.6582 0.576587 23.9184 1.40505C23.948 1.49992 23.9799 1.59385 24.0109 1.68825C24.0109 7.89137 24.0109 14.094 24.0109 20.2971ZM15.5154 21.7253C15.5154 21.7958 15.5145 21.8658 15.5154 21.9362C15.5253 22.3749 15.8202 22.5923 16.2382 22.4542C17.4823 22.0442 18.7241 21.6281 19.9667 21.2144C20.6548 20.9852 21.3428 20.7565 22.0304 20.5273C22.4131 20.3995 22.5108 20.2638 22.5108 19.8585C22.5108 13.9545 22.5108 8.05058 22.5108 2.14662C22.5108 1.60324 22.2239 1.39847 21.7059 1.57083C19.8052 2.20345 17.905 2.83701 16.0048 3.47009C15.6065 3.60254 15.5159 3.72887 15.5159 4.15437C15.5159 7.10612 15.5159 10.0583 15.5159 13.0101C15.5159 15.9149 15.5159 18.8201 15.5159 21.7249L15.5154 21.7253Z" fill="#D4D3D3"/>
<path id="Vector_2" d="M2.58302 9.75063C2.67225 9.65529 2.72298 9.59893 2.77652 9.54492C3.51058 8.80992 4.24605 8.07633 4.97964 7.34086C5.33188 6.98768 5.35489 6.534 5.04022 6.21981C4.7265 5.90655 4.27282 5.93004 3.91917 6.28274C2.69668 7.50148 1.47512 8.72116 0.254501 9.94131C-0.0850551 10.2809 -0.0845855 10.72 0.25638 11.061C1.47747 12.2811 2.69902 13.5003 3.92152 14.719C4.27611 15.0722 4.72932 15.0938 5.0421 14.7782C5.35489 14.4626 5.33 14.0113 4.97682 13.6572C4.24323 12.9217 3.50776 12.1881 2.7737 11.4531C2.72063 11.4 2.67131 11.3432 2.58537 11.2507C2.71311 11.2507 2.79483 11.2507 2.87655 11.2507C5.31356 11.2507 7.7501 11.2516 10.1871 11.2502C10.7526 11.2502 11.1184 10.8097 10.9818 10.302C10.9005 10.0005 10.6389 9.78116 10.3228 9.75486C10.2374 9.74781 10.1509 9.75157 10.065 9.75157C7.67495 9.75157 5.28491 9.75157 2.89487 9.75157H2.58255L2.58302 9.75063Z" fill="#D4D3D3"/>
</g>
<defs>
<clipPath id="clip0_91_395">
<rect width="24.0108" height="24" fill="white"/>
</clipPath>
</defs>
</svg>
