<svg width="25" height="22" viewBox="0 0 25 22" fill="none" xmlns="http://www.w3.org/2000/svg">
<g id="Capa_1" clip-path="url(#clip0_155_1757)">
<path id="Vector" d="M24.9759 17.6669C24.9482 17.7463 24.9186 17.8252 24.8933 17.9055C24.6684 18.6197 24.0325 19.1043 23.2845 19.1198C22.8548 19.1287 22.4252 19.1339 21.9955 19.1212C21.8138 19.116 21.6931 19.1785 21.5724 19.3071C21 19.9162 20.4192 20.5177 19.8406 21.1211C19.4814 21.4958 19.2283 21.4888 18.8874 21.0972C18.385 20.5196 17.8755 19.9481 17.3829 19.3621C17.243 19.1954 17.0974 19.1395 16.8833 19.1414C15.3914 19.1555 13.8991 19.1611 12.4073 19.1588C11.508 19.1573 10.8074 18.5704 10.6539 17.7059C10.628 17.5613 10.6309 17.4105 10.6309 17.2621C10.6285 15.2932 10.628 13.3243 10.6271 11.3553C10.6271 11.2633 10.6271 11.1713 10.6271 11.0501C10.1796 11.0501 9.74994 11.0802 9.32685 11.0412C8.93335 11.005 8.68165 11.144 8.44217 11.4483C8.00312 12.0067 7.52368 12.533 7.05692 13.0693C6.77565 13.3924 6.50095 13.3971 6.20042 13.0876C5.61251 12.4823 5.02413 11.8775 4.4442 11.2652C4.30662 11.1196 4.16856 11.0445 3.96054 11.0548C3.57878 11.0731 3.19513 11.0637 2.81243 11.0619C1.73945 11.0567 1.00128 10.3293 0.994234 9.25165C0.982964 7.57198 0.983903 5.89184 0.979677 4.21217C0.978268 3.61064 0.973572 3.00865 0.977799 2.40712C0.984842 1.39471 1.72818 0.654194 2.74293 0.643864C2.95377 0.641516 3.16508 0.638229 3.37545 0.646212C3.65297 0.656542 3.8469 0.855642 3.85301 1.12236C3.85911 1.38814 3.67363 1.60462 3.3994 1.62434C3.18152 1.63983 2.96222 1.62669 2.7434 1.63091C2.29355 1.63983 1.99725 1.9244 1.96907 2.3719C1.96532 2.43435 1.96672 2.49681 1.96719 2.55926C1.97706 4.77848 1.98692 6.99722 1.99772 9.21643C2.00053 9.7973 2.27993 10.072 2.86502 10.0725C3.35714 10.0725 3.84972 10.079 4.34137 10.0678C4.56254 10.0626 4.72877 10.1368 4.8795 10.2946C5.40777 10.8487 5.94262 11.3967 6.47559 11.9461C6.51221 11.9841 6.55307 12.0179 6.60848 12.0686C6.96911 11.6517 7.32035 11.2459 7.67113 10.8398C7.81435 10.6745 7.96367 10.5139 8.09656 10.3406C8.25246 10.1377 8.44499 10.0574 8.70231 10.0574C10.7177 10.0551 12.7332 10.0434 14.7486 10.0344C15.0219 10.033 15.2956 10.0368 15.5689 10.0302C16.0033 10.0203 16.3104 9.72498 16.3104 9.29016C16.3108 6.9775 16.3071 4.66437 16.2982 2.35171C16.2963 1.90139 15.9737 1.591 15.5187 1.59194C12.8862 1.59757 10.2533 1.60743 7.62088 1.61588C7.4725 1.61635 7.32411 1.62058 7.17572 1.61729C6.82589 1.60931 6.60801 1.42242 6.60237 1.13081C6.59674 0.830755 6.81744 0.629307 7.17948 0.625081C7.87445 0.616628 8.56989 0.616159 9.26534 0.61475C11.3207 0.609585 13.3755 0.604889 15.4299 0.602541C16.5644 0.601132 17.2899 1.32475 17.2946 2.45877C17.3031 4.4432 17.3106 6.42809 17.3186 8.41252C17.3186 8.50456 17.3186 8.59612 17.3186 8.71399C17.4336 8.71399 17.5252 8.71399 17.6167 8.71399C19.4133 8.71164 21.2104 8.70835 23.007 8.70647C24.1227 8.70553 24.7008 9.17182 24.9463 10.2669C24.9529 10.296 24.9661 10.3242 24.9759 10.3528V17.6664V17.6669ZM11.617 11.0412C11.617 11.1605 11.617 11.238 11.617 11.315C11.6179 13.2994 11.6184 15.2838 11.6198 17.2678C11.6198 17.8942 11.895 18.1712 12.5171 18.1703C14.0869 18.1684 15.6572 18.1689 17.227 18.1581C17.5073 18.1562 17.713 18.2403 17.8966 18.4586C18.3774 19.032 18.8775 19.5889 19.4053 20.1928C19.4744 20.1035 19.5256 20.0242 19.5894 19.957C20.0792 19.4419 20.5765 18.9338 21.0606 18.4131C21.239 18.221 21.4349 18.1309 21.6983 18.1374C22.1899 18.1496 22.6825 18.1421 23.1746 18.1379C23.6771 18.1341 23.9846 17.836 23.9842 17.3377C23.9818 15.0645 23.9762 12.7908 23.9668 10.5176C23.9645 9.9856 23.6644 9.69728 23.1319 9.69681C22.4134 9.69634 21.6945 9.69822 20.9761 9.7001C19.8125 9.70338 18.6484 9.70761 17.4848 9.71231C17.3801 9.71231 17.2843 9.69164 17.2284 9.84238C16.9255 10.6576 16.3174 11.0346 15.4595 11.0351C14.6786 11.0356 13.8972 11.0384 13.1163 11.0398C12.6256 11.0407 12.1354 11.0398 11.6174 11.0398L11.617 11.0412Z" fill="#DA291C"/>
<path id="Vector_2" d="M9.15822 3.09863C9.75834 3.12869 9.91283 3.3353 10.0316 3.73772C10.45 5.15021 10.891 6.55565 11.3253 7.96296C11.392 8.17944 11.4488 8.38511 11.222 8.55275C10.96 8.74622 10.5364 8.83027 10.3434 8.69268C10.2692 8.63962 10.2143 8.5382 10.1847 8.44757C10.1096 8.21841 10.0467 7.9841 9.9936 7.74884C9.96636 7.6291 9.91893 7.58214 9.79121 7.58449C9.37 7.592 8.94785 7.5812 8.52664 7.59388C8.46231 7.59576 8.36511 7.67371 8.34351 7.73757C8.26321 7.9733 8.20498 8.21654 8.14394 8.45837C8.0951 8.65277 7.96644 8.76218 7.77532 8.75185C7.60017 8.74199 7.41657 8.711 7.25597 8.64432C6.94652 8.51612 6.88219 8.34989 6.97986 8.03011C7.41328 6.60589 7.84811 5.18214 8.28246 3.75839C8.43367 3.26298 8.64873 3.10051 9.15869 3.09957L9.15822 3.09863ZM9.67522 6.6181C9.50524 5.9884 9.34042 5.37654 9.17513 4.76469C9.16245 4.76469 9.14977 4.76469 9.13709 4.76422C8.9718 5.37513 8.80651 5.98652 8.63605 6.6181H9.67569H9.67522Z" fill="#DA291C"/>
<path id="Vector_3" d="M5.26114 1.63788C4.98033 1.63976 4.76245 1.41999 4.76245 1.13543C4.76245 0.861669 4.97611 0.648012 5.24893 0.649421C5.52598 0.65036 5.75654 0.879983 5.75372 1.15234C5.75091 1.41952 5.53115 1.636 5.26067 1.63788H5.26114Z" fill="#DA291C"/>
<path id="Vector_4" d="M19.0027 14.1991C18.6862 14.8161 18.3298 15.3914 17.8457 15.8788C17.8072 15.9173 17.7931 16.0042 17.803 16.0624C17.8382 16.2695 17.8307 16.4615 17.6269 16.5752C17.4217 16.6893 17.2094 16.7428 16.9915 16.5794C16.9446 16.5442 16.854 16.5559 16.7849 16.563C16.5469 16.5879 16.3069 16.6597 16.0731 16.6423C15.572 16.6048 15.2748 16.2789 15.2236 15.775C15.1428 14.9814 15.4861 14.3874 16.097 13.9193C16.1402 13.8859 16.182 13.8441 16.2313 13.8268C16.645 13.6807 16.6633 13.3572 16.6023 12.9529C16.3717 12.9529 16.1313 12.9717 15.8946 12.9482C15.5814 12.9172 15.4945 12.7989 15.4988 12.4842C15.5025 12.1809 15.6138 12.064 15.9261 12.0546C16.1665 12.0471 16.4074 12.0532 16.6581 12.0532C16.6896 11.8996 16.7107 11.7461 16.7535 11.5991C16.8361 11.3155 17.0221 11.2173 17.3348 11.2779C17.5837 11.3258 17.6743 11.4615 17.6555 11.7602C17.6508 11.8372 17.6424 11.9137 17.6311 12.0377C18.0706 11.9832 18.4923 11.9315 18.9145 11.879C18.9994 11.8682 19.084 11.8527 19.1694 11.8442C19.4545 11.816 19.6075 11.9123 19.6653 12.1527C19.7296 12.4194 19.6207 12.658 19.3469 12.7125C18.9276 12.796 18.4993 12.8322 18.0739 12.8848C17.9049 12.9054 17.7344 12.9153 17.5494 12.9317C17.5409 13.0463 17.5339 13.1454 17.525 13.267C17.7987 13.2468 18.0589 13.2304 18.3186 13.2064C18.3496 13.2036 18.381 13.167 18.4054 13.1398C18.6797 12.8341 19.1352 12.8993 19.2976 13.2656C19.3197 13.3154 19.3638 13.3736 19.4113 13.391C20.7209 13.8643 20.6721 15.5989 19.8221 16.3686C19.5395 16.6245 19.222 16.8165 18.8407 16.8818C18.5618 16.9292 18.3402 16.7917 18.2603 16.532C18.1814 16.2742 18.2843 16.0793 18.5533 15.9497C18.7421 15.8591 18.9407 15.7764 19.107 15.6525C19.6226 15.2684 19.5737 14.4997 19.0023 14.1991H19.0027ZM16.6196 14.6649C16.5971 14.6504 16.5746 14.6354 16.552 14.6208C16.49 14.7011 16.4327 14.7856 16.3651 14.8617C16.1923 15.0561 16.081 15.2721 16.1078 15.5407C16.1228 15.6919 16.2116 15.7807 16.3595 15.7412C16.5004 15.7036 16.7248 15.7365 16.7126 15.4966C16.6985 15.2186 16.6516 14.942 16.6192 14.6649H16.6196ZM17.5602 14.8387C17.5818 14.8453 17.6039 14.8518 17.6255 14.8584C17.7814 14.602 17.9373 14.3461 18.0932 14.0897C18.08 14.0733 18.0664 14.0568 18.0533 14.0404C17.8776 14.0784 17.7015 14.1165 17.5123 14.1573C17.5297 14.402 17.5447 14.6203 17.5602 14.8387Z" fill="#DA291C"/>
</g>
<defs>
<clipPath id="clip0_155_1757">
<rect width="24" height="20.7942" fill="white" transform="translate(0.97583 0.602539)"/>
</clipPath>
</defs>
</svg>
