<svg width="26" height="24" viewBox="0 0 26 24" fill="none" xmlns="http://www.w3.org/2000/svg">
<g id="Capa_1" clip-path="url(#clip0_155_1752)">
<path id="Vector" d="M0 12.8626C0.0762276 12.4835 0.128062 12.0978 0.232748 11.7263C0.564592 10.5438 1.22218 9.57011 2.18926 8.81241C2.3346 8.69857 2.34933 8.57966 2.3285 8.41958C2.06475 6.38735 3.15328 4.59753 5.06863 3.91809C5.69318 3.69652 6.33858 3.6396 6.9921 3.74378C7.14913 3.76868 7.21672 3.71329 7.29295 3.59438C8.77888 1.2796 10.9061 0.0787594 13.6483 0.00253186C16.6288 -0.0803021 19.56 1.87773 20.644 4.65191C20.8274 5.12096 20.9357 5.61898 21.0932 6.09921C21.1211 6.18459 21.2065 6.28572 21.2878 6.31316C23.7688 7.14811 25.2872 8.86221 25.8274 11.4016C26.2446 13.3622 25.7725 15.1601 24.5554 16.7467C23.5543 18.0512 22.2351 18.8658 20.614 19.1743C20.3741 19.22 20.1287 19.2561 19.8852 19.2576C18.5838 19.2658 17.2818 19.2642 15.9803 19.2597C15.5362 19.2581 15.2318 18.9807 15.2145 18.5822C15.1957 18.1452 15.5082 17.8301 15.9793 17.8281C17.1202 17.824 18.2616 17.8271 19.4025 17.8266C21.3087 17.8256 22.7529 16.9632 23.7373 15.3756C25.3431 12.7859 24.4137 9.44814 21.7188 8.02777C21.3432 7.83009 20.9204 7.70965 20.5078 7.59836C19.9752 7.45454 19.7988 7.28735 19.7323 6.74461C19.4055 4.09036 17.4048 1.9875 14.7648 1.52251C12.168 1.06514 9.53404 2.36101 8.32304 4.69205C8.00085 5.31255 7.77572 5.41215 7.10441 5.23174C5.42435 4.77997 3.78038 5.98233 3.72448 7.72184C3.71533 8.011 3.78343 8.30778 3.85 8.59338C3.97603 9.13714 3.90844 9.36633 3.44498 9.67022C2.36051 10.3812 1.69124 11.3716 1.4966 12.6502C1.11953 15.123 2.95661 17.6182 5.42334 17.824C5.62509 17.8408 5.82887 17.8296 6.03163 17.8296C7.3585 17.8301 8.68588 17.8276 10.0127 17.8322C10.3995 17.8337 10.6891 18.0832 10.7455 18.4379C10.7989 18.7723 10.6033 19.1174 10.2785 19.219C10.1454 19.2607 9.99598 19.2637 9.85369 19.2642C8.43382 19.2673 7.01345 19.2724 5.59358 19.2612C5.27495 19.2586 4.95124 19.222 4.63972 19.1565C2.93934 18.7992 1.71207 17.79 0.833422 16.3274C0.397908 15.6023 0.138226 14.8115 0.0447202 13.9684C0.0391302 13.9197 0.0152455 13.8729 0 13.8256C0 13.5045 0 13.1833 0 12.8621L0 12.8626Z" fill="white"/>
<path id="Vector_2" d="M12.1821 11.3936C12.1287 11.4694 12.085 11.5552 12.0205 11.6198C11.2582 12.3871 10.4944 13.1525 9.72757 13.9152C9.39115 14.2496 8.97495 14.2679 8.67105 13.9717C8.36665 13.6749 8.38189 13.2312 8.71882 12.8933C9.95371 11.6548 11.1901 10.4179 12.4291 9.18304C12.7894 8.82375 13.1812 8.82121 13.541 9.17898C14.7865 10.4189 16.029 11.662 17.269 12.907C17.5937 13.2333 17.6034 13.6764 17.3087 13.9686C17.0088 14.2654 16.5845 14.2501 16.2506 13.9188C15.4833 13.1565 14.72 12.3907 13.9572 11.6238C13.8926 11.5588 13.8479 11.4744 13.7935 11.3987C13.7641 11.413 13.7341 11.4272 13.7046 11.4409V11.7235C13.7046 15.4916 13.7046 19.2603 13.7046 23.0285C13.7046 23.1383 13.7072 23.2486 13.697 23.3578C13.6614 23.7313 13.3469 24.0083 12.9749 24.0002C12.611 23.9925 12.3107 23.7186 12.2761 23.3583C12.2665 23.2577 12.27 23.1556 12.27 23.0544C12.27 19.2776 12.27 15.5008 12.27 11.724V11.4511C12.241 11.4323 12.2121 11.4135 12.1826 11.3941L12.1821 11.3936Z" fill="white"/>
</g>
<defs>
<clipPath id="clip0_155_1752">
<rect width="25.9758" height="24" fill="white"/>
</clipPath>
</defs>
</svg>
