<svg width="25" height="24" viewBox="0 0 25 24" fill="none" xmlns="http://www.w3.org/2000/svg">
<g id="Capa_1" clip-path="url(#clip0_149_291)">
<path id="Vector" d="M0 11.1562C0.0605859 10.741 0.105203 10.323 0.184576 9.91158C0.924287 6.08575 3.00628 3.22976 6.43056 1.37696C8.28853 0.371418 10.2973 -0.0545621 12.4084 0.0055541C12.5558 0.00978102 12.7033 0.0257494 12.8799 0.0384302C12.8437 0.536268 12.8085 1.02049 12.7728 1.51644C9.80599 1.36709 7.20033 2.22469 4.992 4.18739C3.30733 5.68513 2.22101 7.55531 1.74478 9.75801C0.758968 14.3156 2.82358 18.8792 6.89317 21.1726C10.9862 23.4791 16.532 22.8117 19.9605 18.867C20.3301 19.1855 20.6997 19.5039 21.1205 19.8665C20.5842 20.3648 20.092 20.8772 19.5444 21.321C17.6169 22.884 15.4076 23.7623 12.9311 23.9619C12.87 23.967 12.8099 23.9863 12.7493 23.999H11.2023C11.1422 23.9854 11.083 23.9638 11.0224 23.9591C9.83887 23.8675 8.68914 23.6167 7.59578 23.1583C3.62106 21.4938 1.16381 18.55 0.23389 14.3414C0.121641 13.8342 0.0765543 13.3119 0 12.7967C0 12.25 0 11.7029 0 11.1562Z" fill="white"/>
<path id="Vector_2" d="M10.4996 9.35126C10.4996 8.00005 10.4973 6.64885 10.5006 5.29717C10.502 4.72372 11.0097 4.35551 11.5178 4.55089C11.8067 4.66172 11.9941 4.93178 11.9978 5.26242C12.003 5.69215 11.9992 6.12142 11.9992 6.55116C11.9992 8.62094 12.003 10.6912 11.9936 12.761C11.9927 12.9831 12.0518 13.1038 12.2505 13.2156C13.76 14.0652 15.2601 14.9308 16.7658 15.7875C16.972 15.9044 17.1368 16.0491 17.1993 16.2829C17.282 16.5901 17.2049 16.8569 16.9612 17.0645C16.7109 17.2777 16.3981 17.3021 16.0881 17.1269C15.307 16.6854 14.5293 16.2379 13.7501 15.7931C12.8423 15.2746 11.9391 14.7472 11.0242 14.2409C10.6556 14.0366 10.4893 13.7609 10.494 13.3354C10.5081 12.0076 10.4992 10.6795 10.4992 9.35173L10.4996 9.35126Z" fill="white"/>
<path id="Vector_3" d="M17.9255 1.54149C18.4215 1.87259 18.8972 2.19055 19.3955 2.52307C19.0729 2.93731 18.7737 3.32149 18.4722 3.70802C18.0401 3.41871 17.6226 3.13879 17.1858 2.8462C17.4263 2.42209 17.6663 1.99846 17.926 1.54102L17.9255 1.54149Z" fill="white"/>
<path id="Vector_4" d="M21.8268 5.07819C21.4003 5.37924 21.0058 5.65727 20.6005 5.94283C20.2741 5.5455 19.951 5.15145 19.6194 4.74755C19.9702 4.41268 20.3192 4.07969 20.7034 3.71289C21.0805 4.17128 21.4482 4.61745 21.8268 5.07819Z" fill="white"/>
<path id="Vector_5" d="M23.5824 15.2048C23.0705 15.062 22.6008 14.9315 22.1387 14.8023C22.2392 14.2951 22.3359 13.8085 22.4393 13.2891C22.9188 13.3468 23.4011 13.4051 23.9304 13.4685C23.8125 14.0565 23.6993 14.6224 23.5824 15.2043V15.2048Z" fill="white"/>
<path id="Vector_6" d="M14.6345 0.27002C15.2103 0.445202 15.7588 0.611931 16.3252 0.784765C16.1346 1.27838 15.9584 1.73347 15.7837 2.18622C15.2859 2.03406 14.8045 1.88705 14.3066 1.73488C14.4123 1.26335 14.5175 0.794158 14.6345 0.27002Z" fill="white"/>
<path id="Vector_7" d="M22.9889 16.8699C22.7062 17.3988 22.4366 17.9032 22.1558 18.4287C21.7105 18.1469 21.2986 17.8858 20.8872 17.6252C21.1342 17.164 21.3719 16.7206 21.6175 16.2622C22.0599 16.4581 22.4991 16.6525 22.9894 16.8695L22.9889 16.8699Z" fill="white"/>
<path id="Vector_8" d="M21.3958 7.27346C21.8302 7.05413 22.2674 6.83339 22.7366 6.59668C22.9621 7.14007 23.1819 7.67079 23.4129 8.22827C22.9226 8.3903 22.4609 8.54341 21.9885 8.69981C21.7879 8.217 21.5954 7.75345 21.3958 7.27346Z" fill="white"/>
<path id="Vector_9" d="M22.5122 11.7029C22.4638 11.2107 22.4155 10.7176 22.3647 10.2038C22.8414 10.1211 23.3139 10.0394 23.8381 9.94873C23.8991 10.5325 23.9578 11.0999 24.0208 11.7029H22.5122Z" fill="white"/>
</g>
<defs>
<clipPath id="clip0_149_291">
<rect width="24.0207" height="24" fill="white"/>
</clipPath>
</defs>
</svg>
