<svg width="914" height="914" viewBox="0 0 914 914" fill="none" xmlns="http://www.w3.org/2000/svg">
<mask id="path-1-inside-1_32_116" fill="white">
<path d="M699.898 757.876H214.422C182.326 757.876 156.316 731.866 156.316 699.77V757.812H156.252V156.188H156.316V214.23C156.316 182.134 182.326 156.124 214.422 156.124H699.898C731.994 156.124 758.004 182.134 758.004 214.23V699.706C758.004 731.802 731.994 757.812 699.898 757.812M757.94 757.812H758.004V757.62L855.958 656.271C889.848 621.228 908.811 574.333 908.811 525.58V0L757.876 156.188L656.399 58.106C621.356 24.2162 574.461 5.25324 525.709 5.25324H0L156.188 156.188L58.106 257.665C24.2162 292.708 5.25324 339.603 5.25324 388.355V914L156.188 757.812L257.665 855.894C292.708 889.784 339.603 908.747 388.355 908.747H914L757.876 757.812H757.94Z"/>
</mask>
<path d="M156.316 757.812V759.812H158.316V757.812H156.316ZM156.252 757.812H154.252V759.812H156.252V757.812ZM156.252 156.188V154.188H154.252V156.188H156.252ZM156.316 156.188H158.316V154.188H156.316V156.188ZM758.004 757.812V759.812H760.004V757.812H758.004ZM758.004 757.62L756.566 756.23L756.004 756.811V757.62H758.004ZM855.958 656.271L854.52 654.88L854.52 654.881L855.958 656.271ZM908.811 0H910.811V-4.94768L907.373 -1.38982L908.811 0ZM757.876 156.188L756.486 157.626L757.924 159.016L759.314 157.578L757.876 156.188ZM656.399 58.106L655.009 59.5436L655.009 59.544L656.399 58.106ZM0 5.25324V3.25324H-4.94768L-1.38982 6.69143L0 5.25324ZM156.188 156.188L157.626 157.578L159.016 156.14L157.578 154.75L156.188 156.188ZM58.106 257.665L59.5436 259.055L59.544 259.055L58.106 257.665ZM5.25324 914H3.25324V918.948L6.69143 915.39L5.25324 914ZM156.188 757.812L157.578 756.374L156.14 754.984L154.75 756.422L156.188 757.812ZM257.665 855.894L259.055 854.456L259.055 854.456L257.665 855.894ZM914 908.747V910.747H918.946L915.39 907.309L914 908.747ZM757.876 757.812V755.812H752.93L756.486 759.25L757.876 757.812ZM699.898 755.876H214.422V759.876H699.898V755.876ZM214.422 755.876C183.431 755.876 158.316 730.762 158.316 699.77H154.316C154.316 732.971 181.221 759.876 214.422 759.876V755.876ZM154.316 699.77V757.812H158.316V699.77H154.316ZM156.316 755.812H156.252V759.812H156.316V755.812ZM158.252 757.812V156.188H154.252V757.812H158.252ZM156.252 158.188H156.316V154.188H156.252V158.188ZM154.316 156.188V214.23H158.316V156.188H154.316ZM158.316 214.23C158.316 183.238 183.431 158.124 214.422 158.124V154.124C181.221 154.124 154.316 181.029 154.316 214.23H158.316ZM214.422 158.124H699.898V154.124H214.422V158.124ZM699.898 158.124C730.89 158.124 756.004 183.238 756.004 214.23H760.004C760.004 181.029 733.099 154.124 699.898 154.124V158.124ZM756.004 214.23V699.706H760.004V214.23H756.004ZM756.004 699.706C756.004 730.698 730.89 755.812 699.898 755.812V759.812C733.099 759.812 760.004 732.907 760.004 699.706H756.004ZM757.94 759.812H758.004V755.812H757.94V759.812ZM760.004 757.812V757.62H756.004V757.812H760.004ZM759.442 759.01L857.396 657.661L854.52 654.881L756.566 756.23L759.442 759.01ZM857.396 657.661C891.646 622.245 910.811 574.852 910.811 525.58H906.811C906.811 573.814 888.049 620.211 854.52 654.88L857.396 657.661ZM910.811 525.58V0H906.811V525.58H910.811ZM907.373 -1.38982L756.438 154.798L759.314 157.578L910.249 1.38982L907.373 -1.38982ZM759.266 154.75L657.789 56.6679L655.009 59.544L756.486 157.626L759.266 154.75ZM657.789 56.6683C622.373 22.4177 574.98 3.25324 525.709 3.25324V7.25324C573.943 7.25324 620.339 26.0146 655.009 59.5436L657.789 56.6683ZM525.709 3.25324H0V7.25324H525.709V3.25324ZM-1.38982 6.69143L154.798 157.626L157.578 154.75L1.38982 3.81505L-1.38982 6.69143ZM154.75 154.798L56.6679 256.275L59.544 259.055L157.626 157.578L154.75 154.798ZM56.6683 256.275C22.4177 291.691 3.25324 339.084 3.25324 388.355H7.25324C7.25324 340.122 26.0146 293.725 59.5436 259.055L56.6683 256.275ZM3.25324 388.355V914H7.25324V388.355H3.25324ZM6.69143 915.39L157.626 759.202L154.75 756.422L3.81505 912.61L6.69143 915.39ZM154.798 759.25L256.275 857.332L259.055 854.456L157.578 756.374L154.798 759.25ZM256.275 857.332C291.691 891.582 339.084 910.747 388.355 910.747V906.747C340.122 906.747 293.725 887.985 259.055 854.456L256.275 857.332ZM388.355 910.747H914V906.747H388.355V910.747ZM915.39 907.309L759.266 756.374L756.486 759.25L912.61 910.185L915.39 907.309ZM757.876 759.812H757.94V755.812H757.876V759.812Z" fill="white" mask="url(#path-1-inside-1_32_116)"/>
</svg>
