<svg width="24" height="24" viewBox="0 0 24 24" fill="none" xmlns="http://www.w3.org/2000/svg">
<g id="Capa_4" clip-path="url(#clip0_146_2291)">
<path id="Vector" d="M0 21.7034C0.102722 21.2667 0.384474 20.9533 0.692641 20.6463C2.27221 19.0775 3.84357 17.5004 5.41786 15.9257C5.97725 15.3663 6.44391 15.3663 7.00506 15.9309C7.08724 16.0137 7.15651 16.1088 7.25805 16.2303C7.48874 15.9497 7.69007 15.7056 7.89082 15.4608C7.91547 15.4778 7.94013 15.4949 7.96419 15.5119C7.90139 15.4344 7.84151 15.3546 7.77636 15.2795C6.86595 14.2406 6.23318 13.0497 5.86279 11.7233C5.4971 10.4121 5.42079 9.08034 5.65324 7.73511C6.09993 5.14911 7.40656 3.09956 9.55903 1.61346C11.3358 0.387963 13.3239 -0.134402 15.4811 0.0457848C15.9765 0.0874566 16.4672 0.194277 16.9585 0.279968C17.0877 0.302272 17.1757 0.288185 17.2925 0.203081C17.4346 0.0991951 17.6283 0.020547 17.8026 0.0140908C18.4348 -0.00762549 19.0682 0.000591477 19.7009 0.00704767C20.1553 0.0117431 20.4399 0.301098 20.4493 0.760074C20.4564 1.08817 20.4576 1.41626 20.4487 1.74435C20.4446 1.89695 20.4869 2.00084 20.6102 2.10237C22.2167 3.41826 23.2845 5.08631 23.7441 7.10886C24.3352 9.70953 23.9067 12.1511 22.4275 14.3815C21.2318 16.1845 19.5783 17.4012 17.5179 18.0486C16.9926 18.2135 16.4397 18.2945 15.8979 18.4048C15.6607 18.453 15.4723 18.3268 15.4365 18.1202C15.4036 17.9277 15.5369 17.7733 15.7699 17.7158C16.4502 17.5491 17.1528 17.4399 17.8044 17.1958C19.9504 16.3923 21.5265 14.9285 22.485 12.8513C23.5474 10.5494 23.5791 8.20171 22.5954 5.86046C22.1211 4.7318 21.4143 3.75751 20.457 2.89942C20.457 3.32083 20.4493 3.69705 20.4634 4.07327C20.4664 4.14488 20.548 4.21766 20.6025 4.28222C21.4384 5.26473 21.999 6.38517 22.2608 7.64707C22.6294 9.42076 22.4245 11.134 21.591 12.7422C20.6501 14.5569 19.2149 15.8552 17.265 16.502C14.7656 17.3314 12.4059 16.9821 10.257 15.4503C8.65097 14.3052 7.62609 12.7369 7.25277 10.8053C6.70688 7.98279 7.49754 5.54528 9.60658 3.5826C11.0224 2.26495 12.7346 1.61346 14.6705 1.57297C15.3843 1.55829 16.0875 1.65631 16.7772 1.84647C16.8517 1.86702 16.9268 1.88462 17.0366 1.9128C17.0366 1.63635 17.046 1.38046 17.029 1.12632C17.0255 1.07349 16.931 0.99954 16.8658 0.981932C15.8351 0.707251 14.7855 0.616277 13.7307 0.770052C10.6262 1.22316 8.36158 2.85834 7.00213 5.68849C6.24022 7.27437 6.02656 8.96824 6.36408 10.6926C7.04967 14.1966 9.15401 16.4439 12.5579 17.4775C12.9946 17.6101 13.4613 17.6436 13.9144 17.7222C13.999 17.7369 14.0853 17.7434 14.1692 17.761C14.3881 17.8062 14.5114 17.9623 14.4838 18.1536C14.4562 18.3432 14.2878 18.47 14.0729 18.4512C13.2459 18.3784 12.4364 18.2188 11.6534 17.9371C10.5317 17.5333 9.52205 16.9399 8.62983 16.1481C8.58405 16.1076 8.53474 16.0706 8.48602 16.0313C8.25945 16.2684 8.0405 16.4979 7.79573 16.7544C7.89317 16.8419 8.01996 16.9452 8.13442 17.0608C8.58288 17.5133 8.5864 18.031 8.13853 18.4817C7.37369 19.2524 6.60357 20.0177 5.83579 20.786C4.96295 21.6588 4.08599 22.5274 3.21961 23.4066C2.96427 23.6655 2.68604 23.8773 2.34383 24.0012H1.82845C0.982611 23.585 0.318732 22.9969 0 22.0796V21.7045L0 21.7034ZM17.7551 15.5371C18.4542 15.209 19.0453 14.7847 19.5853 14.2817C19.7045 14.1708 19.752 14.0598 19.7508 13.8978C19.7444 12.6794 19.7467 11.4615 19.7485 10.243C19.7485 10.1503 19.7526 10.0552 19.7725 9.96484C19.8142 9.77702 19.9428 9.68898 20.1312 9.70248C20.3102 9.71539 20.4153 9.82045 20.4405 9.99712C20.4517 10.074 20.4499 10.1527 20.4499 10.2307C20.4499 11.1369 20.4499 12.0426 20.4499 12.9488V13.237C21.2934 12.1271 21.9561 10.2865 21.6538 8.22988C21.4971 7.16461 21.1191 6.18503 20.4734 5.3158C20.4499 6.27483 20.4499 7.22624 20.4499 8.17765C20.4499 8.26334 20.4505 8.34962 20.4423 8.43472C20.4223 8.62782 20.302 8.73347 20.1183 8.7411C19.9346 8.74931 19.8031 8.65482 19.769 8.46407C19.7514 8.36488 19.7479 8.26275 19.7479 8.1618C19.7467 5.78005 19.7473 3.39772 19.7473 1.01597V0.717815H17.7545V15.5377L17.7551 15.5371ZM14.3259 5.33869C14.3259 5.23128 14.3259 5.14793 14.3259 5.06459C14.3259 4.53401 14.3212 4.00284 14.3277 3.47226C14.3336 2.95694 14.6177 2.67815 15.1277 2.67287C15.3308 2.67111 15.5339 2.67287 15.737 2.67287C16.135 2.67287 16.533 2.67287 16.931 2.67287C14.4339 1.77428 11.0922 2.40347 9.10646 5.18491C7.21579 7.83312 7.53628 11.0266 8.90043 12.9681V12.7099C8.90043 11.4374 8.90043 10.165 8.90043 8.89252C8.90043 8.25806 9.15636 8.00509 9.79793 8.0045C10.3133 8.00392 10.8287 8.0045 11.344 8.00392C11.4274 8.00392 11.5102 7.99687 11.6152 7.99159C11.6152 7.88536 11.6152 7.80143 11.6152 7.7175C11.6152 7.17107 11.6094 6.62464 11.6182 6.07821C11.6252 5.6345 11.914 5.3516 12.3572 5.34103C12.6225 5.33458 12.8878 5.33927 13.1537 5.33927C13.5341 5.33927 13.915 5.33927 14.3265 5.33927L14.3259 5.33869ZM15.0485 3.3854V16.2725C15.6496 16.1505 16.2189 16.0307 16.7907 15.9221C16.9897 15.884 17.0419 15.7848 17.0419 15.5864C17.036 11.6047 17.0372 7.62359 17.0366 3.64188C17.0366 3.55913 17.029 3.47637 17.0243 3.3854H15.0491H15.0485ZM12.3167 6.05297V6.35876C12.3167 8.48226 12.3167 10.6052 12.3167 12.7287C12.3167 13.6813 12.3149 14.6332 12.3202 15.5858C12.3202 15.6592 12.349 15.7807 12.3959 15.7989C13.0087 16.0337 13.6427 16.1716 14.306 16.1974V6.05297H12.3173H12.3167ZM11.6041 8.72231H9.6236C9.61479 8.76047 9.60599 8.78277 9.60599 8.80507C9.60481 10.4761 9.60305 12.1464 9.60834 13.8174C9.60834 13.892 9.65236 13.9818 9.7046 14.0381C10.2147 14.5845 10.8005 15.0341 11.4609 15.3857C11.5031 15.4086 11.553 15.4174 11.6047 15.4344V8.7229L11.6041 8.72231ZM3.58823 18.7517C2.69249 19.6468 1.79382 20.5371 0.905129 21.4375C0.626312 21.7198 0.638051 22.0866 0.915108 22.3801C1.12407 22.6019 1.34361 22.8132 1.55962 23.0281C1.91474 23.3802 2.24169 23.3826 2.59153 23.0339C3.43209 22.1958 4.27148 21.3559 5.11087 20.5166C5.15724 20.4702 5.19774 20.4168 5.22415 20.3869C4.67532 19.8381 4.14058 19.304 3.58882 18.7523L3.58823 18.7517ZM6.77731 18.8579C7.07374 18.5586 7.37545 18.2552 7.67599 17.9506C7.79925 17.8261 7.78575 17.7023 7.66601 17.5831C7.24103 17.1588 6.81605 16.7344 6.39108 16.3101C6.26781 16.1868 6.14748 16.1915 6.02539 16.313C5.72192 16.6153 5.41669 16.917 5.11967 17.211C5.66968 17.7575 6.21029 18.2945 6.77673 18.8574L6.77731 18.8579ZM6.21381 19.3991C5.66968 18.8556 5.13024 18.3174 4.58845 17.7768C4.44816 17.9236 4.29555 18.0844 4.15408 18.2323C4.68472 18.7652 5.22239 19.3046 5.76594 19.8499C5.91503 19.6996 6.07293 19.5405 6.21381 19.3985V19.3991Z" fill="#E30613"/>
</g>
<defs>
<clipPath id="clip0_146_2291">
<rect width="24" height="24" fill="white"/>
</clipPath>
</defs>
</svg>
