<svg width="24" height="24" viewBox="0 0 24 24" fill="none" xmlns="http://www.w3.org/2000/svg">
<g id="Capa_1" clip-path="url(#clip0_134_211)">
<path id="Vector" d="M24.0035 12.1883C23.532 12.7143 23.098 13.2816 22.5814 13.7594C20.5175 15.668 18.1323 17.0219 15.4115 17.7533C12.7627 18.4652 10.1371 18.3337 7.55284 17.4351C4.81827 16.4846 2.44939 14.9636 0.485028 12.827C0.395483 12.7293 0.309695 12.6279 0.224533 12.5258C-0.0791697 12.1633 -0.0797959 11.8376 0.224533 11.4751C0.875144 10.7005 1.60841 10.0104 2.4043 9.38735C4.32796 7.88136 6.45513 6.78052 8.83277 6.1894C11.6381 5.49182 14.3796 5.73666 17.0565 6.78741C19.6358 7.79996 21.8769 9.3072 23.7098 11.3987C23.8206 11.5252 23.9064 11.6742 24.0035 11.8132V12.1883ZM16.7923 12.0117C16.7985 9.36794 14.672 7.22386 12.0301 7.21071C9.37317 7.19756 7.22346 9.32348 7.21031 11.9773C7.19716 14.6298 9.33185 16.782 11.9838 16.7908C14.6376 16.7996 16.786 14.6643 16.7923 12.0123V12.0117ZM16.9958 15.73C19.0509 14.8214 20.7999 13.5734 22.3316 12.0117C21.2896 10.7506 18.0403 8.49879 17.0277 8.32157C18.6157 10.7731 18.6139 13.2259 16.9958 15.7294V15.73ZM7.00743 15.73C5.38685 13.2271 5.38372 10.77 7.00555 8.27211C4.95102 9.17946 3.20144 10.4268 1.65976 12.0017C3.20583 13.5853 4.9554 14.8252 7.00743 15.73Z" fill="#D4D3D3"/>
<path id="Vector_2" d="M12.1885 0.000137909C12.5824 0.182359 12.7358 0.486688 12.7114 0.920012C12.6857 1.37901 12.7076 1.84051 12.7051 2.30076C12.702 2.75037 12.407 3.05845 11.9894 3.05344C11.5848 3.04843 11.2999 2.74097 11.2974 2.30014C11.2949 1.83989 11.3181 1.37838 11.2905 0.919386C11.2649 0.484183 11.422 0.182986 11.814 -0.000488281H12.1891L12.1885 0.000137909Z" fill="#D4D3D3"/>
<path id="Vector_3" d="M5.77441 22.2428C5.82138 22.1131 5.85269 21.9748 5.91906 21.8558C6.20649 21.3379 6.50142 20.8238 6.79886 20.3116C7.02617 19.9202 7.44008 19.7956 7.79513 20.0048C8.14016 20.2076 8.23973 20.6222 8.02619 21.0035C7.725 21.5408 7.42255 22.0774 7.11008 22.6085C6.936 22.9046 6.61977 23.0217 6.30542 22.9309C5.99546 22.842 5.80009 22.5797 5.77441 22.2434V22.2428Z" fill="#D4D3D3"/>
<path id="Vector_4" d="M18.2018 22.2092C18.1968 22.573 18.0096 22.8316 17.7265 22.9243C17.4234 23.0232 17.0909 22.9299 16.9244 22.6519C16.5793 22.077 16.245 21.4953 15.93 20.9042C15.754 20.5748 15.9012 20.1747 16.2205 19.9962C16.5292 19.8234 16.9463 19.8985 17.1348 20.2079C17.4873 20.7865 17.8136 21.382 18.1429 21.975C18.1899 22.0595 18.193 22.1685 18.2024 22.2098L18.2018 22.2092Z" fill="#D4D3D3"/>
<path id="Vector_5" d="M7.43947 4.08833C7.17522 4.08833 6.96795 3.97499 6.83645 3.75019C6.50958 3.19163 6.18459 2.63181 5.87525 2.06386C5.69303 1.72947 5.82954 1.3118 6.15203 1.12958C6.48266 0.942975 6.89281 1.03565 7.09382 1.37129C7.42632 1.92609 7.75132 2.48653 8.05564 3.05699C8.31301 3.53853 7.97487 4.0852 7.43947 4.0877V4.08833Z" fill="#D4D3D3"/>
<path id="Vector_6" d="M16.5687 4.0883C16.0415 4.09018 15.6895 3.55854 15.935 3.0864C16.2412 2.49903 16.5756 1.92607 16.9175 1.35874C17.1179 1.02623 17.5387 0.9442 17.8643 1.13769C18.1724 1.32054 18.3058 1.73257 18.1292 2.05819C17.8173 2.63366 17.4886 3.20099 17.1554 3.76456C17.029 3.97934 16.8229 4.08768 16.5681 4.0883H16.5687Z" fill="#D4D3D3"/>
<path id="Vector_7" d="M11.2968 22.457C11.2968 22.1921 11.293 21.9266 11.2974 21.6618C11.3049 21.2472 11.6055 20.946 12.0038 20.9473C12.402 20.9485 12.7007 21.2491 12.7045 21.6668C12.7095 22.2047 12.7101 22.7432 12.7045 23.2811C12.7001 23.6937 12.3914 24.0012 11.9987 23.9999C11.6061 23.9987 11.3049 23.69 11.298 23.2761C11.2937 23.0031 11.2974 22.73 11.2974 22.457H11.2968Z" fill="#D4D3D3"/>
<path id="Vector_8" d="M14.3965 11.9964C14.3977 13.3246 13.3313 14.3941 12.005 14.396C10.6781 14.3978 9.60672 13.3296 9.60547 12.0039C9.60422 10.6764 10.6706 9.60686 11.9975 9.60498C13.3257 9.6031 14.3958 10.6701 14.3971 11.9964H14.3965ZM12.9863 11.9926C12.9831 11.4497 12.5429 11.0139 11.9988 11.0152C11.4552 11.0158 11.0169 11.4535 11.015 11.9964C11.0131 12.55 11.4596 12.992 12.0144 12.9864C12.5548 12.9808 12.99 12.5362 12.9869 11.9926H12.9863Z" fill="#D4D3D3"/>
</g>
<defs>
<clipPath id="clip0_134_211">
<rect width="24.0069" height="24" fill="white" transform="translate(-0.00341797)"/>
</clipPath>
</defs>
</svg>
